<svg width="763" height="827" viewBox="0 0 763 827" fill="none" xmlns="http://www.w3.org/2000/svg">
<path d="M249.2 355.6C342 398.6 498.2 473 529.6 420C550.2 385.4 583.6 266.4 590 210.4C593.6 180 442.2 157.2 437.2 184.4C427.6 238 426.4 279.4 422.4 304.2C421.6 309.4 309.4 293.6 255.6 296.6C186 300.4 208.2 336.6 249.2 355.6Z" fill="#EB9481"/>
<path d="M598.6 232.6C598.6 232.6 550.4 425.4 522.6 442.8C473 473.8 315.8 399.8 255.4 364.8C217.8 343 193.2 321.6 200.2 307.4C204.4 298.8 219.8 293 250.8 291.2C331.8 286.4 413.2 301.6 414.2 299.8C415.2 298 422.4 202.2 422.4 202.2L598.6 232.6Z" fill="#FFC727"/>
<path opacity="0.2" d="M598.6 232.6C598.6 232.6 550.4 425.4 522.6 442.8C473 473.8 315.8 399.8 255.4 364.8C217.8 343 193.2 321.6 200.2 307.4C204.4 298.8 219.8 293 250.8 291.2C331.8 286.4 413.2 301.6 414.2 299.8C415.2 298 422.4 202.2 422.4 202.2L598.6 232.6Z" fill="black"/>
<path d="M413.8 297.8C414.4 309.6 416.8 320.8 419.6 331.8C421 337.2 422.6 342.4 424.4 347.8C426 353 428 358.2 430.8 362.6C431 362.8 431.2 362.6 431.2 362.4C430.4 356.8 429 351.4 427.6 346C426.2 340.6 424.8 335.2 423.4 329.8C420.4 319 418.2 308 414.8 297.6C414.4 297 413.8 297.4 413.8 297.8Z" fill="#263238"/>
<path d="M573.6 278C553.8 275.6 542.6 273.4 523.2 270C503.6 266.6 484.2 263 464.8 259.2C453.8 257 442.8 254.8 432 252.2C431.8 252.2 431.8 251.6 432.2 251.6C452 254 471.4 257.4 491 260.6C510.6 264 530 267.4 549.6 271.2C560.6 273.4 563.2 274.4 574 276.8C574.4 277.2 574.2 278.2 573.6 278Z" fill="#263238"/>
<path opacity="0.1" d="M345.8 409.8C309.6 394.2 276.4 377 255.4 364.8C217.8 343 193.2 321.6 200.2 307.4C203.2 301.2 212.4 296.4 229 293.6L345.8 409.8Z" fill="black"/>
<path d="M384.4 827H151.4C151.4 826.6 151.2 826.2 151.2 826C150.8 824.2 150.2 822.4 149.8 820.6C148.2 814.4 146.8 808.6 145.2 802.8C144.2 799.2 143.4 795.8 142.6 792.4C141.6 788.8 140.8 785.4 140 782C139.8 781.2 139.6 780.2 139.4 779.4C139.2 778.4 139 777.4 138.6 776.6C138.2 775.4 138 774.2 137.8 773.2C137.4 772 137.2 770.8 136.8 769.6C136.2 767.4 135.6 765.2 135.2 763C134.4 759.8 133.6 756.6 132.8 753.6C132.4 752.2 132.2 751 131.8 749.6C131.2 747.4 130.8 745.4 130.2 743.4C129.8 742 129.6 740.6 129.2 739.4C127.8 734 126.6 729 125.4 724.2C125 723 124.8 721.8 124.4 720.6C124 718.6 123.4 716.6 123 714.8C122.6 713.6 122.4 712.4 122.2 711.4C121.2 707.4 120.2 703.6 119.4 700.4C119.2 699.6 119 698.8 118.8 698C118.2 695.8 117.8 694 117.4 692.2C117.2 691.6 117 690.8 117 690.2C116.8 689.6 116.6 688.8 116.6 688.4C116.6 688 116.4 687.6 116.4 687.2C116.2 686.6 116 686 116 685.6C116 685.4 115.8 685.2 115.8 684.8C115.4 683.4 115.2 682.6 115.2 682.6H343.4C343.4 682.6 351 708.6 363 750.2C365.4 758.6 368 767.8 370.8 777.6C374.4 792.4 379.2 809.2 384.4 827Z" fill="#263238"/>
<path d="M189.6 827H184.8C180 806.4 175.2 785.6 170.4 764.8C168.4 756 166.6 747.2 164.6 738.4C164.4 737.6 164.2 736.8 164 736C164 735.6 164.6 735.4 164.6 735.8C164.6 736 164.8 736.4 164.8 736.6C167.4 746 170 755.4 172.6 764.8C178.6 785.6 184 806.2 189.6 827Z" fill="#37474F"/>
<path d="M335.2 682C335 683.4 334.2 697 332 717.6C331.4 723.6 330.6 730.4 329.8 737.4C328.4 748.6 326.8 761 324.8 774.2C322.2 791 319 808.8 315.2 826.8H3.79999C3.79999 826.8 -0.200013 817.6 0.599987 812C7.39999 760.4 24.4 682 24.4 682H291.4H335.2Z" fill="#263238"/>
<path d="M280.4 702.6C280.2 704 280 705.6 280 707C279.2 715.6 278.2 724 277 732.4C275.6 742.4 274.6 752.4 273.2 762.4C272.8 765.8 272.2 769.2 271.8 772.6C269.4 789 267.2 805.4 264.4 821.6C264.2 823.2 263.8 824.8 263.4 826.8H256.8C257.6 821.4 258.4 815.8 259.2 810.4C261 799.4 263.2 788.4 265 777.4C265.4 775.8 265.6 774 266 772.4C270 750 274 727.6 279 705.4C279.2 704.4 279.4 703.6 279.6 702.6C279.6 702 280.6 702.2 280.4 702.6Z" fill="#37474F"/>
<path d="M308.2 709C307.8 719.6 307.4 730 306.8 740.6C306 752 305 763.4 303.6 774.6C303.6 775 303.6 775.4 303.4 775.8C302 786.4 300.4 797 298.6 807.6C297.6 813.8 296.6 820.4 295 826.8H288C290 819.4 291 811.6 292.4 804.2C294.2 794.2 295.8 784.2 297.2 774.2C299 761.8 300.8 749.2 302.8 736.8C303.8 730.4 304.8 724 305.8 717.8C306.2 714.8 306.8 712 307.2 709C307.2 708.2 308.2 708.4 308.2 709Z" fill="#37474F"/>
<path d="M74 787.4C86.2 787.4 98.4 785.6 110.4 782.6C115.8 781.2 121.2 779.4 126.6 777.6C131.8 776 137 773.8 141.2 770.2C149.4 763 153.4 751.8 156.8 742C160.8 730.8 163.8 719.4 166.4 707.6C166.6 707 167.4 707.2 167.4 707.8C167.8 720.8 166 734.2 162.4 746.8C159.4 757.6 155.4 769.6 146.8 777.2C137.6 785.2 125.2 788 113.6 789.4C100.4 791 87.2 790.6 74 788.8C73.2 788.6 73.2 787.4 74 787.4Z" fill="#37474F"/>
<path d="M53.8 708C53.2 721.2 42.6 785.2 37.4 827H32.8C38.8 785.2 51.4 721.2 52.4 708C52.4 707 53.8 707 53.8 708Z" fill="#37474F"/>
<path d="M276.6 83C276.6 83 293.4 93.4 297.8 106.6C302.2 119.6 301.4 154.2 301.4 154.2L276.6 83Z" fill="#263238"/>
<path d="M343 683.4L19.2 694.6C19.2 694.6 1.60002 678.6 2.80002 658.4C7.00002 583.6 106.4 335.2 150.2 301C169.8 285.6 213 271.8 238.6 288.4C278.4 314.4 329.8 515.2 359 628.6C367.4 661.2 343.2 683 343 683.4Z" fill="#FFC727"/>
<g opacity="0.2">
<path d="M343 683.4L19.2 694.6C19.2 694.6 1.60002 678.6 2.80002 658.4C7.00002 583.6 106.4 335.2 150.2 301C169.8 285.6 213 271.8 238.6 288.4C278.4 314.4 329.8 515.2 359 628.6C367.4 661.2 343.2 683 343 683.4Z" fill="black"/>
</g>
<path d="M169.8 281C156 290 164 304.6 173.4 320C202.6 367.6 251 414.4 253.4 414.4C255.8 414.4 265.2 337.6 263.4 316.6C261.4 295.6 256.2 290.4 231.2 280.6C209.6 272.2 182 273.2 169.8 281Z" fill="#EBEBEB"/>
<path opacity="0.1" d="M166.2 324.6C176.8 344 189.6 362.2 203.6 379.4C221 399.8 239.2 420 261 435.6C261.2 435.6 261.2 435.8 261.2 435.8C261 435.8 260.8 435.8 260.6 435.8C261.4 433.8 262.2 430 262.6 427.4C268.2 392 269.8 355.6 265.8 319.8C269.4 341.8 269.8 364 268.8 386.2C267.8 402.8 267 419.8 262.6 436C262.4 436.8 261.6 438.2 260.6 437.8C256 435.4 252.2 431.8 248.2 428.6C215.2 399.2 186.2 364.2 166.2 324.6Z" fill="black"/>
<path d="M235 353C213.6 356.2 180.2 321.4 168 294.2C167.2 292.4 171.4 273.8 175.6 251C178 237.2 180.4 221.6 181.6 207.4L269.4 236.4C269.4 236.4 258.2 265.6 256.4 290.6C256.2 292.6 256.4 294.6 256.6 296.6C256.6 296.8 256.6 297.2 256.6 297.6C257.4 308.6 255.6 349.8 235 353Z" fill="#EB9481"/>
<path d="M256.2 290.4C256.2 291.8 256.2 293.2 256.2 294.6C210 291.6 186.6 252 178.4 233C179.6 224.4 180.8 215.8 181.4 207.4L269.2 236.4C269.2 236.4 258 265.6 256.2 290.4Z" fill="#263238"/>
<path d="M256.4 295.6L234.8 342L170.6 280.8L152 299.4C152 299.4 214.4 395.4 215 391.2L237 351.4L267.8 380.4L266 309.8L256.4 295.6Z" fill="#EBEBEB"/>
<path d="M269 345.4C268.2 333.8 267.8 322 266.6 310.4C266.6 310 265.8 309.8 265.8 310.2C263 321.4 266.2 366 266 376.6C266 376.6 266 376.6 265.8 376.4C264.6 375.2 237.2 350.8 237 351.2C232.2 357.4 216.2 386.4 215 389C205.2 373.8 167.2 318.2 155.6 303.8C155.2 303.4 154.6 303.6 154.8 304.2C163.4 320.2 213.6 395 214.4 394.8C215 395.2 235 359.6 237.4 352.8C242 358 269.4 385.4 269.6 383.6C270.2 372 269.6 357 269 345.4Z" fill="#263238"/>
<path d="M148.6 116C143 149 171.4 238.6 196.8 256.2C233.4 281.6 287.4 277.6 307.8 235C327.4 193.6 288.2 77.4 260.6 62.2C219.6 39.4 157 67.2 148.6 116Z" fill="#EB9481"/>
<path d="M219.8 156C222.6 155.6 225.2 154.6 228 154C231.2 153.2 233.6 152.8 235.8 150.2C237 148.8 236.8 146.2 235.6 145C232.8 142 228.8 142.2 225 143C221 144 218 145.6 215.4 149C212.8 152.2 216.2 156.6 219.8 156Z" fill="#263238"/>
<path d="M273.6 153.2C273.6 153 274.2 153.4 274.2 153.6C275.6 159.8 278.4 166.6 284.4 167.2C284.6 167.2 284.6 167.6 284.4 167.6C277.6 168.4 274 159.4 273.6 153.2Z" fill="#263238"/>
<path d="M277.4 145.4C287 142 293 161.6 284.2 164.8C275.4 167.8 269.4 148.2 277.4 145.4Z" fill="#263238"/>
<path d="M238.2 164.2C238 164 237.8 164.6 238 164.8C240.2 170.8 241.6 178 236.6 181.8C236.4 182 236.6 182.2 236.8 182.2C243.2 179.2 241.2 169.6 238.2 164.2Z" fill="#263238"/>
<path d="M230.8 159.6C220.8 162 226.2 181.6 235.4 179.6C244.6 177.4 239.2 157.6 230.8 159.6Z" fill="#263238"/>
<path d="M280 129.6C277.2 130 274.4 130 271.6 130C268.4 130.2 265.8 130.6 263 128.8C261.4 127.8 260.8 125.2 261.6 123.6C263.4 120 267.4 118.8 271.2 118.4C275.4 118 278.8 118.8 282.2 121.2C285.6 123.8 283.8 129.2 280 129.6Z" fill="#263238"/>
<path d="M251 221.8C252.8 222.8 255 224.2 257.2 223.8C259.4 223.4 261.6 221.6 263.2 220.2C263.4 220 263.6 220.2 263.6 220.4C262.8 223.2 260 225.8 257 226.2C254.2 226.6 252 224.6 250.6 222.4C250.2 221.8 250.6 221.6 251 221.8Z" fill="#263238"/>
<path d="M251.6 201.6C256.6 205.8 262.6 207 268.2 206.4C270.8 206.2 273.4 205.4 275.8 204.4C276.2 204.2 276.8 204 277.2 203.8C277.6 203.6 278 203.4 278.4 203.2C279 202.8 279.2 202.2 279.2 201.4C279.2 201.2 279 201 279 200.8L278.8 200.2C277.4 195.6 274.8 188.6 274.8 188.6C276.8 189 286.6 190 285.8 187.6C278.2 167.8 269.8 145.8 258 127.8C257.6 127.2 256.6 127.6 257 128.4C263.6 147.6 273.4 165.6 280.4 185C277.2 184.8 272.2 184.4 269.8 185.2C269.2 185.6 275.2 198.6 275.8 200.6C275.8 200.6 275.8 200.6 275.8 200.8C268.2 204.2 261.6 203.8 252.4 201C251.4 200.6 251 201.2 251.6 201.6Z" fill="#263238"/>
<path d="M177 195.4C170.2 202 127.6 176.8 116.6 155.6C109.4 141.4 112.4 127 112.4 127C112.4 127 94.4 127 95.4 119.8C96.4 112.8 112 115 112 115C112 115 107.4 93.8 113.2 89.2C119 84.6 122.4 98.2 122.4 98.2C122.4 98.2 125.2 77.2 132 69.4C138.8 61.6 144.4 68.2 144.4 68.2C144.4 68.2 145.8 58.8 153.2 55.2C160.6 51.6 164.8 55.8 169.8 52.4C174.8 49 164.6 29.8 186.4 13.4C208.2 -3.20003 221.2 21.4 221.2 21.4C221.2 21.4 225.2 7.19996 239 2.19996C254.8 -3.60004 272.2 8.39996 275 20.2C277.8 32 271.4 40.8 271.4 40.8C271.4 40.8 282.2 41 288.2 49.6C294.2 58.2 295.2 75.2 284.4 84.8C275.2 93 263.2 91.2 261.2 92.4C259.2 93.6 256 105.6 246.8 110.4C237.8 115.2 226.2 110.6 226.2 110.6C226.2 110.6 224.4 120.2 215.4 124.2C206.4 128.2 186.2 115.6 186.2 115.6C186.2 115.6 187.8 130.4 182.2 137.6C176.6 144.8 165.8 147 165.8 147C165.8 147 188.6 184 177 195.4Z" fill="#263238"/>
<path d="M163.6 147.6C179 144 188 141.8 186.2 123.8C186 119.4 185.4 115 184.6 110.6C186.2 114.8 187.6 119 188.2 123.6C191.8 142.2 180.2 148 163.6 147.6Z" fill="#263238"/>
<path d="M169.8 52.4C172.2 41.2 169 28.8 175.8 18.4C181.8 8.19998 194.2 -0.400016 206.4 4.19998C214 6.99998 219.8 13.8 221.2 21.4C218.4 14.4 212.2 8.99999 205.4 6.99999C191 2.99999 177.8 17.2 174.4 30.4C172.4 37.4 173.2 45.6 169.8 52.4Z" fill="#263238"/>
<path d="M179.8 192.6C179.8 192.6 155 165.8 142.4 175.2C130 184.4 151.6 225.2 168.2 229C184.8 232.6 188.6 217.4 188.6 217.4L179.8 192.6Z" fill="#EB9481"/>
<path d="M149 186.8C148.8 186.8 148.8 187.2 149 187.2C160.8 190.2 168 199.6 173.6 209.6C169.8 206 165 204.4 160 209C159.8 209.2 160 209.6 160.4 209.6C164.8 208 168.2 208.4 171.8 211.6C174.4 213.8 176.2 217 178.2 219.6C178.8 220.6 180.6 219.8 180 218.6C180 218.6 180 218.4 179.8 218.4C178 204.2 164.4 186 149 186.8Z" fill="#263238"/>
<path d="M665.4 72.4004L402 131.4C402 131.4 375.6 157 402.6 187.8L683.8 229.8L665.4 72.4004Z" fill="#FFC727"/>
<path opacity="0.1" d="M512.6 106.6C512.6 106.6 500.2 125.6 501 155C501.8 184.4 508 203.6 508 203.6L499.2 202.2C499.2 202.2 491.4 175.6 493.2 153.2C495.6 123.8 509.6 107.4 509.6 107.4L512.6 106.6Z" fill="black"/>
<path opacity="0.2" d="M678.2 181.8L393 172C391.4 167.8 390.6 163.6 390.6 159.8L673.8 142.8L678.2 181.8Z" fill="white"/>
<path d="M711.2 222.6C700.4 222.6 694.8 202 691.6 193.6C684.4 170.2 680.8 145.6 681.8 121.2C682.6 110.6 682.8 99.2004 688.2 90.0004C689 88.8004 690.4 87.6004 691.8 87.4004C688.8 88.2004 687.6 91.6004 686.6 94.2004C679.4 126.8 685 161.2 693.2 193C695.8 201.6 698.4 210.6 703.6 218C705.6 220.4 708 222.8 711.2 222.6Z" fill="#37474F"/>
<path d="M758.4 178.201C745 219.601 702 240.401 662.6 224.601C623 209.001 601.8 162.8 615.2 121.4C628.6 80.0005 671.6 59.2005 711 75.0005C750.6 90.8005 771.8 137.001 758.4 178.201Z" fill="#FFC727"/>
<path opacity="0.5" d="M758.4 178.201C745 219.601 702 240.401 662.6 224.601C623 209.001 601.8 162.8 615.2 121.4C628.6 80.0005 671.6 59.2005 711 75.0005C750.6 90.8005 771.8 137.001 758.4 178.201Z" fill="white"/>
<path d="M751.2 175.4C739.2 212.6 700.6 231.2 665.2 217.2C629.6 203.2 610.6 161.6 622.8 124.6C634.8 87.4005 673.4 68.8005 708.8 82.8005C744.2 96.8005 763.2 138.2 751.2 175.4Z" fill="#455A64"/>
<path d="M750.6 175.8C738.6 213 700 231.6 664.6 217.6C629 203.6 610 162 622.2 125C634.2 87.8004 672.8 69.2004 708.2 83.2004C743.6 97.2004 762.6 138.6 750.6 175.8Z" fill="#455A64"/>
<path d="M692 186.001C662.206 188.125 623 153.001 623 153.001C623 153.001 647 116 692 116C718.255 116 750 153.001 750 153.001C750 153.001 717.994 184.147 692 186.001Z" fill="white" stroke="#263238" stroke-width="2"/>
<circle cx="692" cy="151" r="27" fill="#00608E"/>
<circle cx="695" cy="152" r="14" fill="#263238"/>
<path opacity="0.2" d="M702.4 213.401C714.8 206.001 725 194.201 730.6 179.401C743.6 145.401 728.8 107.801 697.2 95.6005C682.4 90.0005 666.8 90.6005 652.8 96.6005C668.6 86.8005 687.8 84.2005 705.8 91.2005C737.4 103.401 752.4 141.001 739.2 175.001C732 193.201 718.4 206.601 702.4 213.401Z" fill="white"/>
<path d="M565.4 94.6006C565.4 94.6006 541.4 114.801 541.2 151.201C540.8 187.601 558.4 211.201 558.4 211.201L555.4 213.601L510.2 207.801C510.2 207.801 498 186.401 498.4 154.801C498.8 123.201 515.8 102.201 515.8 102.201L564.4 92.6006L565.4 94.6006Z" fill="#FFC727"/>
<path opacity="0.5" d="M541.2 151.201C540.8 187.601 558.4 211.201 558.4 211.201L555.4 213.601C555.4 213.601 538.8 193.801 537.4 153.201C536 112.401 564.2 92.8005 564.2 92.8005L565.6 94.8005C565.4 94.6005 541.4 114.801 541.2 151.201Z" fill="white"/>
<path d="M546.2 42.8001C531.6 41.4001 527 53.8001 527 53.8001C527 53.8001 518.4 38.2001 503.6 39.4001C496 40.0001 490.4 52.8001 490.4 52.8001C490.4 52.8001 483 40.6001 469.8 42.6001C459.4 44.2001 455.2 56.6001 455.2 56.6001C455.2 56.6001 442.6 48.2001 432.4 53.2001C411.8 63.4001 415.6 153.8 449.6 166.4C465.4 172.2 463.2 150.2 463.2 150.2C463.2 150.2 474 181.2 492.6 180.8C511.2 180.4 506.8 152 506.8 152C506.8 152 517.4 182 536.8 179.6C557 177.2 547.6 149.6 547.6 149.6C547.6 149.6 562 169.2 576.4 164C600.2 155.6 567.6 113.8 571.6 93.8001L599.6 87.2001C599.8 87.4001 570.8 45.2001 546.2 42.8001Z" fill="#EB9481"/>
<path d="M454.4 58.6C454.4 58.2 454 58.2 454 58.6C448 88.6 450.6 123.6 463.4 151.6C463.8 152.6 465.4 152.2 465.2 151.2C457.6 119.6 453.2 91.2 454.4 58.6Z" fill="#263238"/>
<path d="M490.2 52.6C490.2 52.2 489.6 52.2 489.6 52.6C483.6 83.6 487.6 122.8 506.2 153.4C506.8 154.4 508.4 154.8 507.8 153.4C497 132 489 81.8 490.2 52.6Z" fill="#263238"/>
<path d="M549.8 151.6C533 121.6 527.6 89.2001 526.8 55.2001C526.8 54.8001 526.2 54.8001 526 55.2001C521.8 72.0001 524.6 93.6001 528.2 110.2C531.6 126.2 538 139.8 548.6 152.2C549.2 152.6 550.2 152.2 549.8 151.6Z" fill="#263238"/>
<path d="M502.8 74.8L239.4 133.8C239.4 133.8 213 159.4 240 190.2L521.2 232.2L502.8 74.8Z" fill="#FFC727"/>
<path opacity="0.1" d="M350 109C350 109 337.6 128 338.4 157.4C339.2 186.8 345.4 206 345.4 206L336.6 204.6C336.6 204.6 328.8 178 330.6 155.6C333 126.2 347 109.8 347 109.8L350 109Z" fill="black"/>
<path opacity="0.2" d="M515.6 184.2L230.2 174.4C228.6 170.2 227.8 166 227.8 162.2L511 145.2L515.6 184.2Z" fill="white"/>
<path d="M548.6 225C537.8 225 532.2 204.4 529 196C521.8 172.6 518.2 148 519.2 123.6C520 113 520.2 101.6 525.6 92.4C526.4 91.2 527.8 90 529.2 89.8C526.2 90.6 525 94.0001 524 96.6001C516.8 129.2 522.4 163.6 530.6 195.4C533.2 204 535.8 213 541 220.4C543 222.8 545.4 225.2 548.6 225Z" fill="#37474F"/>
<path d="M595.8 180.8C582.4 222.2 539.4 243 500 227.2C460.4 211.6 439.2 165.4 452.6 124C466 82.6001 509 61.8001 548.4 77.6001C588 93.2001 609.2 139.4 595.8 180.8Z" fill="#FFC727"/>
<path opacity="0.5" d="M595.8 180.8C582.4 222.2 539.4 243 500 227.2C460.4 211.6 439.2 165.4 452.6 124C466 82.6001 509 61.8001 548.4 77.6001C588 93.2001 609.2 139.4 595.8 180.8Z" fill="white"/>
<path d="M588.6 177.8C576.6 215 538 233.6 502.6 219.6C467 205.6 448 164 460.2 127C472.2 89.8001 510.8 71.2001 546.2 85.2001C581.6 99.2001 600.6 140.6 588.6 177.8Z" fill="#455A64"/>
<path d="M530 188C500.207 190.124 461 155 461 155C461 155 485 118 530 118C556.256 118 588 155 588 155C588 155 555.994 186.147 530 188Z" fill="white" stroke="#263238" stroke-width="2"/>
<circle cx="530" cy="153" r="27" fill="#00608E"/>
<circle cx="533" cy="154" r="14" fill="#263238"/>
<path opacity="0.2" d="M539.8 215.8C552.2 208.4 562.4 196.6 568 181.8C581 147.8 566.2 110.2 534.6 98.0002C519.8 92.4002 504.2 93.0002 490.2 99.0002C506 89.2002 525.2 86.6002 543.2 93.6002C574.8 105.8 589.8 143.4 576.6 177.4C569.4 195.6 555.8 209.2 539.8 215.8Z" fill="white"/>
<path d="M402.8 97C402.8 97 378.8 117.2 378.6 153.6C378.2 190 395.8 213.6 395.8 213.6L392.8 216L347.6 210.2C347.6 210.2 335.4 188.8 335.8 157.2C336.2 125.6 353.2 104.6 353.2 104.6L401.8 95L402.8 97Z" fill="#FFC727"/>
<path opacity="0.5" d="M378.4 153.6C378 190 395.6 213.6 395.6 213.6L392.6 216C392.6 216 376 196.2 374.6 155.6C373.2 114.8 401.4 95.2 401.4 95.2L402.8 97.2C402.8 97 378.8 117.2 378.4 153.6Z" fill="white"/>
<path d="M138.2 383C210.8 428.6 359.4 487.2 389.2 465C444.4 424 440.4 249.8 439.6 213.4C439.2 197.8 299.2 206.8 299.2 223.4C299.2 237.8 311 337 300.2 343.4C295.8 346 247.4 336.8 164.4 339C100.8 340.8 116.6 369.6 138.2 383Z" fill="#EB9481"/>
<path d="M312.2 283.4C312.2 283.4 306.6 267.8 287.2 231.4C272 203 250.4 133.2 312.8 61.5999C335.6 35.5999 363 36.5999 345.2 68.3999C332.8 90.7999 324.4 100.6 322.4 109C322.4 109 357 94.5999 376.2 106.8C384.8 112.2 408 127.6 424.4 142.2C424.4 142.2 422.2 146.6 418.6 151.8C418.6 151.8 445.2 172.2 439.2 204L439.8 232.2L312.2 283.4Z" fill="#EB9481"/>
<path d="M281.8 203C285.2 186.4 293 151.6 309.2 125.2C327.2 95.9999 370 44.5999 391.4 58.1999C407.2 68.1999 392.6 89.1999 392.6 89.1999C392.6 89.1999 414.8 71.5999 427 83.7999C438.2 94.7999 425.8 110.4 425.8 110.4C425.8 110.4 441 102 449.8 114.8C460.2 130 426.6 145 423.8 169.6C423.2 175.2 281.8 203 281.8 203Z" fill="#EB9481"/>
<path d="M337 149.6C342.8 134.6 364.6 103.8 392 89.1999C392.6 88.7999 393.2 89.1999 392.8 89.5999C366 112.2 345.4 138.2 337.4 149.8C337.2 150 337 149.8 337 149.6Z" fill="#263238"/>
<path d="M367 167C373.2 154.6 397.2 123.8 425.4 110C426 109.6 426.6 110 426 110.4C397 132.8 375.8 156 367.2 167.2C367.2 167.4 367 167.2 367 167Z" fill="#263238"/>
<path d="M289.8 94C267.8 133 267.6 180.2 283.6 221.4C288.8 235.2 295.2 248.4 302.4 261.4C293.8 249.4 286.4 236.4 280.6 222.6C263 181.8 263.6 131.4 289.8 94Z" fill="#263238"/>
<path d="M294 267.601L451.6 248.201C451.6 248.201 434.8 455.601 393.6 471.001C352.4 486.401 208.4 427.201 150.4 393.801C92.4 360.401 122.4 332.201 166.2 331.601C233.8 331.001 290.8 335.601 290.8 335.601C292.2 336.601 294 267.601 294 267.601Z" fill="#FFC727"/>
<g opacity="0.2">
<path d="M294 267.601L451.6 248.201C451.6 248.201 434.8 455.601 393.6 471.001C352.4 486.401 208.4 427.201 150.4 393.801C92.4 360.401 122.4 332.201 166.2 331.601C233.8 331.001 290.8 335.601 290.8 335.601C292.2 336.601 294 267.601 294 267.601Z" fill="black"/>
</g>
<path d="M429.6 287.2C419.8 289.6 409.6 290.6 399.6 292C389.8 293.4 380 294.8 370 296C350.2 298.6 330.2 301.6 310.2 303C309.8 303 309.6 302.4 310.2 302.2C330 297.6 350.2 295.2 370.2 292.4C380.2 291 390.2 289.8 400.4 288.8C410 287.8 420 286.4 429.6 286.4C430 286.4 430 287 429.6 287.2Z" fill="#263238"/>
<path d="M440 249.6L451.4 248H451.6C448.8 288 444 327.8 437.2 367.4C432 393.4 420.6 458.8 397 471.8C367.4 482.8 301.8 460.4 271.8 449.8C234.2 436 197.4 419.8 162.4 400.4C213.6 426.2 333.6 477 388.6 470C422.4 469 439.2 337.2 444 307.6C447 288.2 449 266.6 451.6 248.4L440 249.6Z" fill="#263238"/>
<path d="M168 409.8C175.6 411.4 183.4 412.6 190.8 414.6C183 415.2 174.6 414 168 409.8Z" fill="#263238"/>
<path d="M302.4 266.4C299.6 266.8 296.8 267.4 293.8 267.8L294.2 267.4C295 281.6 295.4 295.8 295.2 310.2C295 317.4 295 324.6 294 331.8C293.6 333.4 293.6 334.8 292.6 336.6C292.2 337 291.6 337.6 291.2 337.6C289 338.2 286.6 338 284.6 338C252.6 337 220.6 333.2 188.6 331.6C220.6 329.8 252.6 333 284.6 334C286.4 334 288.4 334 290 333.8C289.8 333.8 289.8 334 289.6 334C291.6 326.4 291.4 318 292 310C292.6 295.6 293 281.4 293.6 267C296.4 266.8 299.4 266.6 302.4 266.4Z" fill="#263238"/>
</svg>
