<svg width="240" height="240" viewBox="0 0 240 240" fill="none" xmlns="http://www.w3.org/2000/svg">
<path d="M198.097 175.969H121.057C121.057 175.969 128.689 155.089 140.449 155.089C152.209 155.089 155.905 169.489 155.905 169.489C155.905 169.489 163.825 161.665 170.353 161.665C176.881 161.665 182.545 171.985 182.545 171.985C182.545 171.985 191.713 166.465 198.097 175.969Z" fill="#EBEBEB"/>
<path d="M106.849 64.0812H29.8086C29.8086 64.0812 37.4406 43.2012 49.2006 43.2012C60.9606 43.2012 64.6566 57.6012 64.6566 57.6012C64.6566 57.6012 72.5766 49.7772 79.1046 49.7772C85.6326 49.7772 91.2966 60.0972 91.2966 60.0972C91.2966 60.0972 100.465 54.5772 106.849 64.0812Z" fill="#EBEBEB"/>
<path d="M54.2881 99.0253H18.2881C18.2881 99.0253 26.3521 87.3613 32.6881 87.3613C39.0241 87.3613 40.8961 95.1373 40.8961 95.1373C40.8961 95.1373 45.3601 91.4893 49.4881 92.1613C53.6161 92.7853 54.2881 99.0253 54.2881 99.0253Z" fill="#EBEBEB"/>
<path d="M208.512 140.257H172.512C172.512 140.257 180.576 128.593 186.912 128.593C193.248 128.593 195.12 136.369 195.12 136.369C195.12 136.369 199.584 132.721 203.712 133.393C207.888 134.065 208.512 140.257 208.512 140.257Z" fill="#EBEBEB"/>
<path d="M173.712 31.8251H137.712C137.712 31.8251 145.776 20.1611 152.112 20.1611C158.448 20.1611 160.32 27.9371 160.32 27.9371C160.32 27.9371 164.784 24.2891 168.912 24.9611C173.088 25.6331 173.712 31.8251 173.712 31.8251Z" fill="#EBEBEB"/>
<path d="M132.336 137.761H62.208C62.208 137.761 71.808 116.305 82.08 114.961C92.352 113.617 97.248 130.897 97.248 130.897C97.248 130.897 103.872 124.801 109.104 124.801C114.336 124.801 118.32 132.817 118.32 132.817C118.32 132.817 128.736 127.345 132.336 137.761Z" fill="#EBEBEB"/>
<path d="M75.4079 111.743C97.6799 122.063 135.168 139.919 142.704 127.199C147.648 118.895 155.664 90.3352 157.2 76.8952C158.064 69.5992 121.728 64.1272 120.528 70.6552C118.224 83.5192 117.936 93.4552 116.976 99.4072C116.784 100.655 89.8559 96.8632 76.9439 97.5832C60.2399 98.4952 65.5679 107.183 75.4079 111.743Z" fill="#EB9481"/>
<path d="M159.264 82.2237C159.264 82.2237 147.696 128.496 141.024 132.672C129.12 140.112 91.3918 122.352 76.8958 113.952C67.8718 108.72 61.9678 103.584 63.6478 100.176C64.6558 98.1117 68.3518 96.7197 75.7918 96.2877C95.2318 95.1357 114.768 98.7837 115.008 98.3517C115.248 97.9197 116.976 74.9277 116.976 74.9277L159.264 82.2237Z" fill="#FFC727"/>
<path opacity="0.2" d="M159.264 82.2237C159.264 82.2237 147.696 128.496 141.024 132.672C129.12 140.112 91.3918 122.352 76.8958 113.952C67.8718 108.72 61.9678 103.584 63.6478 100.176C64.6558 98.1117 68.3518 96.7197 75.7918 96.2877C95.2318 95.1357 114.768 98.7837 115.008 98.3517C115.248 97.9197 116.976 74.9277 116.976 74.9277L159.264 82.2237Z" fill="black"/>
<path d="M114.912 97.8714C115.056 100.703 115.632 103.391 116.304 106.031C116.64 107.327 117.024 108.575 117.456 109.871C117.84 111.119 118.32 112.367 118.992 113.423C119.04 113.471 119.088 113.423 119.088 113.375C118.896 112.031 118.56 110.735 118.224 109.439C117.888 108.143 117.552 106.847 117.216 105.551C116.496 102.959 115.968 100.319 115.152 97.8234C115.056 97.6794 114.912 97.7754 114.912 97.8714Z" fill="#263238"/>
<path d="M153.264 93.1192C148.512 92.5432 145.824 92.0152 141.168 91.1992C136.464 90.3832 131.808 89.5192 127.152 88.6072C124.512 88.0792 121.872 87.5512 119.28 86.9272C119.232 86.9272 119.232 86.7832 119.328 86.7832C124.08 87.3592 128.736 88.1752 133.44 88.9432C138.144 89.7592 142.8 90.5752 147.504 91.4872C150.144 92.0152 150.768 92.2552 153.36 92.8312C153.456 92.9272 153.408 93.1672 153.264 93.1192Z" fill="#263238"/>
<path opacity="0.1" d="M98.5918 124.752C89.9038 121.008 81.9358 116.88 76.8958 113.952C67.8718 108.72 61.9678 103.584 63.6478 100.176C64.3678 98.6883 66.5758 97.5363 70.5598 96.8643L98.5918 124.752Z" fill="black"/>
<path d="M107.855 224.88H51.9351C51.9351 224.784 51.8871 224.688 51.8871 224.64C51.7911 224.208 51.6471 223.776 51.5511 223.344C51.1671 221.856 50.8311 220.464 50.4471 219.072C50.2071 218.208 50.0151 217.392 49.8231 216.576C49.5831 215.712 49.3911 214.896 49.1991 214.08C49.1511 213.888 49.1031 213.648 49.0551 213.456C49.0071 213.216 48.9591 212.976 48.8631 212.784C48.7671 212.496 48.7191 212.208 48.6711 211.968C48.5751 211.68 48.5271 211.392 48.4311 211.104C48.2871 210.576 48.1431 210.048 48.0471 209.52C47.8551 208.752 47.6631 207.984 47.4711 207.264C47.3751 206.928 47.3271 206.64 47.2311 206.304C47.0871 205.776 46.9911 205.296 46.8471 204.816C46.7511 204.48 46.7031 204.144 46.6071 203.856C46.2711 202.56 45.9831 201.36 45.6951 200.208C45.5991 199.92 45.5511 199.632 45.4551 199.344C45.3591 198.864 45.2151 198.384 45.1191 197.952C45.0231 197.664 44.9751 197.376 44.9271 197.136C44.6871 196.176 44.4471 195.264 44.2551 194.496C44.2071 194.304 44.1591 194.112 44.1111 193.92C43.9671 193.392 43.8711 192.96 43.7751 192.528C43.7271 192.384 43.6791 192.192 43.6791 192.048C43.6311 191.904 43.5831 191.712 43.5831 191.616C43.5831 191.52 43.5351 191.424 43.5351 191.328C43.4871 191.184 43.4391 191.04 43.4391 190.944C43.4391 190.896 43.3911 190.848 43.3911 190.752C43.2951 190.416 43.2471 190.224 43.2471 190.224H98.0151C98.0151 190.224 99.8391 196.464 102.719 206.448C103.295 208.464 103.919 210.672 104.591 213.024C105.455 216.576 106.607 220.608 107.855 224.88Z" fill="#263238"/>
<path d="M61.103 224.88H59.951C58.799 219.936 57.647 214.944 56.495 209.952C56.015 207.84 55.583 205.728 55.103 203.616C55.055 203.424 55.007 203.232 54.959 203.04C54.959 202.944 55.103 202.896 55.103 202.992C55.103 203.04 55.151 203.136 55.151 203.184C55.775 205.44 56.399 207.696 57.023 209.952C58.463 214.944 59.759 219.888 61.103 224.88Z" fill="#37474F"/>
<path d="M96.0472 190.078C95.9992 190.414 95.8072 193.678 95.2792 198.622C95.1352 200.062 94.9432 201.694 94.7512 203.374C94.4152 206.062 94.0312 209.038 93.5512 212.206C92.9272 216.238 92.1592 220.51 91.2472 224.83H16.5112C16.5112 224.83 15.5512 222.622 15.7432 221.278C17.3752 208.894 21.4552 190.078 21.4552 190.078H85.5352H96.0472Z" fill="#263238"/>
<path d="M82.8945 195.022C82.8465 195.358 82.7985 195.742 82.7985 196.078C82.6065 198.142 82.3665 200.158 82.0785 202.174C81.7425 204.574 81.5025 206.974 81.1665 209.374C81.0705 210.19 80.9265 211.006 80.8305 211.822C80.2545 215.758 79.7265 219.694 79.0545 223.582C79.0065 223.966 78.9105 224.35 78.8145 224.83H77.2305C77.4225 223.534 77.6145 222.19 77.8065 220.894C78.2385 218.254 78.7665 215.614 79.1985 212.974C79.2945 212.59 79.3425 212.158 79.4385 211.774C80.3985 206.398 81.3585 201.022 82.5585 195.694C82.6065 195.454 82.6545 195.262 82.7025 195.022C82.7025 194.878 82.9425 194.926 82.8945 195.022Z" fill="#37474F"/>
<path d="M89.5668 196.557C89.4708 199.101 89.3747 201.597 89.2307 204.141C89.0387 206.877 88.7988 209.613 88.4628 212.301C88.4628 212.397 88.4627 212.493 88.4147 212.589C88.0787 215.133 87.6948 217.677 87.2628 220.221C87.0228 221.709 86.7827 223.293 86.3987 224.829H84.7188C85.1987 223.053 85.4387 221.181 85.7747 219.405C86.2067 217.005 86.5908 214.605 86.9268 212.205C87.3588 209.229 87.7907 206.205 88.2707 203.229C88.5107 201.693 88.7507 200.157 88.9907 198.669C89.0867 197.949 89.2308 197.277 89.3268 196.557C89.3268 196.365 89.5668 196.413 89.5668 196.557Z" fill="#37474F"/>
<path d="M33.3588 215.374C36.2868 215.374 39.2148 214.942 42.0948 214.222C43.3908 213.886 44.6868 213.454 45.9828 213.022C47.2308 212.638 48.4788 212.11 49.4868 211.246C51.4548 209.518 52.4148 206.83 53.2308 204.478C54.1908 201.79 54.9108 199.054 55.5348 196.222C55.5828 196.078 55.7748 196.126 55.7748 196.27C55.8708 199.39 55.4388 202.606 54.5748 205.63C53.8548 208.222 52.8948 211.102 50.8308 212.926C48.6228 214.846 45.6468 215.518 42.8628 215.854C39.6948 216.238 36.5268 216.142 33.3588 215.71C33.1668 215.662 33.1668 215.374 33.3588 215.374Z" fill="#37474F"/>
<path d="M28.5107 196.318C28.3667 199.486 25.8227 214.846 24.5747 224.878H23.4707C24.9107 214.846 27.9347 199.486 28.1747 196.318C28.1747 196.078 28.5107 196.078 28.5107 196.318Z" fill="#37474F"/>
<path d="M81.9844 46.3203C81.9844 46.3203 86.0164 48.8163 87.0724 51.9843C88.1284 55.1043 87.9364 63.4083 87.9364 63.4083L81.9844 46.3203Z" fill="#263238"/>
<path d="M97.9199 190.416L20.2079 193.104C20.2079 193.104 15.9839 189.264 16.2719 184.416C17.2799 166.464 41.1359 106.848 51.6479 98.6395C56.3519 94.9435 66.7199 91.6315 72.8639 95.6155C82.4159 101.856 94.7519 150.048 101.76 177.264C103.776 185.088 97.9679 190.32 97.9199 190.416Z" fill="#FFC727"/>
<g opacity="0.2">
<path d="M97.9199 190.416L20.2079 193.104C20.2079 193.104 15.9839 189.264 16.2719 184.416C17.2799 166.464 41.1359 106.848 51.6479 98.6395C56.3519 94.9435 66.7199 91.6315 72.8639 95.6155C82.4159 101.856 94.7519 150.048 101.76 177.264C103.776 185.088 97.9679 190.32 97.9199 190.416Z" fill="black"/>
</g>
<path d="M56.3525 93.8398C53.0405 95.9998 54.9605 99.5038 57.2165 103.2C64.2245 114.624 75.8405 125.856 76.4165 125.856C76.9925 125.856 79.2485 107.424 78.8165 102.384C78.3365 97.3438 77.0885 96.0958 71.0885 93.7438C65.9045 91.7278 59.2805 91.9678 56.3525 93.8398Z" fill="#EBEBEB"/>
<path opacity="0.1" d="M55.4883 104.304C58.0323 108.96 61.1043 113.328 64.4643 117.456C68.6403 122.352 73.0083 127.2 78.2403 130.944C78.2883 130.944 78.2883 130.992 78.2883 130.992C78.2403 130.992 78.1923 130.992 78.1443 130.992C78.3363 130.512 78.5283 129.6 78.6243 128.976C79.9683 120.48 80.3523 111.744 79.3923 103.152C80.2563 108.432 80.3523 113.76 80.1123 119.088C79.8723 123.072 79.6803 127.152 78.6243 131.04C78.5763 131.232 78.3843 131.568 78.1443 131.472C77.0403 130.896 76.1283 130.032 75.1683 129.264C67.2483 122.208 60.2883 113.808 55.4883 104.304Z" fill="black"/>
<path d="M72.0002 111.12C66.8642 111.888 58.8482 103.536 55.9202 97.0078C55.7282 96.5758 56.7362 92.1118 57.7442 86.6398C58.3202 83.3278 58.8962 79.5838 59.1842 76.1758L80.2562 83.1358C80.2562 83.1358 77.5682 90.1438 77.1362 96.1438C77.0882 96.6238 77.1362 97.1038 77.1842 97.5838C77.1842 97.6318 77.1842 97.7278 77.1842 97.8238C77.3762 100.464 76.9442 110.352 72.0002 111.12Z" fill="#EB9481"/>
<path d="M77.088 96.0958C77.088 96.4318 77.088 96.7678 77.088 97.1038C66 96.3838 60.384 86.8798 58.416 82.3198C58.704 80.2558 58.992 78.1918 59.136 76.1758L80.208 83.1358C80.208 83.1358 77.52 90.1438 77.088 96.0958Z" fill="#263238"/>
<path d="M77.1361 97.343L71.9521 108.479L56.5441 93.791L52.0801 98.255C52.0801 98.255 67.0561 121.295 67.2001 120.287L72.4801 110.735L79.8721 117.695L79.4401 100.751L77.1361 97.343Z" fill="#EBEBEB"/>
<path d="M80.1597 109.296C79.9677 106.512 79.8717 103.68 79.5837 100.896C79.5837 100.8 79.3917 100.752 79.3917 100.848C78.7197 103.536 79.4877 114.24 79.4397 116.784C79.4397 116.784 79.4397 116.784 79.3917 116.736C79.1037 116.448 72.5277 110.592 72.4797 110.688C71.3277 112.176 67.4877 119.136 67.1997 119.76C64.8477 116.112 55.7277 102.768 52.9437 99.3117C52.8477 99.2157 52.7037 99.2637 52.7517 99.4077C54.8157 103.248 66.8637 121.2 67.0557 121.152C67.1997 121.248 71.9997 112.704 72.5757 111.072C73.6797 112.32 80.2557 118.896 80.3037 118.464C80.4477 115.68 80.3037 112.08 80.1597 109.296Z" fill="#263238"/>
<path d="M51.2641 54.2404C49.9201 62.1604 56.7361 83.6644 62.8321 87.8884C71.6161 93.9844 84.5761 93.0244 89.4721 82.8004C94.1761 72.8644 84.7681 44.9764 78.1441 41.3284C68.3041 35.8564 53.2801 42.5284 51.2641 54.2404Z" fill="#EB9481"/>
<path d="M68.352 63.84C69.024 63.744 69.648 63.504 70.32 63.36C71.088 63.168 71.664 63.072 72.192 62.448C72.48 62.112 72.432 61.488 72.144 61.2C71.472 60.48 70.512 60.528 69.6 60.72C68.64 60.96 67.92 61.344 67.296 62.16C66.672 62.928 67.488 63.984 68.352 63.84Z" fill="#263238"/>
<path d="M81.2637 63.1684C81.2637 63.1204 81.4077 63.2164 81.4077 63.2644C81.7437 64.7524 82.4157 66.3844 83.8557 66.5284C83.9037 66.5284 83.9037 66.6244 83.8557 66.6244C82.2237 66.8164 81.3597 64.6564 81.2637 63.1684Z" fill="#263238"/>
<path d="M82.1761 61.2969C84.4801 60.4809 85.9201 65.1849 83.8081 65.9529C81.6961 66.6729 80.2561 61.9689 82.1761 61.2969Z" fill="#263238"/>
<path d="M72.7681 65.8095C72.7201 65.7615 72.6721 65.9055 72.7201 65.9535C73.2481 67.3935 73.5841 69.1215 72.3841 70.0335C72.3361 70.0815 72.3841 70.1295 72.4321 70.1295C73.9681 69.4095 73.4881 67.1055 72.7681 65.8095Z" fill="#263238"/>
<path d="M70.9918 64.7049C68.5918 65.2809 69.8878 69.9849 72.0958 69.5049C74.3038 68.9769 73.0078 64.2249 70.9918 64.7049Z" fill="#263238"/>
<path d="M82.7995 57.5045C82.1275 57.6005 81.4555 57.6005 80.7835 57.6005C80.0155 57.6485 79.3915 57.7445 78.7195 57.3125C78.3355 57.0725 78.1915 56.4485 78.3835 56.0645C78.8155 55.2005 79.7755 54.9125 80.6875 54.8165C81.6955 54.7205 82.5115 54.9125 83.3275 55.4885C84.1435 56.1125 83.7115 57.4085 82.7995 57.5045Z" fill="#263238"/>
<path d="M75.8399 79.6324C76.2719 79.8724 76.7999 80.2084 77.3279 80.1124C77.8559 80.0164 78.3839 79.5844 78.7679 79.2484C78.8159 79.2004 78.8639 79.2484 78.8639 79.2964C78.6719 79.9684 77.9999 80.5924 77.2799 80.6884C76.6079 80.7844 76.0799 80.3044 75.7439 79.7764C75.6479 79.6324 75.7439 79.5844 75.8399 79.6324Z" fill="#263238"/>
<path d="M75.9837 74.7843C77.1837 75.7923 78.6237 76.0803 79.9677 75.9363C80.5917 75.8883 81.2157 75.6963 81.7917 75.4563C81.8877 75.4083 82.0317 75.3603 82.1277 75.3123C82.2237 75.2643 82.3197 75.2163 82.4157 75.1683C82.5597 75.0723 82.6077 74.9283 82.6077 74.7363C82.6077 74.6883 82.5597 74.6403 82.5597 74.5923L82.5117 74.4483C82.1757 73.3443 81.5517 71.6643 81.5517 71.6643C82.0317 71.7603 84.3837 72.0003 84.1917 71.4243C82.3677 66.6723 80.3517 61.3923 77.5197 57.0723C77.4237 56.9283 77.1837 57.0243 77.2797 57.2163C78.8637 61.8243 81.2157 66.1443 82.8957 70.8003C82.1277 70.7523 80.9277 70.6563 80.3517 70.8483C80.2077 70.9443 81.6477 74.0643 81.7917 74.5443C81.7917 74.5443 81.7917 74.5443 81.7917 74.5923C79.9677 75.4083 78.3837 75.3123 76.1757 74.6403C75.9357 74.5443 75.8397 74.6883 75.9837 74.7843Z" fill="#263238"/>
<path d="M58.08 73.296C56.448 74.88 46.224 68.8321 43.584 63.7441C41.856 60.3361 42.576 56.8801 42.576 56.8801C42.576 56.8801 38.256 56.8801 38.496 55.1521C38.736 53.4721 42.48 54.0001 42.48 54.0001C42.48 54.0001 41.376 48.9121 42.768 47.8081C44.16 46.7041 44.976 49.9681 44.976 49.9681C44.976 49.9681 45.648 44.928 47.28 43.056C48.912 41.184 50.256 42.768 50.256 42.768C50.256 42.768 50.592 40.512 52.368 39.648C54.144 38.784 55.152 39.792 56.352 38.976C57.552 38.16 55.104 33.5521 60.336 29.6161C65.568 25.6321 68.688 31.536 68.688 31.536C68.688 31.536 69.648 28.128 72.96 26.928C76.752 25.536 80.928 28.416 81.6 31.248C82.272 34.08 80.736 36.1921 80.736 36.1921C80.736 36.1921 83.328 36.2401 84.768 38.3041C86.208 40.3681 86.448 44.4481 83.856 46.7521C81.648 48.7201 78.768 48.288 78.288 48.576C77.808 48.864 77.04 51.744 74.832 52.896C72.672 54.048 69.888 52.9441 69.888 52.9441C69.888 52.9441 69.456 55.2481 67.296 56.208C65.136 57.1681 60.288 54.1441 60.288 54.1441C60.288 54.1441 60.672 57.6961 59.328 59.4241C57.984 61.1521 55.392 61.68 55.392 61.68C55.392 61.68 60.864 70.56 58.08 73.296Z" fill="#263238"/>
<path d="M54.8643 61.8243C58.5603 60.9603 60.7203 60.4323 60.2883 56.1123C60.2403 55.0563 60.0963 54.0003 59.9043 52.9443C60.2883 53.9523 60.6243 54.9603 60.7683 56.0643C61.6323 60.5283 58.8483 61.9203 54.8643 61.8243Z" fill="#263238"/>
<path d="M56.3516 38.9758C56.9276 36.2878 56.1596 33.3118 57.7916 30.8158C59.2316 28.3678 62.2076 26.3038 65.1356 27.4078C66.9596 28.0798 68.3516 29.7118 68.6876 31.5358C68.0156 29.8558 66.5276 28.5598 64.8956 28.0798C61.4396 27.1198 58.2716 30.5278 57.4556 33.6958C56.9756 35.3758 57.1676 37.3438 56.3516 38.9758Z" fill="#263238"/>
<path d="M58.7517 72.6246C58.7517 72.6246 52.7997 66.1926 49.7757 68.4486C46.7997 70.6566 51.9837 80.4486 55.9677 81.3605C59.9517 82.2246 60.8637 78.5765 60.8637 78.5765L58.7517 72.6246Z" fill="#EB9481"/>
<path d="M51.3602 71.2327C51.3122 71.2327 51.3122 71.3287 51.3602 71.3287C54.1922 72.0487 55.9202 74.3047 57.2642 76.7047C56.3522 75.8407 55.2002 75.4567 54.0002 76.5607C53.9522 76.6087 54.0002 76.7047 54.0962 76.7047C55.1522 76.3207 55.9682 76.4167 56.8322 77.1847C57.4562 77.7127 57.8882 78.4807 58.3682 79.1047C58.5122 79.3447 58.9442 79.1527 58.8002 78.8647C58.8002 78.8647 58.8002 78.8167 58.7522 78.8167C58.3202 75.4087 55.0562 71.0407 51.3602 71.2327Z" fill="#263238"/>
<path d="M175.296 43.7754L112.08 57.9354C112.08 57.9354 105.744 64.0794 112.224 71.4714L179.712 81.5514L175.296 43.7754Z" fill="#FFC727"/>
<path opacity="0.1" d="M138.624 51.9834C138.624 51.9834 135.648 56.5434 135.84 63.5994C136.032 70.6554 137.52 75.2634 137.52 75.2634L135.408 74.9274C135.408 74.9274 133.536 68.5434 133.968 63.1674C134.544 56.1114 137.904 52.1754 137.904 52.1754L138.624 51.9834Z" fill="black"/>
<path opacity="0.2" d="M178.369 70.0319L109.921 67.6799C109.537 66.6719 109.345 65.6639 109.345 64.7519L177.313 60.6719L178.369 70.0319Z" fill="white"/>
<path d="M186.289 79.824C183.697 79.824 182.353 74.88 181.585 72.864C179.857 67.248 178.993 61.344 179.233 55.488C179.425 52.944 179.473 50.208 180.769 48C180.961 47.712 181.297 47.424 181.633 47.376C180.913 47.568 180.625 48.384 180.385 49.008C178.657 56.832 180.001 65.088 181.969 72.72C182.593 74.784 183.217 76.944 184.465 78.72C184.945 79.296 185.521 79.872 186.289 79.824Z" fill="#37474F"/>
<path d="M197.617 69.1673C194.401 79.1033 184.081 84.0953 174.625 80.3033C165.121 76.5593 160.033 65.4713 163.249 55.5353C166.465 45.5993 176.785 40.6073 186.241 44.3993C195.745 48.1913 200.833 59.2793 197.617 69.1673Z" fill="#FFC727"/>
<path opacity="0.5" d="M197.617 69.1673C194.401 79.1033 184.081 84.0953 174.625 80.3033C165.121 76.5593 160.033 65.4713 163.249 55.5353C166.465 45.5993 176.785 40.6073 186.241 44.3993C195.745 48.1913 200.833 59.2793 197.617 69.1673Z" fill="white"/>
<path d="M195.888 68.4953C193.008 77.4233 183.744 81.8873 175.248 78.5273C166.704 75.1673 162.144 65.1833 165.072 56.3033C167.952 47.3753 177.216 42.9113 185.712 46.2713C194.208 49.6313 198.768 59.5673 195.888 68.4953Z" fill="#455A64"/>
<path d="M195.745 68.592C192.865 77.52 183.601 81.984 175.105 78.624C166.561 75.264 162.001 65.28 164.929 56.4C167.809 47.472 177.073 43.008 185.569 46.368C194.065 49.728 198.625 59.664 195.745 68.592Z" fill="#455A64"/>
<path d="M181.681 71.0393C174.531 71.5491 165.121 63.1193 165.121 63.1193C165.121 63.1193 170.881 54.2393 181.681 54.2393C187.982 54.2393 195.601 63.1193 195.601 63.1193C195.601 63.1193 187.92 70.5944 181.681 71.0393Z" fill="white" stroke="#263238" stroke-width="0.48"/>
<circle cx="181.681" cy="62.6392" r="6.48" fill="#00608E"/>
<circle cx="182.401" cy="62.8795" r="3.36" fill="#263238"/>
<path opacity="0.2" d="M184.176 77.6156C187.152 75.8396 189.6 73.0076 190.944 69.4556C194.064 61.2956 190.512 52.2716 182.928 49.3436C179.376 47.9996 175.632 48.1436 172.272 49.5836C176.064 47.2316 180.672 46.6076 184.992 48.2876C192.576 51.2156 196.176 60.2396 193.008 68.3996C191.28 72.7676 188.016 75.9836 184.176 77.6156Z" fill="white"/>
<path d="M151.296 49.103C151.296 49.103 145.536 53.951 145.488 62.687C145.392 71.423 149.616 77.087 149.616 77.087L148.896 77.663L138.048 76.271C138.048 76.271 135.12 71.135 135.216 63.551C135.312 55.967 139.392 50.927 139.392 50.927L151.056 48.623L151.296 49.103Z" fill="#FFC727"/>
<path opacity="0.5" d="M145.489 62.6869C145.393 71.4229 149.617 77.0869 149.617 77.0869L148.897 77.6629C148.897 77.6629 144.913 72.9109 144.577 63.1669C144.241 53.3749 151.009 48.6709 151.009 48.6709L151.345 49.1509C151.297 49.1029 145.537 53.9509 145.489 62.6869Z" fill="white"/>
<path d="M146.689 36.6716C143.185 36.3356 142.081 39.3116 142.081 39.3116C142.081 39.3116 140.017 35.5676 136.465 35.8556C134.641 35.9996 133.297 39.0716 133.297 39.0716C133.297 39.0716 131.521 36.1436 128.353 36.6236C125.857 37.0076 124.849 39.9836 124.849 39.9836C124.849 39.9836 121.825 37.9676 119.377 39.1676C114.433 41.6156 115.345 63.3116 123.505 66.3356C127.297 67.7276 126.769 62.4477 126.769 62.4477C126.769 62.4477 129.361 69.8876 133.825 69.7916C138.289 69.6956 137.233 62.8796 137.233 62.8796C137.233 62.8796 139.777 70.0797 144.433 69.5037C149.281 68.9277 147.025 62.3036 147.025 62.3036C147.025 62.3036 150.481 67.0076 153.937 65.7596C159.649 63.7436 151.825 53.7116 152.785 48.9116L159.505 47.3276C159.553 47.3756 152.593 37.2476 146.689 36.6716Z" fill="#EB9481"/>
<path d="M124.657 40.4646C124.657 40.3686 124.561 40.3686 124.561 40.4646C123.121 47.6646 123.745 56.0646 126.817 62.7846C126.913 63.0246 127.297 62.9286 127.249 62.6886C125.425 55.1046 124.369 48.2886 124.657 40.4646Z" fill="#263238"/>
<path d="M133.249 39.0241C133.249 38.9281 133.105 38.9281 133.105 39.0241C131.665 46.4641 132.625 55.8721 137.089 63.2161C137.233 63.4561 137.617 63.5521 137.473 63.2161C134.881 58.0801 132.961 46.0321 133.249 39.0241Z" fill="#263238"/>
<path d="M147.553 62.7842C143.521 55.5842 142.225 47.8082 142.033 39.6482C142.033 39.5522 141.889 39.5522 141.841 39.6482C140.833 43.6802 141.505 48.8642 142.369 52.8482C143.185 56.6882 144.721 59.9522 147.265 62.9282C147.409 63.0242 147.649 62.9282 147.553 62.7842Z" fill="#263238"/>
<path d="M136.271 44.3535L73.0551 58.5135C73.0551 58.5135 66.7191 64.6575 73.1991 72.0495L140.687 82.1295L136.271 44.3535Z" fill="#FFC727"/>
<path opacity="0.1" d="M99.5996 52.5615C99.5996 52.5615 96.6236 57.1215 96.8156 64.1775C97.0076 71.2335 98.4956 75.8415 98.4956 75.8415L96.3836 75.5055C96.3836 75.5055 94.5116 69.1215 94.9436 63.7455C95.5196 56.6895 98.8796 52.7535 98.8796 52.7535L99.5996 52.5615Z" fill="black"/>
<path opacity="0.2" d="M139.343 70.61L70.8475 68.258C70.4635 67.25 70.2715 66.242 70.2715 65.33L138.239 61.25L139.343 70.61Z" fill="white"/>
<path d="M147.263 80.4021C144.671 80.4021 143.327 75.4581 142.559 73.4421C140.831 67.8261 139.967 61.9221 140.207 56.0661C140.399 53.5221 140.447 50.7861 141.743 48.5781C141.935 48.2901 142.271 48.0021 142.607 47.9541C141.887 48.1461 141.599 48.9621 141.359 49.5861C139.631 57.4101 140.975 65.6661 142.943 73.2981C143.567 75.3621 144.191 77.5221 145.439 79.2981C145.919 79.8741 146.495 80.4501 147.263 80.4021Z" fill="#37474F"/>
<path d="M158.591 69.7932C155.375 79.7292 145.055 84.7212 135.599 80.9292C126.095 77.1852 121.007 66.0972 124.223 56.1612C127.439 46.2252 137.759 41.2332 147.215 45.0252C156.719 48.7692 161.807 59.8572 158.591 69.7932Z" fill="#FFC727"/>
<path opacity="0.5" d="M158.591 69.7932C155.375 79.7292 145.055 84.7212 135.599 80.9292C126.095 77.1852 121.007 66.0972 124.223 56.1612C127.439 46.2252 137.759 41.2332 147.215 45.0252C156.719 48.7692 161.807 59.8572 158.591 69.7932Z" fill="white"/>
<path d="M156.863 69.0735C153.983 78.0015 144.719 82.4655 136.223 79.1055C127.679 75.7455 123.119 65.7615 126.047 56.8815C128.927 47.9535 138.191 43.4895 146.687 46.8495C155.183 50.2095 159.743 60.1455 156.863 69.0735Z" fill="#455A64"/>
<path d="M142.799 71.5217C135.649 72.0315 126.239 63.6017 126.239 63.6017C126.239 63.6017 131.999 54.7217 142.799 54.7217C149.101 54.7217 156.719 63.6017 156.719 63.6017C156.719 63.6017 149.038 71.0769 142.799 71.5217Z" fill="white" stroke="#263238" stroke-width="0.48"/>
<circle cx="142.799" cy="63.1216" r="6.48" fill="#00608E"/>
<circle cx="143.519" cy="63.362" r="3.36" fill="#263238"/>
<path opacity="0.2" d="M145.151 78.1928C148.127 76.4168 150.575 73.5848 151.919 70.0328C155.039 61.8728 151.487 52.8488 143.903 49.9208C140.351 48.5768 136.607 48.7208 133.247 50.1608C137.039 47.8088 141.647 47.1848 145.967 48.8648C153.551 51.7928 157.151 60.8168 153.983 68.9768C152.255 73.3448 148.991 76.6088 145.151 78.1928Z" fill="white"/>
<path d="M112.272 49.6821C112.272 49.6821 106.512 54.5301 106.464 63.2662C106.368 72.0022 110.592 77.6662 110.592 77.6662L109.872 78.2421L99.0238 76.8502C99.0238 76.8502 96.0958 71.7142 96.1918 64.1302C96.2878 56.5462 100.368 51.5062 100.368 51.5062L112.032 49.2021L112.272 49.6821Z" fill="#FFC727"/>
<path opacity="0.5" d="M106.415 63.266C106.319 72.002 110.543 77.666 110.543 77.666L109.823 78.242C109.823 78.242 105.839 73.49 105.503 63.746C105.167 53.954 111.935 49.25 111.935 49.25L112.271 49.73C112.271 49.682 106.511 54.53 106.415 63.266Z" fill="white"/>
<path d="M48.7679 118.319C66.1919 129.263 101.856 143.327 109.008 137.999C122.256 128.159 121.296 86.3512 121.104 77.6152C121.008 73.8712 87.4079 76.0312 87.4079 80.0152C87.4079 83.4712 90.2399 107.279 87.6479 108.815C86.5919 109.439 74.9759 107.231 55.0559 107.759C39.7919 108.191 43.5839 115.103 48.7679 118.319Z" fill="#EB9481"/>
<path d="M90.528 94.4161C90.528 94.4161 89.184 90.6721 84.528 81.9361C80.88 75.1201 75.696 58.3681 90.672 41.1841C96.144 34.9441 102.72 35.1841 98.448 42.8161C95.472 48.1921 93.456 50.5441 92.976 52.5601C92.976 52.5601 101.28 49.1041 105.888 52.0321C107.952 53.3281 113.52 57.0241 117.456 60.5281C117.456 60.5281 116.928 61.5841 116.064 62.8321C116.064 62.8321 122.448 67.7281 121.008 75.3601L121.152 82.1281L90.528 94.4161Z" fill="#EB9481"/>
<path d="M83.2324 75.1192C84.0484 71.1352 85.9204 62.7832 89.8084 56.4472C94.1284 49.4392 104.4 37.1032 109.536 40.3672C113.328 42.7672 109.824 47.8072 109.824 47.8072C109.824 47.8072 115.152 43.5832 118.08 46.5112C120.768 49.1512 117.792 52.8952 117.792 52.8952C117.792 52.8952 121.44 50.8792 123.552 53.9512C126.048 57.5992 117.984 61.1992 117.312 67.1032C117.168 68.4472 83.2324 75.1192 83.2324 75.1192Z" fill="#EB9481"/>
<path d="M96.4805 62.3033C97.8725 58.7033 103.104 51.3113 109.68 47.8073C109.824 47.7113 109.968 47.8073 109.872 47.9033C103.44 53.3273 98.4965 59.5673 96.5765 62.3513C96.5285 62.3993 96.4805 62.3513 96.4805 62.3033Z" fill="#263238"/>
<path d="M103.681 66.4795C105.169 63.5035 110.929 56.1115 117.697 52.7995C117.841 52.7035 117.985 52.7995 117.841 52.8955C110.881 58.2715 105.793 63.8395 103.729 66.5275C103.729 66.5755 103.681 66.5275 103.681 66.4795Z" fill="#263238"/>
<path d="M85.1523 48.96C79.8723 58.32 79.8243 69.648 83.6643 79.536C84.9123 82.848 86.4483 86.016 88.1763 89.136C86.1123 86.256 84.3363 83.136 82.9443 79.824C78.7203 70.032 78.8643 57.936 85.1523 48.96Z" fill="#263238"/>
<path d="M86.1602 90.6238L123.984 85.9678C123.984 85.9678 119.952 135.744 110.064 139.44C100.176 143.136 65.6162 128.928 51.6962 120.912C37.7762 112.896 44.9762 106.128 55.4882 105.984C71.7122 105.84 85.3922 106.944 85.3922 106.944C85.7282 107.184 86.1602 90.6238 86.1602 90.6238Z" fill="#FFC727"/>
<g opacity="0.2">
<path d="M86.1602 90.6238L123.984 85.9678C123.984 85.9678 119.952 135.744 110.064 139.44C100.176 143.136 65.6162 128.928 51.6962 120.912C37.7762 112.896 44.9762 106.128 55.4882 105.984C71.7122 105.84 85.3922 106.944 85.3922 106.944C85.7282 107.184 86.1602 90.6238 86.1602 90.6238Z" fill="black"/>
</g>
<path d="M118.705 95.3277C116.353 95.9037 113.905 96.1437 111.505 96.4797C109.153 96.8157 106.801 97.1517 104.401 97.4397C99.6489 98.0637 94.8489 98.7837 90.0489 99.1197C89.9529 99.1197 89.9049 98.9757 90.0489 98.9277C94.8009 97.8237 99.6489 97.2477 104.449 96.5757C106.849 96.2397 109.249 95.9517 111.697 95.7117C114.001 95.4717 116.401 95.1357 118.705 95.1357C118.801 95.1357 118.801 95.2797 118.705 95.3277Z" fill="#263238"/>
<path d="M121.2 86.3029L123.936 85.9189H123.984C123.312 95.5189 122.16 105.071 120.528 114.575C119.28 120.815 116.544 136.511 110.88 139.631C103.776 142.271 88.0322 136.895 80.8322 134.351C71.8082 131.039 62.9762 127.151 54.5762 122.495C66.8642 128.687 95.6642 140.879 108.864 139.199C116.976 138.959 121.008 107.327 122.16 100.223C122.88 95.5669 123.36 90.3829 123.984 86.0149L121.2 86.3029Z" fill="#263238"/>
<path d="M55.9199 124.751C57.7439 125.135 59.6159 125.423 61.3919 125.903C59.5199 126.047 57.5039 125.759 55.9199 124.751Z" fill="#263238"/>
<path d="M88.1763 90.335C87.5043 90.431 86.8323 90.575 86.1123 90.671L86.2083 90.575C86.4003 93.983 86.4963 97.391 86.4483 100.847C86.4003 102.575 86.4003 104.303 86.1603 106.031C86.0643 106.415 86.0643 106.751 85.8243 107.183C85.7283 107.279 85.5843 107.423 85.4883 107.423C84.9603 107.567 84.3843 107.519 83.9043 107.519C76.2243 107.279 68.5443 106.367 60.8643 105.983C68.5443 105.551 76.2243 106.319 83.9043 106.559C84.3363 106.559 84.8163 106.559 85.2003 106.511C85.1523 106.511 85.1523 106.559 85.1043 106.559C85.5843 104.735 85.5363 102.719 85.6803 100.799C85.8243 97.343 85.9203 93.935 86.0643 90.479C86.7363 90.431 87.4563 90.383 88.1763 90.335Z" fill="#263238"/>
<path d="M217.2 89.2793L201.936 77.2793L219.744 85.0553L217.2 89.2793Z" fill="#FFC727"/>
<path d="M202.992 96.5751L196.752 81.1191L206.544 94.4631L202.992 96.5751Z" fill="#FFC727"/>
<path d="M219.503 69.0713L202.896 70.8473L219.263 73.1993L219.503 69.0713Z" fill="#FFC727"/>
<path d="M12.959 224.929C81.551 224.641 158.495 224.641 227.087 224.929C158.447 225.217 81.551 225.217 12.959 224.929Z" fill="#263238"/>
</svg>
