<?xml version="1.0" encoding="UTF-8"?>
<svg width="200px" height="200px" viewBox="0 0 200 200" version="1.1" xmlns="http://www.w3.org/2000/svg" xmlns:xlink="http://www.w3.org/1999/xlink">
    <!-- Generator: Sketch 53.2 (72643) - https://sketchapp.com -->
    <title>googleTagManager</title>
    <desc>Created with Sketch.</desc>
    <g id="googleTagManager" stroke="none" stroke-width="1" fill="none" fill-rule="evenodd">
        <g id="google-tag-manager" transform="translate(5.000000, 5.000000)" fill-rule="nonzero">
            <polygon id="Path" fill="#8AB4F8" points="111.554836 182.772157 78.5835694 149.762444 149.408741 78.2144881 182.987454 111.785512"></polygon>
            <path d="M111.793201,40.606637 L78.2221773,7.02792392 L7.03561311,78.2144881 C-2.23755565,87.4799676 -2.24524484,102.496965 7.02023472,111.770134 C7.02792392,111.777823 7.03561311,111.785512 7.03561311,111.785512 L78.2221773,182.972076 L111.154998,149.885471 L57.3613921,95.0461352 L111.793201,40.606637 Z" id="Path" fill="#4285F4"></path>
            <path d="M182.979765,78.2144881 L111.793201,7.02792392 C102.520032,-2.24524484 87.4876568,-2.24524484 78.2144881,7.02792392 C68.9413193,16.3010927 68.9413193,31.3334682 78.2144881,40.5989478 L149.439498,111.785512 C158.712667,121.058681 173.745042,121.058681 183.010522,111.785512 C192.283691,102.512343 192.283691,87.4799676 183.010522,78.2144881 L182.979765,78.2144881 Z" id="Path" fill="#8AB4F8"></path>
            <circle id="Oval" fill="#246FDB" cx="94.7462566" cy="166.463375" r="23.5289357"></circle>
        </g>
    </g>
</svg>