<svg width="140" height="45" viewBox="0 0 140 45" fill="none" xmlns="http://www.w3.org/2000/svg">
<path d="M16.272 34.48C14.48 34.48 12.9013 34.16 11.536 33.52C10.192 32.88 9.14667 31.952 8.4 30.736C7.65333 29.52 7.28 28.0587 7.28 26.352C7.28 24.6453 7.65333 23.184 8.4 21.968C9.168 20.7307 10.224 19.792 11.568 19.152C12.9333 18.4907 14.5227 18.16 16.336 18.16C18.7253 18.16 20.6347 18.6293 22.064 19.568V22.8C20.6773 21.8187 18.9067 21.328 16.752 21.328C15.1093 21.328 13.7973 21.744 12.816 22.576C11.856 23.3867 11.376 24.6453 11.376 26.352C11.376 28.0373 11.856 29.2853 12.816 30.096C13.7973 30.9067 15.088 31.312 16.688 31.312C18.8427 31.312 20.6987 30.8 22.256 29.776V32.976C21.488 33.488 20.6133 33.8613 19.632 34.096C18.672 34.352 17.552 34.48 16.272 34.48ZM33.3345 34.48C31.5425 34.48 29.9638 34.16 28.5985 33.52C27.2545 32.8587 26.2092 31.92 25.4625 30.704C24.7158 29.4667 24.3425 28.0053 24.3425 26.32C24.3425 24.6773 24.7052 23.248 25.4305 22.032C26.1772 20.7947 27.2332 19.8453 28.5985 19.184C29.9638 18.5013 31.5425 18.16 33.3345 18.16C35.1265 18.16 36.6945 18.5013 38.0385 19.184C39.4038 19.8453 40.4598 20.7947 41.2065 22.032C41.9532 23.248 42.3265 24.6773 42.3265 26.32C42.3265 28.0053 41.9532 29.4667 41.2065 30.704C40.4598 31.92 39.4038 32.8587 38.0385 33.52C36.6945 34.16 35.1265 34.48 33.3345 34.48ZM33.3345 31.312C34.8065 31.312 35.9798 30.8533 36.8545 29.936C37.7292 28.9973 38.1665 27.792 38.1665 26.32C38.1665 24.7627 37.7292 23.5467 36.8545 22.672C36.0012 21.776 34.8278 21.328 33.3345 21.328C31.8412 21.328 30.6572 21.776 29.7825 22.672C28.9292 23.5467 28.5025 24.7627 28.5025 26.32C28.5025 27.792 28.9398 28.9973 29.8145 29.936C30.6892 30.8533 31.8625 31.312 33.3345 31.312ZM45.5138 18.64H49.4178V20.72C50.1431 19.8453 51.0071 19.2053 52.0098 18.8C53.0124 18.3733 54.0684 18.16 55.1778 18.16C57.2471 18.16 58.7938 18.7253 59.8178 19.856C60.8418 20.9653 61.3538 22.448 61.3538 24.304V34H57.3218V24.688C57.3218 22.448 56.2764 21.328 54.1858 21.328C53.2684 21.328 52.4044 21.552 51.5938 22C50.7831 22.4267 50.1004 23.0773 49.5458 23.952V34H45.5138V18.64ZM62.9675 18.64H67.0315L71.1915 29.264L75.3515 18.64H79.4155L73.0795 34H69.3035L62.9675 18.64ZM84.8795 15.952C84.2395 15.952 83.6955 15.7387 83.2475 15.312C82.8208 14.8853 82.6075 14.352 82.6075 13.712C82.6075 13.072 82.8208 12.5387 83.2475 12.112C83.6955 11.664 84.2395 11.44 84.8795 11.44C85.5195 11.44 86.0635 11.664 86.5115 12.112C86.9595 12.5387 87.1835 13.072 87.1835 13.712C87.1835 14.352 86.9595 14.8853 86.5115 15.312C86.0635 15.7387 85.5195 15.952 84.8795 15.952ZM82.8315 18.64H86.9275V34H82.8315V18.64ZM92.0058 21.712H89.7338V18.64H92.0058V15.984C92.0058 14.1067 92.5604 12.6773 93.6698 11.696C94.7791 10.6933 96.2404 10.192 98.0538 10.192C99.0778 10.192 99.9738 10.3413 100.742 10.64V13.904C100.166 13.648 99.5364 13.52 98.8538 13.52C97.8938 13.52 97.1791 13.7333 96.7098 14.16C96.2618 14.5867 96.0378 15.2907 96.0378 16.272V18.64H99.7818V21.712H96.0378V34H92.0058V21.712ZM104.913 40.336C104.358 40.336 103.771 40.2933 103.153 40.208C102.555 40.144 102.086 40.048 101.745 39.92V36.848C102.278 37.0613 102.939 37.168 103.729 37.168C104.539 37.168 105.147 36.9867 105.553 36.624C105.958 36.2613 106.31 35.6853 106.609 34.896L107.217 33.296L100.593 18.64H104.657L109.393 29.84L113.841 18.64H117.873L111.153 35.376C110.47 37.0613 109.638 38.3093 108.657 39.12C107.697 39.9307 106.449 40.336 104.913 40.336Z" fill="#3945E3"/>
<mask id="mask0_36_833" style="mask-type:alpha" maskUnits="userSpaceOnUse" x="113" y="5" width="22" height="12">
<rect x="113" y="5" width="22" height="12" fill="#D9D9D9"/>
</mask>
<g mask="url(#mask0_36_833)">
<path d="M115 19L120 11L115 3" stroke="white" stroke-width="4"/>
<path d="M115 19L120 11L115 3" stroke="#3945E3" stroke-width="4"/>
<path d="M121 19L126 11L121 3" stroke="white" stroke-width="4"/>
<path d="M121 19L126 11L121 3" stroke="#3945E3" stroke-opacity="0.6" stroke-width="4"/>
<path d="M127 19L132 11L127 3" stroke="white" stroke-width="4"/>
<path d="M127 19L132 11L127 3" stroke="#3945E3" stroke-opacity="0.2" stroke-width="4"/>
</g>
</svg>
