<svg width="99" height="40" viewBox="0 0 99 40" fill="none" xmlns="http://www.w3.org/2000/svg">
<path d="M56.3242 29H44.5586V12.1953H47.9219V25.6367H56.3242V29ZM69.543 22.6133C69.543 23.5508 69.375 24.4258 69.0391 25.2383C68.7031 26.043 68.2461 26.7422 67.668 27.3359C67.0898 27.9219 66.4102 28.3867 65.6289 28.7305C64.8555 29.0664 64.0234 29.2344 63.1328 29.2344C62.25 29.2344 61.418 29.0664 60.6367 28.7305C59.8633 28.3867 59.1836 27.9219 58.5977 27.3359C58.0195 26.7422 57.5625 26.043 57.2266 25.2383C56.8906 24.4258 56.7227 23.5508 56.7227 22.6133C56.7227 21.6602 56.8906 20.7773 57.2266 19.9648C57.5625 19.1523 58.0195 18.4531 58.5977 17.8672C59.1836 17.2734 59.8633 16.8086 60.6367 16.4727C61.418 16.1367 62.25 15.9688 63.1328 15.9688C64.0234 15.9688 64.8555 16.1289 65.6289 16.4492C66.4102 16.7617 67.0898 17.2109 67.668 17.7969C68.2461 18.375 68.7031 19.0742 69.0391 19.8945C69.375 20.707 69.543 21.6133 69.543 22.6133ZM66.3203 22.6133C66.3203 22.0977 66.2344 21.6328 66.0625 21.2188C65.8984 20.7969 65.6719 20.4375 65.3828 20.1406C65.0938 19.8359 64.7539 19.6055 64.3633 19.4492C63.9805 19.2852 63.5703 19.2031 63.1328 19.2031C62.6953 19.2031 62.2812 19.2852 61.8906 19.4492C61.5078 19.6055 61.1719 19.8359 60.8828 20.1406C60.6016 20.4375 60.3789 20.7969 60.2148 21.2188C60.0508 21.6328 59.9688 22.0977 59.9688 22.6133C59.9688 23.0977 60.0508 23.5469 60.2148 23.9609C60.3789 24.375 60.6016 24.7344 60.8828 25.0391C61.1719 25.3438 61.5078 25.5859 61.8906 25.7656C62.2812 25.9375 62.6953 26.0234 63.1328 26.0234C63.5703 26.0234 63.9805 25.9414 64.3633 25.7773C64.7539 25.6133 65.0938 25.3828 65.3828 25.0859C65.6719 24.7891 65.8984 24.4297 66.0625 24.0078C66.2344 23.5859 66.3203 23.1211 66.3203 22.6133ZM80.2422 22.6133C80.2422 22.1758 80.1562 21.7539 79.9844 21.3477C79.8203 20.9336 79.5938 20.5703 79.3047 20.2578C79.0156 19.9375 78.6758 19.6836 78.2852 19.4961C77.9023 19.3008 77.4922 19.2031 77.0547 19.2031C76.6172 19.2031 76.2031 19.2773 75.8125 19.4258C75.4297 19.5742 75.0938 19.793 74.8047 20.082C74.5234 20.3711 74.3008 20.7305 74.1367 21.1602C73.9727 21.582 73.8906 22.0664 73.8906 22.6133C73.8906 23.1367 73.9727 23.6094 74.1367 24.0312C74.3008 24.4453 74.5234 24.8008 74.8047 25.0977C75.0938 25.3945 75.4297 25.625 75.8125 25.7891C76.2031 25.9453 76.6172 26.0234 77.0547 26.0234C77.4922 26.0234 77.9023 25.9297 78.2852 25.7422C78.6758 25.5469 79.0156 25.293 79.3047 24.9805C79.5938 24.6602 79.8203 24.2969 79.9844 23.8906C80.1562 23.4766 80.2422 23.0508 80.2422 22.6133ZM83.4648 27.418C83.4648 28.3008 83.2969 29.1289 82.9609 29.9023C82.625 30.6758 82.1641 31.3516 81.5781 31.9297C81 32.5078 80.3203 32.9648 79.5391 33.3008C78.7656 33.6367 77.9375 33.8047 77.0547 33.8047L75.4492 33.7812V30.582L77.0312 30.6055C77.5312 30.6055 77.957 30.5391 78.3086 30.4062C78.6602 30.2812 78.957 30.1055 79.1992 29.8789C79.4414 29.6602 79.6328 29.4062 79.7734 29.1172C79.9219 28.8281 80.0391 28.5234 80.125 28.2031C80 28.4062 79.8203 28.5742 79.5859 28.707C79.3516 28.832 79.0898 28.9336 78.8008 29.0117C78.5195 29.0977 78.2227 29.1562 77.9102 29.1875C77.6055 29.2188 77.3203 29.2344 77.0547 29.2344C76.1719 29.2344 75.3398 29.082 74.5586 28.7773C73.7852 28.4727 73.1055 28.0391 72.5195 27.4766C71.9414 26.9062 71.4844 26.2109 71.1484 25.3906C70.8125 24.5703 70.6445 23.6445 70.6445 22.6133C70.6445 21.668 70.8125 20.7891 71.1484 19.9766C71.4844 19.1641 71.9414 18.4609 72.5195 17.8672C73.1055 17.2734 73.7852 16.8086 74.5586 16.4727C75.3398 16.1367 76.1719 15.9688 77.0547 15.9688C77.4609 15.9688 77.8633 16.0195 78.2617 16.1211C78.6602 16.2227 79.0469 16.3633 79.4219 16.543C79.7969 16.7227 80.1523 16.9336 80.4883 17.1758C80.832 17.418 81.1523 17.6797 81.4492 17.9609L82.6914 16.4727H83.4648V27.418ZM98.043 22.6133C98.043 23.5508 97.875 24.4258 97.5391 25.2383C97.2031 26.043 96.7461 26.7422 96.168 27.3359C95.5898 27.9219 94.9102 28.3867 94.1289 28.7305C93.3555 29.0664 92.5234 29.2344 91.6328 29.2344C90.75 29.2344 89.918 29.0664 89.1367 28.7305C88.3633 28.3867 87.6836 27.9219 87.0977 27.3359C86.5195 26.7422 86.0625 26.043 85.7266 25.2383C85.3906 24.4258 85.2227 23.5508 85.2227 22.6133C85.2227 21.6602 85.3906 20.7773 85.7266 19.9648C86.0625 19.1523 86.5195 18.4531 87.0977 17.8672C87.6836 17.2734 88.3633 16.8086 89.1367 16.4727C89.918 16.1367 90.75 15.9688 91.6328 15.9688C92.5234 15.9688 93.3555 16.1289 94.1289 16.4492C94.9102 16.7617 95.5898 17.2109 96.168 17.7969C96.7461 18.375 97.2031 19.0742 97.5391 19.8945C97.875 20.707 98.043 21.6133 98.043 22.6133ZM94.8203 22.6133C94.8203 22.0977 94.7344 21.6328 94.5625 21.2188C94.3984 20.7969 94.1719 20.4375 93.8828 20.1406C93.5938 19.8359 93.2539 19.6055 92.8633 19.4492C92.4805 19.2852 92.0703 19.2031 91.6328 19.2031C91.1953 19.2031 90.7812 19.2852 90.3906 19.4492C90.0078 19.6055 89.6719 19.8359 89.3828 20.1406C89.1016 20.4375 88.8789 20.7969 88.7148 21.2188C88.5508 21.6328 88.4688 22.0977 88.4688 22.6133C88.4688 23.0977 88.5508 23.5469 88.7148 23.9609C88.8789 24.375 89.1016 24.7344 89.3828 25.0391C89.6719 25.3438 90.0078 25.5859 90.3906 25.7656C90.7812 25.9375 91.1953 26.0234 91.6328 26.0234C92.0703 26.0234 92.4805 25.9414 92.8633 25.7773C93.2539 25.6133 93.5938 25.3828 93.8828 25.0859C94.1719 24.7891 94.3984 24.4297 94.5625 24.0078C94.7344 23.5859 94.8203 23.1211 94.8203 22.6133Z" fill="#14213D"/>
<path d="M14.4302 0.0106492V5.56476H19.9843V0.0106492H14.4302Z" fill="#EFA73D"/>
<path d="M7.76514 6.67557V12.2297H13.3192V6.67557H7.76514Z" fill="#EFA73D"/>
<path d="M21.0952 6.67557V12.2297H26.6493V6.67557H21.0952Z" fill="#EFA73D"/>
<path d="M13.3301 27.7705H18.8842C18.8842 24.0826 15.9072 21.1056 12.2192 21.1056V26.6597C12.8413 26.6597 13.3301 27.1707 13.3301 27.7705Z" fill="#EFA73D"/>
<path d="M14.4408 5.55411V0C10.7529 0 7.77588 2.977 7.77588 6.66493H13.33C13.33 6.06509 13.8187 5.55411 14.4408 5.55411Z" fill="#EFA73D"/>
<path d="M21.1055 6.66493H26.6596C26.6596 2.977 23.6826 0 19.9946 0V5.55411C20.6167 5.55411 21.1055 6.06509 21.1055 6.66493Z" fill="#EFA73D"/>
<path d="M22.2061 13.3405V18.8946H27.7602V13.3405H22.2061Z" fill="#14213D"/>
<path d="M21.1059 12.2191H15.5518C15.5518 15.907 18.5288 18.884 22.2167 18.884V13.3299C21.5946 13.3299 21.1059 12.8411 21.1059 12.2191Z" fill="#14213D"/>
<path d="M27.7704 26.6597V21.1056C24.0825 21.1056 21.1055 24.0826 21.1055 27.7705H26.6596C26.6596 27.1707 27.1483 26.6597 27.7704 26.6597Z" fill="#14213D"/>
<path d="M28.8813 19.9948H34.4354C34.4354 16.3068 31.4584 13.3298 27.7705 13.3298V18.8839C28.3926 18.8839 28.8813 19.3949 28.8813 19.9948Z" fill="#14213D"/>
<path d="M20.0054 40V34.4459H14.4513V40H20.0054Z" fill="#14213D"/>
<path d="M26.6704 33.3351V27.7809H21.1163V33.3351H26.6704Z" fill="#14213D"/>
<path d="M13.3403 33.3351L13.3403 27.7809H7.78622L7.78622 33.3351H13.3403Z" fill="#14213D"/>
<path d="M19.9946 34.4355V39.9896C23.6826 39.9896 26.6596 37.0126 26.6596 33.3246H21.1055C21.1055 33.9467 20.6167 34.4355 19.9946 34.4355Z" fill="#14213D"/>
<path d="M13.33 33.3246H7.77588C7.77588 37.0126 10.7529 39.9896 14.4408 39.9896V34.4355C13.8187 34.4355 13.33 33.9467 13.33 33.3246Z" fill="#14213D"/>
<path d="M27.7705 21.1056V26.6597C31.4584 26.6597 34.4354 23.6827 34.4354 19.9948H28.8813C28.8813 20.6169 28.3926 21.1056 27.7705 21.1056Z" fill="#14213D"/>
<path d="M12.2295 26.6701L12.2295 21.116H6.67538L6.67538 26.6701H12.2295Z" fill="#EFA73D"/>
<path d="M6.66504 13.3299V18.884C10.353 18.884 13.33 15.907 13.33 12.2191H7.77586C7.77586 12.8411 7.2871 13.3299 6.66504 13.3299Z" fill="#EFA73D"/>
<path d="M5.55411 19.9948H0C0 23.6827 2.977 26.6597 6.66493 26.6597V21.1056C6.04287 21.1056 5.55411 20.6169 5.55411 19.9948Z" fill="#EFA73D"/>
<path d="M6.66493 18.8839V13.3298C2.977 13.3298 0 16.3068 0 19.9948H5.55411C5.55411 19.3949 6.04287 18.8839 6.66493 18.8839Z" fill="#EFA73D"/>
</svg>
