<svg width="197" height="40" viewBox="0 0 197 40" fill="none" xmlns="http://www.w3.org/2000/svg">
<path d="M56.64 30.288C55.6 30.288 54.624 30.192 53.712 30C52.8 29.824 51.992 29.528 51.288 29.112C50.6 28.696 50.056 28.152 49.656 27.48C49.256 26.792 49.056 25.952 49.056 24.96C49.056 24.896 49.056 24.824 49.056 24.744C49.056 24.664 49.064 24.6 49.08 24.552H53.232C53.232 24.6 53.224 24.664 53.208 24.744C53.208 24.808 53.208 24.864 53.208 24.912C53.208 25.424 53.336 25.84 53.592 26.16C53.864 26.464 54.24 26.688 54.72 26.832C55.2 26.96 55.76 27.024 56.4 27.024C56.752 27.024 57.08 27.008 57.384 26.976C57.688 26.944 57.96 26.888 58.2 26.808C58.44 26.728 58.648 26.632 58.824 26.52C59.016 26.392 59.152 26.248 59.232 26.088C59.328 25.912 59.376 25.712 59.376 25.488C59.376 25.12 59.232 24.816 58.944 24.576C58.672 24.336 58.296 24.136 57.816 23.976C57.352 23.816 56.824 23.664 56.232 23.52C55.64 23.376 55.024 23.224 54.384 23.064C53.744 22.904 53.128 22.704 52.536 22.464C51.944 22.224 51.408 21.92 50.928 21.552C50.464 21.184 50.088 20.728 49.8 20.184C49.528 19.624 49.392 18.952 49.392 18.168C49.392 17.304 49.576 16.56 49.944 15.936C50.312 15.296 50.816 14.776 51.456 14.376C52.112 13.976 52.864 13.688 53.712 13.512C54.56 13.32 55.464 13.224 56.424 13.224C57.368 13.224 58.248 13.32 59.064 13.512C59.896 13.704 60.632 14.008 61.272 14.424C61.912 14.824 62.408 15.336 62.76 15.96C63.128 16.568 63.32 17.304 63.336 18.168V18.456H59.208V18.288C59.208 17.92 59.104 17.6 58.896 17.328C58.704 17.04 58.408 16.816 58.008 16.656C57.608 16.48 57.112 16.392 56.52 16.392C55.928 16.392 55.424 16.448 55.008 16.56C54.608 16.672 54.296 16.832 54.072 17.04C53.864 17.248 53.76 17.496 53.76 17.784C53.76 18.136 53.896 18.424 54.168 18.648C54.456 18.872 54.84 19.064 55.32 19.224C55.8 19.384 56.336 19.536 56.928 19.68C57.52 19.808 58.128 19.952 58.752 20.112C59.392 20.256 60.008 20.448 60.6 20.688C61.192 20.912 61.728 21.208 62.208 21.576C62.688 21.928 63.064 22.368 63.336 22.896C63.624 23.424 63.768 24.064 63.768 24.816C63.768 26.128 63.456 27.184 62.832 27.984C62.224 28.784 61.376 29.368 60.288 29.736C59.216 30.104 58 30.288 56.64 30.288ZM69.7504 30.288C69.2224 30.288 68.7024 30.232 68.1904 30.12C67.6944 30.024 67.2384 29.848 66.8224 29.592C66.4224 29.32 66.1024 28.952 65.8624 28.488C65.6224 28.024 65.5024 27.44 65.5024 26.736C65.5024 25.824 65.6944 25.08 66.0784 24.504C66.4624 23.928 67.0144 23.48 67.7344 23.16C68.4704 22.824 69.3504 22.592 70.3744 22.464C71.4144 22.336 72.5744 22.272 73.8544 22.272V21.48C73.8544 21.112 73.7824 20.808 73.6384 20.568C73.4944 20.312 73.2784 20.12 72.9904 19.992C72.7184 19.848 72.3504 19.776 71.8864 19.776C71.4704 19.776 71.1024 19.824 70.7824 19.92C70.4784 20.016 70.2464 20.16 70.0864 20.352C69.9264 20.528 69.8464 20.744 69.8464 21V21.216H66.0064C65.9904 21.136 65.9824 21.072 65.9824 21.024C65.9824 20.96 65.9824 20.88 65.9824 20.784C65.9824 20.032 66.2144 19.376 66.6784 18.816C67.1584 18.256 67.8384 17.824 68.7184 17.52C69.5984 17.216 70.6624 17.064 71.9104 17.064C73.0784 17.064 74.0944 17.208 74.9584 17.496C75.8384 17.784 76.5264 18.224 77.0224 18.816C77.5344 19.408 77.7904 20.184 77.7904 21.144V26.544C77.7904 26.816 77.8624 27.032 78.0064 27.192C78.1664 27.352 78.3584 27.432 78.5824 27.432H79.3984V29.856C79.2224 29.936 78.9424 30.024 78.5584 30.12C78.1904 30.232 77.7424 30.288 77.2144 30.288C76.6704 30.288 76.1904 30.216 75.7744 30.072C75.3744 29.944 75.0384 29.76 74.7664 29.52C74.5104 29.264 74.3344 28.968 74.2384 28.632H74.0704C73.7664 28.952 73.4064 29.24 72.9904 29.496C72.5904 29.752 72.1184 29.944 71.5744 30.072C71.0464 30.216 70.4384 30.288 69.7504 30.288ZM71.2144 27.576C71.5984 27.576 71.9504 27.52 72.2704 27.408C72.5904 27.296 72.8624 27.144 73.0864 26.952C73.3264 26.744 73.5104 26.496 73.6384 26.208C73.7824 25.92 73.8544 25.608 73.8544 25.272V24.432C72.9424 24.432 72.1584 24.496 71.5024 24.624C70.8464 24.752 70.3424 24.952 69.9904 25.224C69.6384 25.496 69.4624 25.84 69.4624 26.256C69.4624 26.56 69.5344 26.816 69.6784 27.024C69.8384 27.216 70.0464 27.36 70.3024 27.456C70.5584 27.536 70.8624 27.576 71.2144 27.576ZM81.0114 30V17.352H84.2514L84.5394 19.152H84.7074C84.9954 18.72 85.3394 18.344 85.7394 18.024C86.1554 17.704 86.6114 17.464 87.1074 17.304C87.6034 17.144 88.1314 17.064 88.6914 17.064C89.5554 17.064 90.2914 17.24 90.8994 17.592C91.5074 17.928 91.9714 18.448 92.2914 19.152H92.4594C92.7474 18.72 93.0914 18.344 93.4914 18.024C93.9074 17.704 94.3634 17.464 94.8594 17.304C95.3714 17.144 95.8994 17.064 96.4434 17.064C97.3234 17.064 98.0674 17.232 98.6754 17.568C99.2834 17.888 99.7474 18.384 100.067 19.056C100.403 19.712 100.571 20.552 100.571 21.576V30H96.6354V22.176C96.6354 21.824 96.5954 21.528 96.5154 21.288C96.4354 21.032 96.3234 20.824 96.1794 20.664C96.0354 20.488 95.8514 20.36 95.6274 20.28C95.4034 20.2 95.1634 20.16 94.9074 20.16C94.4914 20.16 94.1154 20.272 93.7794 20.496C93.4594 20.704 93.2114 20.992 93.0354 21.36C92.8594 21.712 92.7714 22.128 92.7714 22.608V30H88.8354V22.176C88.8354 21.824 88.7954 21.528 88.7154 21.288C88.6354 21.032 88.5234 20.824 88.3794 20.664C88.2354 20.488 88.0514 20.36 87.8274 20.28C87.6034 20.2 87.3634 20.16 87.1074 20.16C86.6914 20.16 86.3154 20.272 85.9794 20.496C85.6594 20.704 85.4034 20.992 85.2114 21.36C85.0354 21.712 84.9474 22.128 84.9474 22.608V30H81.0114ZM103.512 34.464V17.352H106.728L107.064 19.104H107.232C107.664 18.384 108.208 17.864 108.864 17.544C109.536 17.224 110.28 17.064 111.096 17.064C112.168 17.064 113.088 17.304 113.856 17.784C114.64 18.264 115.24 18.992 115.656 19.968C116.072 20.944 116.28 22.184 116.28 23.688C116.28 25.176 116.072 26.408 115.656 27.384C115.24 28.36 114.648 29.088 113.88 29.568C113.112 30.048 112.208 30.288 111.168 30.288C110.656 30.288 110.176 30.232 109.728 30.12C109.28 30.008 108.872 29.832 108.504 29.592C108.152 29.352 107.848 29.056 107.592 28.704H107.448V34.464H103.512ZM109.872 27.216C110.464 27.216 110.936 27.096 111.288 26.856C111.656 26.616 111.92 26.264 112.08 25.8C112.24 25.336 112.32 24.768 112.32 24.096V23.256C112.32 22.584 112.24 22.016 112.08 21.552C111.92 21.072 111.656 20.72 111.288 20.496C110.936 20.256 110.464 20.136 109.872 20.136C109.296 20.136 108.824 20.272 108.456 20.544C108.104 20.8 107.84 21.176 107.664 21.672C107.504 22.152 107.424 22.72 107.424 23.376V23.952C107.424 24.432 107.464 24.872 107.544 25.272C107.64 25.672 107.784 26.016 107.976 26.304C108.184 26.592 108.44 26.816 108.744 26.976C109.064 27.136 109.44 27.216 109.872 27.216ZM118.676 30V12.624H122.612V30H118.676ZM131.782 30.288C130.342 30.288 129.118 30.056 128.11 29.592C127.102 29.112 126.326 28.384 125.782 27.408C125.254 26.432 124.99 25.184 124.99 23.664C124.99 22.176 125.254 20.944 125.782 19.968C126.31 18.992 127.07 18.264 128.062 17.784C129.054 17.304 130.246 17.064 131.638 17.064C133.014 17.064 134.174 17.296 135.118 17.76C136.078 18.224 136.806 18.936 137.302 19.896C137.798 20.856 138.046 22.096 138.046 23.616V24.456H128.974C128.974 25.128 129.07 25.696 129.262 26.16C129.454 26.624 129.75 26.976 130.15 27.216C130.55 27.456 131.086 27.576 131.758 27.576C132.158 27.576 132.51 27.528 132.814 27.432C133.118 27.336 133.374 27.2 133.582 27.024C133.79 26.832 133.95 26.608 134.062 26.352C134.174 26.096 134.23 25.808 134.23 25.488H138.046C138.046 26.256 137.902 26.944 137.614 27.552C137.342 28.144 136.934 28.648 136.39 29.064C135.846 29.464 135.182 29.768 134.398 29.976C133.63 30.184 132.758 30.288 131.782 30.288ZM128.998 22.272H134.038C134.038 21.856 133.982 21.496 133.87 21.192C133.774 20.872 133.622 20.608 133.414 20.4C133.222 20.192 132.982 20.04 132.694 19.944C132.422 19.832 132.102 19.776 131.734 19.776C131.158 19.776 130.678 19.872 130.294 20.064C129.91 20.256 129.614 20.536 129.406 20.904C129.198 21.272 129.062 21.728 128.998 22.272ZM144.996 30V12.624H148.932V30H144.996ZM158.03 30.288C156.622 30.288 155.414 30.048 154.406 29.568C153.414 29.088 152.646 28.36 152.102 27.384C151.574 26.392 151.31 25.152 151.31 23.664C151.31 22.176 151.574 20.944 152.102 19.968C152.646 18.992 153.414 18.264 154.406 17.784C155.414 17.304 156.622 17.064 158.03 17.064C159.454 17.064 160.662 17.304 161.654 17.784C162.662 18.264 163.43 18.992 163.958 19.968C164.502 20.944 164.774 22.176 164.774 23.664C164.774 25.152 164.502 26.392 163.958 27.384C163.43 28.36 162.662 29.088 161.654 29.568C160.662 30.048 159.454 30.288 158.03 30.288ZM158.03 27.432C158.686 27.432 159.214 27.304 159.614 27.048C160.03 26.792 160.326 26.424 160.502 25.944C160.694 25.448 160.79 24.84 160.79 24.12V23.232C160.79 22.512 160.694 21.904 160.502 21.408C160.326 20.912 160.03 20.544 159.614 20.304C159.214 20.048 158.686 19.92 158.03 19.92C157.39 19.92 156.862 20.048 156.446 20.304C156.046 20.544 155.75 20.912 155.558 21.408C155.382 21.904 155.294 22.512 155.294 23.232V24.12C155.294 24.84 155.382 25.448 155.558 25.944C155.75 26.424 156.046 26.792 156.446 27.048C156.862 27.304 157.39 27.432 158.03 27.432ZM169.184 34.728C168.624 34.728 168.096 34.6 167.6 34.344C167.104 34.104 166.704 33.752 166.4 33.288C166.112 32.84 165.968 32.312 165.968 31.704C165.968 31.032 166.168 30.464 166.568 30C166.984 29.552 167.448 29.216 167.96 28.992C167.592 28.752 167.288 28.456 167.048 28.104C166.824 27.736 166.712 27.328 166.712 26.88C166.712 26.256 166.944 25.728 167.408 25.296C167.872 24.864 168.416 24.576 169.04 24.432C168.464 24.064 167.992 23.608 167.624 23.064C167.272 22.52 167.096 21.912 167.096 21.24C167.096 20.264 167.352 19.472 167.864 18.864C168.392 18.256 169.112 17.808 170.024 17.52C170.936 17.216 171.976 17.064 173.144 17.064C173.608 17.064 174.024 17.088 174.392 17.136C174.776 17.168 175.12 17.224 175.424 17.304C176.064 16.92 176.504 16.52 176.744 16.104C176.984 15.688 177.112 15.352 177.128 15.096H180.56C180.56 15.736 180.448 16.28 180.224 16.728C180 17.16 179.68 17.512 179.264 17.784C178.848 18.056 178.352 18.264 177.776 18.408C178.208 18.76 178.544 19.184 178.784 19.68C179.024 20.16 179.144 20.68 179.144 21.24C179.144 22.152 178.912 22.92 178.448 23.544C178 24.152 177.376 24.616 176.576 24.936C175.776 25.256 174.856 25.416 173.816 25.416H171.944C171.496 25.416 171.16 25.488 170.936 25.632C170.728 25.76 170.624 25.936 170.624 26.16C170.624 26.368 170.72 26.552 170.912 26.712C171.104 26.856 171.432 26.928 171.896 26.928H176.768C178 26.928 178.944 27.28 179.6 27.984C180.256 28.672 180.584 29.552 180.584 30.624C180.584 31.44 180.36 32.152 179.912 32.76C179.464 33.384 178.864 33.864 178.112 34.2C177.376 34.552 176.552 34.728 175.64 34.728H169.184ZM171.08 32.328H175.232C175.504 32.328 175.744 32.272 175.952 32.16C176.16 32.064 176.32 31.92 176.432 31.728C176.56 31.552 176.624 31.344 176.624 31.104C176.624 30.704 176.496 30.4 176.24 30.192C175.984 29.984 175.672 29.88 175.304 29.88H171.08C170.712 29.88 170.4 29.984 170.144 30.192C169.904 30.416 169.784 30.712 169.784 31.08C169.784 31.448 169.904 31.744 170.144 31.968C170.4 32.208 170.712 32.328 171.08 32.328ZM173.12 23.112C173.808 23.112 174.336 22.952 174.704 22.632C175.088 22.312 175.28 21.848 175.28 21.24C175.28 20.616 175.088 20.152 174.704 19.848C174.336 19.528 173.808 19.368 173.12 19.368C172.464 19.368 171.944 19.528 171.56 19.848C171.176 20.152 170.984 20.616 170.984 21.24C170.984 21.64 171.064 21.984 171.224 22.272C171.384 22.544 171.624 22.752 171.944 22.896C172.264 23.04 172.656 23.112 173.12 23.112ZM188.428 30.288C187.02 30.288 185.812 30.048 184.804 29.568C183.812 29.088 183.044 28.36 182.5 27.384C181.972 26.392 181.708 25.152 181.708 23.664C181.708 22.176 181.972 20.944 182.5 19.968C183.044 18.992 183.812 18.264 184.804 17.784C185.812 17.304 187.02 17.064 188.428 17.064C189.852 17.064 191.06 17.304 192.052 17.784C193.06 18.264 193.828 18.992 194.356 19.968C194.9 20.944 195.172 22.176 195.172 23.664C195.172 25.152 194.9 26.392 194.356 27.384C193.828 28.36 193.06 29.088 192.052 29.568C191.06 30.048 189.852 30.288 188.428 30.288ZM188.428 27.432C189.084 27.432 189.612 27.304 190.012 27.048C190.428 26.792 190.724 26.424 190.9 25.944C191.092 25.448 191.188 24.84 191.188 24.12V23.232C191.188 22.512 191.092 21.904 190.9 21.408C190.724 20.912 190.428 20.544 190.012 20.304C189.612 20.048 189.084 19.92 188.428 19.92C187.788 19.92 187.26 20.048 186.844 20.304C186.444 20.544 186.148 20.912 185.956 21.408C185.78 21.904 185.692 22.512 185.692 23.232V24.12C185.692 24.84 185.78 25.448 185.956 25.944C186.148 26.424 186.444 26.792 186.844 27.048C187.26 27.304 187.788 27.432 188.428 27.432Z" fill="#003049"/>
<path d="M13.3335 40H26.6668V26.6667C26.6668 34.0445 20.6891 40 13.3335 40Z" fill="#B12A28"/>
<path d="M13.3333 13.3333H0V26.6666C0 19.3111 5.97778 13.3333 13.3333 13.3333Z" fill="#B12A28"/>
<path d="M26.6668 26.6667C34.0306 26.6667 40.0002 20.6971 40.0002 13.3333C40.0002 5.96954 34.0306 0 26.6668 0C19.303 0 13.3335 5.96954 13.3335 13.3333C13.3335 20.6971 19.303 26.6667 26.6668 26.6667Z" fill="#669BBC"/>
<path d="M0 26.6667V40H13.3333C5.97778 40 0 34.0445 0 26.6667Z" fill="#B12A28"/>
<path d="M13.3335 13.3333C20.6891 13.3333 26.6668 19.3111 26.6668 26.6666V13.3333H13.3335Z" fill="#FBF0D8"/>
</svg>
