<svg width="187" height="40" viewBox="0 0 187 40" fill="none" xmlns="http://www.w3.org/2000/svg">
<path d="M51.1337 29.2056C50.5577 29.2056 50.1417 29.1256 49.8857 28.9656C49.6297 28.7896 49.4697 28.5576 49.4057 28.2696C49.3417 27.9816 49.3097 27.6856 49.3097 27.3816V14.2536C49.3097 13.9336 49.3337 13.6376 49.3817 13.3656C49.4457 13.0936 49.6057 12.8696 49.8617 12.6936C50.1177 12.5176 50.5417 12.4296 51.1337 12.4296C51.7417 12.4296 52.1657 12.5176 52.4057 12.6936C52.6617 12.8696 52.8137 13.0936 52.8617 13.3656C52.9257 13.6376 52.9577 13.9336 52.9577 14.2536V26.0376H59.5337C59.8057 26.0376 60.0617 26.0616 60.3017 26.1096C60.5417 26.1576 60.7337 26.2936 60.8777 26.5176C61.0377 26.7416 61.1177 27.1096 61.1177 27.6216C61.1177 28.1176 61.0377 28.4856 60.8777 28.7256C60.7177 28.9496 60.5177 29.0856 60.2777 29.1336C60.0537 29.1816 59.8057 29.2056 59.5337 29.2056H51.1337ZM68.3041 29.3976C67.5521 29.3976 66.8001 29.2536 66.0481 28.9656C65.3121 28.6616 64.6401 28.2376 64.0321 27.6936C63.4241 27.1496 62.9441 26.5016 62.5921 25.7496C62.2401 24.9816 62.0641 24.1336 62.0641 23.2056C62.0641 22.3416 62.2241 21.5416 62.5441 20.8056C62.8641 20.0536 63.3121 19.3896 63.8881 18.8136C64.4641 18.2376 65.1201 17.7896 65.8561 17.4696C66.6081 17.1336 67.4081 16.9656 68.2561 16.9656C69.4081 16.9656 70.4481 17.2456 71.3761 17.8056C72.3201 18.3496 73.0721 19.0936 73.6321 20.0376C74.1921 20.9816 74.4721 22.0296 74.4721 23.1816C74.4721 24.1576 74.2881 25.0296 73.9201 25.7976C73.5681 26.5496 73.0881 27.1976 72.4801 27.7416C71.8881 28.2856 71.2241 28.7016 70.4881 28.9896C69.7681 29.2616 69.0401 29.3976 68.3041 29.3976ZM68.2561 25.7736C68.6401 25.7736 69.0321 25.6776 69.4321 25.4856C69.8321 25.2936 70.1681 25.0056 70.4401 24.6216C70.7121 24.2376 70.8481 23.7496 70.8481 23.1576C70.8481 22.6456 70.7361 22.1976 70.5121 21.8136C70.2881 21.4296 69.9761 21.1336 69.5761 20.9256C69.1921 20.7016 68.7441 20.5896 68.2321 20.5896C67.7521 20.5896 67.3201 20.7016 66.9361 20.9256C66.5681 21.1496 66.2641 21.4616 66.0241 21.8616C65.8001 22.2456 65.6881 22.6856 65.6881 23.1816C65.6881 23.7576 65.8161 24.2456 66.0721 24.6456C66.3441 25.0296 66.6801 25.3176 67.0801 25.5096C67.4801 25.6856 67.8721 25.7736 68.2561 25.7736ZM81.3503 34.1496C80.7903 34.1496 80.2303 34.0776 79.6703 33.9336C79.1103 33.7896 78.5983 33.5976 78.1343 33.3576C77.6703 33.1176 77.3023 32.8616 77.0303 32.5896C76.7583 32.3176 76.6223 32.0456 76.6223 31.7736C76.6223 31.5176 76.6703 31.2776 76.7663 31.0536C76.8623 30.8456 77.0063 30.6376 77.1983 30.4296C77.4223 30.1896 77.6143 30.0056 77.7743 29.8776C77.9343 29.7496 78.1263 29.6856 78.3503 29.6856C78.5743 29.6856 78.7743 29.7416 78.9503 29.8536C79.1263 29.9816 79.3103 30.1176 79.5023 30.2616C79.7103 30.4056 79.9663 30.5336 80.2703 30.6456C80.5743 30.7736 80.9583 30.8376 81.4223 30.8376C81.7583 30.8376 82.0623 30.7736 82.3343 30.6456C82.6063 30.5336 82.8463 30.3576 83.0543 30.1176C83.2623 29.8936 83.4223 29.6216 83.5343 29.3016C83.6463 28.9976 83.7023 28.6536 83.7023 28.2696V18.3336C83.7503 17.9176 83.9103 17.6216 84.1823 17.4456C84.4703 17.2536 84.9023 17.1576 85.4783 17.1576C86.0543 17.1576 86.4543 17.2456 86.6783 17.4216C86.9183 17.5816 87.0623 17.7976 87.1103 18.0696C87.1743 18.3416 87.2063 18.6296 87.2063 18.9336V28.4136C87.2063 29.3256 87.0383 30.1336 86.7023 30.8376C86.3663 31.5576 85.9183 32.1576 85.3583 32.6376C84.7983 33.1336 84.1743 33.5096 83.4863 33.7656C82.7983 34.0216 82.0863 34.1496 81.3503 34.1496ZM80.9183 28.8936C80.1983 28.8936 79.5103 28.7416 78.8543 28.4376C78.2143 28.1176 77.6383 27.6856 77.1263 27.1416C76.6303 26.5976 76.2383 25.9736 75.9503 25.2696C75.6623 24.5656 75.5183 23.8216 75.5183 23.0376C75.5183 22.2536 75.6623 21.5176 75.9503 20.8296C76.2383 20.1256 76.6303 19.5096 77.1263 18.9816C77.6383 18.4376 78.2143 18.0136 78.8543 17.7096C79.5103 17.3896 80.1983 17.2296 80.9183 17.2296C81.6223 17.2296 82.2223 17.3736 82.7183 17.6616C83.2143 17.9336 83.6143 18.3336 83.9183 18.8616C84.2383 19.3736 84.4703 19.9896 84.6143 20.7096C84.7583 21.4136 84.8303 22.2056 84.8303 23.0856C84.8303 24.2696 84.7023 25.3016 84.4463 26.1816C84.1903 27.0456 83.7743 27.7176 83.1983 28.1976C82.6223 28.6616 81.8623 28.8936 80.9183 28.8936ZM81.3503 25.4136C81.7663 25.4136 82.1423 25.3096 82.4783 25.1016C82.8143 24.8776 83.0783 24.5896 83.2703 24.2376C83.4783 23.8856 83.5823 23.4856 83.5823 23.0376C83.5823 22.5896 83.4783 22.1896 83.2703 21.8376C83.0783 21.4856 82.8063 21.2056 82.4543 20.9976C82.1183 20.7896 81.7343 20.6856 81.3023 20.6856C80.8703 20.6856 80.4863 20.7896 80.1503 20.9976C79.8143 21.2056 79.5423 21.4936 79.3343 21.8616C79.1423 22.2136 79.0463 22.6136 79.0463 23.0616C79.0463 23.4936 79.1503 23.8856 79.3583 24.2376C79.5663 24.5896 79.8383 24.8776 80.1743 25.1016C80.5263 25.3096 80.9183 25.4136 81.3503 25.4136ZM94.9056 29.3976C94.1536 29.3976 93.4016 29.2536 92.6496 28.9656C91.9136 28.6616 91.2416 28.2376 90.6336 27.6936C90.0256 27.1496 89.5456 26.5016 89.1936 25.7496C88.8416 24.9816 88.6656 24.1336 88.6656 23.2056C88.6656 22.3416 88.8256 21.5416 89.1456 20.8056C89.4656 20.0536 89.9136 19.3896 90.4896 18.8136C91.0656 18.2376 91.7216 17.7896 92.4576 17.4696C93.2096 17.1336 94.0096 16.9656 94.8576 16.9656C96.0096 16.9656 97.0496 17.2456 97.9776 17.8056C98.9216 18.3496 99.6736 19.0936 100.234 20.0376C100.794 20.9816 101.074 22.0296 101.074 23.1816C101.074 24.1576 100.89 25.0296 100.522 25.7976C100.17 26.5496 99.6896 27.1976 99.0816 27.7416C98.4896 28.2856 97.8256 28.7016 97.0896 28.9896C96.3696 29.2616 95.6416 29.3976 94.9056 29.3976ZM94.8576 25.7736C95.2416 25.7736 95.6336 25.6776 96.0336 25.4856C96.4336 25.2936 96.7696 25.0056 97.0416 24.6216C97.3136 24.2376 97.4496 23.7496 97.4496 23.1576C97.4496 22.6456 97.3376 22.1976 97.1136 21.8136C96.8896 21.4296 96.5776 21.1336 96.1776 20.9256C95.7936 20.7016 95.3456 20.5896 94.8336 20.5896C94.3536 20.5896 93.9216 20.7016 93.5376 20.9256C93.1696 21.1496 92.8656 21.4616 92.6256 21.8616C92.4016 22.2456 92.2896 22.6856 92.2896 23.1816C92.2896 23.7576 92.4176 24.2456 92.6736 24.6456C92.9456 25.0296 93.2816 25.3176 93.6816 25.5096C94.0816 25.6856 94.4736 25.7736 94.8576 25.7736ZM113.861 29.4456C113.013 29.4456 112.269 29.3416 111.629 29.1336C111.005 28.9256 110.469 28.6776 110.021 28.3896C109.589 28.0856 109.245 27.7896 108.989 27.5016C108.733 27.2136 108.557 26.9976 108.461 26.8536C108.189 26.5016 108.021 26.1976 107.957 25.9416C107.893 25.6696 107.925 25.3976 108.053 25.1256C108.197 24.8536 108.437 24.5576 108.773 24.2376C109.109 23.9496 109.421 23.7976 109.709 23.7816C110.013 23.7496 110.309 23.8216 110.597 23.9976C110.885 24.1736 111.165 24.4216 111.437 24.7416C111.821 25.2056 112.197 25.5336 112.565 25.7256C112.949 25.9016 113.349 25.9896 113.765 25.9896C114.293 25.9896 114.741 25.9256 115.109 25.7976C115.477 25.6696 115.757 25.4696 115.949 25.1976C116.141 24.9096 116.237 24.5496 116.237 24.1176C116.237 23.7656 116.101 23.4856 115.829 23.2776C115.573 23.0536 115.221 22.8616 114.773 22.7016C114.341 22.5416 113.853 22.3896 113.309 22.2456C112.781 22.0856 112.253 21.9016 111.725 21.6936C111.357 21.5656 111.005 21.4056 110.669 21.2136C110.333 21.0216 110.013 20.8056 109.709 20.5656C109.405 20.3256 109.141 20.0376 108.917 19.7016C108.709 19.3656 108.541 18.9816 108.413 18.5496C108.301 18.1176 108.245 17.6216 108.245 17.0616C108.245 16.1176 108.477 15.2776 108.941 14.5416C109.405 13.8056 110.045 13.2296 110.861 12.8136C111.693 12.3816 112.645 12.1656 113.717 12.1656C114.437 12.1656 115.061 12.2296 115.589 12.3576C116.133 12.4856 116.589 12.6376 116.957 12.8136C117.325 12.9896 117.613 13.1656 117.821 13.3416C118.045 13.5016 118.197 13.6296 118.277 13.7256C118.725 14.1416 118.973 14.5016 119.021 14.8056C119.069 15.0936 118.901 15.5016 118.517 16.0296C118.117 16.5896 117.717 16.9016 117.317 16.9656C116.933 17.0296 116.493 16.8936 115.997 16.5576C115.805 16.3816 115.613 16.2216 115.421 16.0776C115.229 15.9336 114.997 15.8216 114.725 15.7416C114.469 15.6456 114.125 15.5976 113.693 15.5976C113.437 15.5976 113.197 15.6376 112.973 15.7176C112.749 15.7816 112.557 15.8776 112.397 16.0056C112.237 16.1336 112.109 16.2936 112.013 16.4856C111.917 16.6616 111.869 16.8616 111.869 17.0856C111.869 17.4536 111.989 17.7496 112.229 17.9736C112.485 18.1976 112.813 18.3816 113.213 18.5256C113.629 18.6536 114.085 18.7816 114.581 18.9096C115.093 19.0216 115.613 19.1576 116.141 19.3176C116.621 19.4776 117.085 19.6776 117.533 19.9176C117.981 20.1416 118.381 20.4296 118.733 20.7816C119.085 21.1336 119.365 21.5736 119.573 22.1016C119.797 22.6296 119.909 23.2776 119.909 24.0456C119.909 25.0056 119.725 25.8296 119.357 26.5176C118.989 27.2056 118.501 27.7656 117.893 28.1976C117.285 28.6296 116.629 28.9416 115.925 29.1336C115.221 29.3416 114.533 29.4456 113.861 29.4456ZM131.234 29.1816C130.642 29.1816 130.202 29.0776 129.914 28.8696C129.642 28.6616 129.506 28.4056 129.506 28.1016L129.746 27.6936C129.65 27.8536 129.466 28.0536 129.194 28.2936C128.922 28.5176 128.57 28.7256 128.138 28.9176C127.706 29.0936 127.17 29.1816 126.53 29.1816C125.794 29.1816 125.09 29.0216 124.418 28.7016C123.762 28.3816 123.178 27.9416 122.666 27.3816C122.154 26.8056 121.746 26.1576 121.442 25.4376C121.154 24.7176 121.01 23.9576 121.01 23.1576C121.01 22.3736 121.154 21.6296 121.442 20.9256C121.746 20.2056 122.154 19.5736 122.666 19.0296C123.194 18.4696 123.786 18.0296 124.442 17.7096C125.098 17.3896 125.794 17.2296 126.53 17.2296C127.122 17.2296 127.626 17.3176 128.042 17.4936C128.458 17.6536 128.802 17.8456 129.074 18.0696C129.362 18.2936 129.578 18.5096 129.722 18.7176L129.53 18.3816C129.514 17.9976 129.642 17.7096 129.914 17.5176C130.202 17.3096 130.65 17.2056 131.258 17.2056C131.834 17.2056 132.242 17.2936 132.482 17.4696C132.738 17.6456 132.89 17.8776 132.938 18.1656C133.002 18.4536 133.034 18.7576 133.034 19.0776V27.3576C133.034 27.6616 133.002 27.9576 132.938 28.2456C132.89 28.5336 132.738 28.7656 132.482 28.9416C132.242 29.1016 131.826 29.1816 131.234 29.1816ZM127.058 25.6056C127.474 25.6056 127.85 25.5016 128.186 25.2936C128.538 25.0696 128.81 24.7736 129.002 24.4056C129.21 24.0376 129.314 23.6296 129.314 23.1816C129.314 22.7176 129.21 22.3096 129.002 21.9576C128.794 21.5896 128.514 21.3016 128.162 21.0936C127.81 20.8696 127.426 20.7576 127.01 20.7576C126.546 20.7576 126.13 20.8696 125.762 21.0936C125.41 21.3176 125.122 21.6136 124.898 21.9816C124.69 22.3496 124.586 22.7656 124.586 23.2296C124.586 23.6616 124.69 24.0616 124.898 24.4296C125.122 24.7816 125.418 25.0696 125.786 25.2936C126.17 25.5016 126.594 25.6056 127.058 25.6056ZM136.718 29.2056C136.142 29.2056 135.726 29.1176 135.47 28.9416C135.214 28.7656 135.062 28.5416 135.014 28.2696C134.966 27.9976 134.942 27.7016 134.942 27.3816V18.9816C134.942 18.6616 134.966 18.3736 135.014 18.1176C135.078 17.8456 135.238 17.6296 135.494 17.4696C135.75 17.2936 136.174 17.2056 136.766 17.2056C137.358 17.2056 137.79 17.3256 138.062 17.5656C138.334 17.7896 138.47 18.1656 138.47 18.6936L138.158 18.9576C138.19 18.8776 138.286 18.7416 138.446 18.5496C138.606 18.3576 138.814 18.1576 139.07 17.9496C139.326 17.7416 139.622 17.5656 139.958 17.4216C140.31 17.2616 140.686 17.1816 141.086 17.1816C141.614 17.1816 142.086 17.2616 142.502 17.4216C142.934 17.5656 143.318 17.7896 143.654 18.0936C144.006 18.3816 144.31 18.7496 144.566 19.1976C144.79 18.8776 145.062 18.5656 145.382 18.2616C145.702 17.9576 146.078 17.7016 146.51 17.4936C146.958 17.2856 147.454 17.1816 147.998 17.1816C148.926 17.1816 149.71 17.4216 150.35 17.9016C151.006 18.3656 151.502 19.0376 151.838 19.9176C152.174 20.7976 152.342 21.8616 152.342 23.1096V27.4056C152.342 27.7096 152.31 28.0056 152.246 28.2936C152.198 28.5656 152.046 28.7896 151.79 28.9656C151.534 29.1256 151.11 29.2056 150.518 29.2056C149.926 29.2056 149.502 29.1176 149.246 28.9416C149.006 28.7656 148.854 28.5416 148.79 28.2696C148.742 27.9816 148.718 27.6856 148.718 27.3816V23.0856C148.718 22.5896 148.662 22.1736 148.55 21.8376C148.438 21.5016 148.262 21.2456 148.022 21.0696C147.798 20.8776 147.51 20.7816 147.158 20.7816C146.79 20.7816 146.478 20.8696 146.222 21.0456C145.966 21.2056 145.774 21.4616 145.646 21.8136C145.518 22.1496 145.454 22.5816 145.454 23.1096V27.4056C145.454 27.7256 145.414 28.0296 145.334 28.3176C145.254 28.5896 145.078 28.8136 144.806 28.9896C144.55 29.1496 144.134 29.2216 143.558 29.2056C142.982 29.1896 142.574 29.0936 142.334 28.9176C142.094 28.7416 141.95 28.5176 141.902 28.2456C141.854 27.9576 141.83 27.6696 141.83 27.3816V23.0856C141.83 22.5896 141.774 22.1736 141.662 21.8376C141.55 21.4856 141.382 21.2216 141.158 21.0456C140.934 20.8696 140.638 20.7816 140.27 20.7816C139.87 20.7816 139.542 20.8856 139.286 21.0936C139.03 21.3016 138.838 21.5816 138.71 21.9336C138.598 22.2696 138.542 22.6536 138.542 23.0856V27.4056C138.542 27.7256 138.51 28.0216 138.446 28.2936C138.398 28.5656 138.246 28.7896 137.99 28.9656C137.734 29.1256 137.31 29.2056 136.718 29.2056ZM160.52 28.9896C159.736 28.9896 159.04 28.8376 158.432 28.5336C157.84 28.2136 157.344 27.7896 156.944 27.2616C156.56 26.7176 156.264 26.0936 156.056 25.3896C155.864 24.6856 155.776 23.9256 155.792 23.1096C155.792 22.3256 155.896 21.5816 156.104 20.8776C156.312 20.1576 156.608 19.5256 156.992 18.9816C157.392 18.4216 157.88 17.9896 158.456 17.6856C159.048 17.3656 159.736 17.2056 160.52 17.2056C161.224 17.2056 161.904 17.3656 162.56 17.6856C163.232 18.0056 163.824 18.4456 164.336 19.0056C164.848 19.5496 165.248 20.1816 165.536 20.9016C165.84 21.6216 165.992 22.3816 165.992 23.1816C165.992 23.9816 165.84 24.7416 165.536 25.4616C165.248 26.1656 164.848 26.7816 164.336 27.3096C163.824 27.8376 163.24 28.2536 162.584 28.5576C161.928 28.8456 161.24 28.9896 160.52 28.9896ZM155.888 34.1736C155.312 34.1736 154.896 34.0856 154.64 33.9096C154.4 33.7496 154.248 33.5336 154.184 33.2616C154.136 33.0056 154.112 32.7256 154.112 32.4216V19.0056C154.112 18.6856 154.136 18.3976 154.184 18.1416C154.232 17.8696 154.376 17.6456 154.616 17.4696C154.872 17.2936 155.288 17.2056 155.864 17.2056C156.36 17.2056 156.752 17.2776 157.04 17.4216C157.344 17.5656 157.56 17.7896 157.688 18.0936V32.3976C157.704 32.7016 157.68 32.9896 157.616 33.2616C157.552 33.5336 157.392 33.7496 157.136 33.9096C156.896 34.0856 156.48 34.1736 155.888 34.1736ZM160.016 25.6056C160.464 25.6056 160.864 25.5016 161.216 25.2936C161.568 25.0696 161.848 24.7736 162.056 24.4056C162.28 24.0376 162.392 23.6296 162.392 23.1816C162.392 22.7176 162.288 22.3096 162.08 21.9576C161.872 21.5896 161.592 21.3016 161.24 21.0936C160.888 20.8856 160.488 20.7816 160.04 20.7816C159.608 20.7816 159.208 20.8936 158.84 21.1176C158.488 21.3256 158.208 21.6136 158 21.9816C157.808 22.3336 157.712 22.7336 157.712 23.1816C157.712 23.6296 157.816 24.0376 158.024 24.4056C158.232 24.7736 158.512 25.0696 158.864 25.2936C159.216 25.5016 159.6 25.6056 160.016 25.6056ZM172.082 29.2056C171.426 29.2056 170.842 29.1656 170.33 29.0856C169.834 29.0216 169.402 28.8936 169.034 28.7016C168.682 28.5096 168.394 28.2456 168.17 27.9096C167.946 27.5736 167.778 27.1416 167.666 26.6136C167.57 26.0696 167.522 25.4056 167.522 24.6216V13.5336C167.522 13.2136 167.546 12.9176 167.594 12.6456C167.658 12.3736 167.818 12.1496 168.074 11.9736C168.33 11.7976 168.746 11.7096 169.322 11.7096C169.898 11.7096 170.306 11.7976 170.546 11.9736C170.802 12.1496 170.962 12.3736 171.026 12.6456C171.09 12.9176 171.122 13.2136 171.122 13.5336V24.4536C171.122 24.7096 171.13 24.9256 171.146 25.1016C171.178 25.2616 171.226 25.3896 171.29 25.4856C171.37 25.5816 171.474 25.6456 171.602 25.6776C171.73 25.7096 171.898 25.7256 172.106 25.7256C172.298 25.7256 172.49 25.7496 172.682 25.7976C172.89 25.8456 173.066 25.9896 173.21 26.2296C173.354 26.4696 173.426 26.8696 173.426 27.4296C173.426 28.0056 173.354 28.4216 173.21 28.6776C173.066 28.9336 172.89 29.0856 172.682 29.1336C172.49 29.1816 172.29 29.2056 172.082 29.2056ZM180.644 29.4216C179.524 29.4216 178.556 29.2376 177.74 28.8696C176.94 28.5016 176.284 28.0216 175.772 27.4296C175.26 26.8216 174.876 26.1496 174.62 25.4136C174.38 24.6776 174.26 23.9416 174.26 23.2056C174.26 22.0056 174.532 20.9416 175.076 20.0136C175.62 19.0856 176.372 18.3576 177.332 17.8296C178.292 17.2856 179.396 17.0136 180.644 17.0136C181.572 17.0136 182.372 17.1656 183.044 17.4696C183.732 17.7576 184.292 18.1416 184.724 18.6216C185.172 19.0856 185.5 19.5896 185.708 20.1336C185.932 20.6776 186.044 21.1976 186.044 21.6936C186.044 22.5736 185.828 23.2296 185.396 23.6616C184.98 24.0776 184.444 24.2856 183.788 24.2856H178.076C178.108 24.7016 178.252 25.0536 178.508 25.3416C178.78 25.6296 179.116 25.8536 179.516 26.0136C179.916 26.1736 180.34 26.2536 180.788 26.2536C181.172 26.2536 181.508 26.2376 181.796 26.2056C182.084 26.1576 182.332 26.1016 182.54 26.0376C182.748 25.9576 182.94 25.8856 183.116 25.8216C183.292 25.7416 183.444 25.6776 183.572 25.6296C183.716 25.5816 183.852 25.5496 183.98 25.5336C184.22 25.5176 184.436 25.5896 184.628 25.7496C184.836 25.8936 185.02 26.1176 185.18 26.4216C185.292 26.5976 185.364 26.7656 185.396 26.9256C185.444 27.0856 185.468 27.2456 185.468 27.4056C185.468 27.7896 185.268 28.1336 184.868 28.4376C184.484 28.7416 183.932 28.9816 183.212 29.1576C182.508 29.3336 181.652 29.4216 180.644 29.4216ZM178.076 22.3176H181.868C182.124 22.3176 182.308 22.2776 182.42 22.1976C182.548 22.1016 182.612 21.9256 182.612 21.6696C182.612 21.3816 182.524 21.1336 182.348 20.9256C182.172 20.7016 181.932 20.5336 181.628 20.4216C181.34 20.2936 181.004 20.2296 180.62 20.2296C180.124 20.2296 179.684 20.3256 179.3 20.5176C178.916 20.7096 178.612 20.9656 178.388 21.2856C178.18 21.6056 178.076 21.9496 178.076 22.3176Z" fill="#1C231F"/>
<path d="M39.9895 19.9947C39.9895 8.95189 36.8763 -8.39233e-05 33.0358 -8.39233e-05C29.1954 -8.39233e-05 26.082 8.95189 26.082 19.9947C26.082 31.0375 29.1954 39.9895 33.0358 39.9895C36.8763 39.9895 39.9895 31.0375 39.9895 19.9947Z" fill="#3A4D42"/>
<path d="M22.8382 19.9947C22.8382 8.95189 21.2767 -8.39233e-05 19.3503 -8.39233e-05C17.424 -8.39233e-05 15.8623 8.95189 15.8623 19.9947C15.8623 31.0375 17.424 39.9895 19.3503 39.9895C21.2767 39.9895 22.8382 31.0375 22.8382 19.9947Z" fill="#415942"/>
<path d="M12.5966 19.9947C12.5966 8.95189 11.8207 -8.39233e-05 10.8637 -8.39233e-05C9.90665 -8.39233e-05 9.13086 8.95189 9.13086 19.9947C9.13086 31.0375 9.90665 39.9895 10.8637 39.9895C11.8207 39.9895 12.5966 31.0375 12.5966 19.9947Z" fill="#61805B"/>
<path d="M5.86516 19.9947C5.86516 8.95189 5.47727 -8.39233e-05 4.99874 -8.39233e-05C4.52022 -8.39233e-05 4.13232 8.95189 4.13232 19.9947C4.13232 31.0375 4.52022 39.9895 4.99874 39.9895C5.47727 39.9895 5.86516 31.0375 5.86516 19.9947Z" fill="#A6B18E"/>
<path d="M0.888657 19.9948C0.888657 8.95195 0.689725 -2.28882e-05 0.444329 -2.28882e-05C0.198933 -2.28882e-05 0 8.95195 0 19.9948C0 31.0376 0.198933 39.9896 0.444329 39.9896C0.689725 39.9896 0.888657 31.0376 0.888657 19.9948Z" fill="#DAD7CE"/>
</svg>
