<svg width="107" height="40" viewBox="0 0 107 40" fill="none" xmlns="http://www.w3.org/2000/svg">
<path d="M51.24 12.76H56.448L53.616 25.984H58.488L58.08 28H48L51.24 12.76ZM68.4812 12.52C69.8572 12.52 70.9692 12.696 71.8172 13.048C72.6812 13.4 73.3612 13.944 73.8572 14.68C74.1772 15.176 74.4252 15.736 74.6012 16.36C74.7772 16.984 74.8652 17.704 74.8652 18.52C74.8652 19.224 74.8012 19.928 74.6732 20.632C74.5452 21.336 74.3612 22.016 74.1212 22.672C73.8972 23.312 73.6172 23.92 73.2812 24.496C72.9612 25.056 72.6012 25.552 72.2012 25.984C71.4492 26.8 70.5772 27.376 69.5852 27.712C68.6092 28.032 67.4012 28.192 65.9612 28.192C64.5692 28.192 63.4492 28.048 62.6012 27.76C61.7532 27.472 61.0812 27.008 60.5852 26.368C60.2332 25.92 59.9532 25.352 59.7452 24.664C59.5532 23.976 59.4572 23.112 59.4572 22.072C59.4572 20.296 59.7692 18.712 60.3932 17.32C61.0332 15.912 61.9372 14.8 63.1052 13.984C63.8092 13.488 64.5932 13.12 65.4572 12.88C66.3212 12.64 67.3292 12.52 68.4812 12.52ZM65.7692 26.512C66.1372 26.512 66.4812 26.352 66.8012 26.032C67.1372 25.696 67.4412 25.256 67.7132 24.712C68.0012 24.152 68.2572 23.52 68.4812 22.816C68.7212 22.112 68.9212 21.384 69.0812 20.632C69.2412 19.88 69.3612 19.136 69.4412 18.4C69.5372 17.648 69.5852 16.968 69.5852 16.36C69.5852 15.528 69.4972 14.96 69.3212 14.656C69.1612 14.336 68.9212 14.176 68.6012 14.176C68.2332 14.176 67.8812 14.336 67.5452 14.656C67.2092 14.976 66.8892 15.408 66.5852 15.952C66.2972 16.48 66.0332 17.096 65.7932 17.8C65.5692 18.488 65.3692 19.2 65.1932 19.936C65.0332 20.672 64.9052 21.4 64.8092 22.12C64.7292 22.84 64.6892 23.504 64.6892 24.112C64.6892 25.024 64.7852 25.656 64.9772 26.008C65.1852 26.344 65.4492 26.512 65.7692 26.512ZM83.5669 21.04H89.7829L88.3909 28H85.5589L85.1029 26.464H85.0069C84.5909 26.944 84.0949 27.352 83.5189 27.688C82.9589 28.024 82.2229 28.192 81.3109 28.192C80.6069 28.192 79.9269 28.08 79.2709 27.856C78.6309 27.616 78.0549 27.248 77.5429 26.752C77.0469 26.24 76.6469 25.576 76.3429 24.76C76.0389 23.944 75.8869 22.96 75.8869 21.808C75.8869 20.56 76.0789 19.376 76.4629 18.256C76.8469 17.136 77.4229 16.152 78.1909 15.304C78.9589 14.44 79.9189 13.76 81.0709 13.264C82.2229 12.768 83.5669 12.52 85.1029 12.52C86.2869 12.52 87.3189 12.656 88.1989 12.928C89.0789 13.2 89.9109 13.504 90.6949 13.84L89.7829 18.496H85.7269C85.7429 18.32 85.7669 18.112 85.7989 17.872C85.8309 17.632 85.8549 17.384 85.8709 17.128C85.8869 16.856 85.9029 16.592 85.9189 16.336C85.9349 16.08 85.9429 15.856 85.9429 15.664C85.9429 15.536 85.9349 15.392 85.9189 15.232C85.9029 15.056 85.8629 14.888 85.7989 14.728C85.7349 14.568 85.6389 14.44 85.5109 14.344C85.3829 14.232 85.1989 14.176 84.9589 14.176C84.5429 14.176 84.1589 14.352 83.8069 14.704C83.4709 15.04 83.1669 15.496 82.8949 16.072C82.6229 16.632 82.3829 17.272 82.1749 17.992C81.9829 18.712 81.8149 19.448 81.6709 20.2C81.5429 20.936 81.4389 21.664 81.3589 22.384C81.2949 23.088 81.2629 23.704 81.2629 24.232C81.2629 24.392 81.2709 24.592 81.2869 24.832C81.3029 25.072 81.3509 25.312 81.4309 25.552C81.5269 25.776 81.6549 25.976 81.8149 26.152C81.9909 26.312 82.2389 26.392 82.5589 26.392C83.0869 26.392 83.5989 26.104 84.0949 25.528C84.5909 24.952 84.9669 23.992 85.2229 22.648H83.2069L83.5669 21.04ZM100.309 12.52C101.685 12.52 102.797 12.696 103.645 13.048C104.509 13.4 105.189 13.944 105.685 14.68C106.005 15.176 106.253 15.736 106.429 16.36C106.605 16.984 106.693 17.704 106.693 18.52C106.693 19.224 106.629 19.928 106.501 20.632C106.373 21.336 106.189 22.016 105.949 22.672C105.725 23.312 105.445 23.92 105.109 24.496C104.789 25.056 104.429 25.552 104.029 25.984C103.277 26.8 102.405 27.376 101.413 27.712C100.437 28.032 99.2293 28.192 97.7893 28.192C96.3973 28.192 95.2773 28.048 94.4293 27.76C93.5813 27.472 92.9093 27.008 92.4133 26.368C92.0613 25.92 91.7813 25.352 91.5733 24.664C91.3813 23.976 91.2853 23.112 91.2853 22.072C91.2853 20.296 91.5973 18.712 92.2213 17.32C92.8613 15.912 93.7653 14.8 94.9333 13.984C95.6373 13.488 96.4213 13.12 97.2853 12.88C98.1493 12.64 99.1573 12.52 100.309 12.52ZM97.5973 26.512C97.9653 26.512 98.3093 26.352 98.6293 26.032C98.9653 25.696 99.2693 25.256 99.5413 24.712C99.8293 24.152 100.085 23.52 100.309 22.816C100.549 22.112 100.749 21.384 100.909 20.632C101.069 19.88 101.189 19.136 101.269 18.4C101.365 17.648 101.413 16.968 101.413 16.36C101.413 15.528 101.325 14.96 101.149 14.656C100.989 14.336 100.749 14.176 100.429 14.176C100.061 14.176 99.7093 14.336 99.3733 14.656C99.0373 14.976 98.7173 15.408 98.4133 15.952C98.1253 16.48 97.8613 17.096 97.6213 17.8C97.3973 18.488 97.1973 19.2 97.0213 19.936C96.8613 20.672 96.7333 21.4 96.6373 22.12C96.5573 22.84 96.5173 23.504 96.5173 24.112C96.5173 25.024 96.6133 25.656 96.8053 26.008C97.0133 26.344 97.2773 26.512 97.5973 26.512Z" fill="#03045A"/>
<path d="M28.2815 39.9896L39.9896 28.2815V11.7081L28.2815 0H11.7081L0 11.7081V28.2815L11.7081 39.9896H28.2815Z" fill="#3375B1"/>
<path d="M39.9898 19.9948V11.7081L28.2817 39.9896L39.9898 19.9948Z" fill="white"/>
<path d="M28.2819 0H19.9951L28.2819 39.9896V0Z" fill="white"/>
<path d="M28.2815 39.9896L5.86512 5.86511L0 11.7081L28.2815 39.9896Z" fill="white"/>
<path d="M28.2815 39.9896L0 28.2815L5.86512 34.1467L28.2815 39.9896Z" fill="white"/>
</svg>
