<svg width="109" height="40" viewBox="0 0 109 40" fill="none" xmlns="http://www.w3.org/2000/svg">
<path d="M50.8857 27C50.6777 27 50.5737 26.896 50.5737 26.688V11.592C50.5737 11.384 50.6777 11.28 50.8857 11.28H53.7417C53.9177 11.28 54.0057 11.384 54.0057 11.592V24.024H60.1497C60.3417 24.024 60.4377 24.12 60.4377 24.312V26.688C60.4377 26.896 60.3417 27 60.1497 27H50.8857ZM68.393 27.288C66.233 27.288 64.593 26.768 63.473 25.728C62.369 24.688 61.817 23.176 61.817 21.192V17.088C61.817 15.088 62.369 13.576 63.473 12.552C64.593 11.512 66.233 10.992 68.393 10.992C70.569 10.992 72.209 11.512 73.313 12.552C74.433 13.576 74.993 15.088 74.993 17.088V21.192C74.993 23.176 74.433 24.688 73.313 25.728C72.209 26.768 70.569 27.288 68.393 27.288ZM68.393 24.312C69.465 24.312 70.257 24.032 70.769 23.472C71.297 22.896 71.561 22.072 71.561 21V17.28C71.561 16.208 71.297 15.392 70.769 14.832C70.257 14.256 69.465 13.968 68.393 13.968C67.353 13.968 66.569 14.256 66.041 14.832C65.513 15.392 65.249 16.208 65.249 17.28V21C65.249 22.072 65.513 22.896 66.041 23.472C66.569 24.032 67.353 24.312 68.393 24.312ZM83.6144 27.288C82.4304 27.288 81.3824 27.064 80.4704 26.616C79.5744 26.152 78.8704 25.472 78.3584 24.576C77.8464 23.664 77.5904 22.536 77.5904 21.192V17.088C77.5904 15.072 78.1744 13.552 79.3424 12.528C80.5104 11.504 82.1184 10.992 84.1664 10.992C85.6544 10.992 86.8944 11.224 87.8864 11.688C88.8944 12.152 89.6224 12.784 90.0704 13.584C90.5344 14.384 90.7024 15.296 90.5744 16.32C90.5424 16.512 90.4304 16.608 90.2384 16.608H87.4304C87.2384 16.608 87.1504 16.496 87.1664 16.272C87.1824 15.792 87.0864 15.384 86.8784 15.048C86.6864 14.696 86.3664 14.424 85.9184 14.232C85.4864 14.04 84.9264 13.944 84.2384 13.944C83.1824 13.944 82.3824 14.208 81.8384 14.736C81.2944 15.264 81.0224 16.096 81.0224 17.232V21.048C81.0224 22.184 81.2944 23.016 81.8384 23.544C82.3824 24.072 83.1904 24.336 84.2624 24.336C85.2704 24.336 86.0304 24.112 86.5424 23.664C87.0704 23.216 87.3344 22.576 87.3344 21.744V21.072H84.4064C84.1984 21.072 84.0944 20.968 84.0944 20.76V18.96C84.0944 18.752 84.1984 18.648 84.4064 18.648H90.3104C90.4064 18.648 90.4784 18.68 90.5264 18.744C90.5744 18.792 90.5984 18.864 90.5984 18.96V23.184C90.5984 23.744 90.6064 24.336 90.6224 24.96C90.6544 25.584 90.7184 26.152 90.8144 26.664C90.8464 26.76 90.8304 26.84 90.7664 26.904C90.7024 26.968 90.6224 27 90.5264 27H88.2704C88.1904 27 88.1264 26.976 88.0784 26.928C88.0304 26.88 87.9904 26.816 87.9584 26.736C87.9264 26.544 87.8944 26.312 87.8624 26.04C87.8464 25.752 87.8304 25.488 87.8144 25.248H87.7664C87.5104 25.648 87.1904 26.008 86.8064 26.328C86.4384 26.632 85.9904 26.864 85.4624 27.024C84.9344 27.2 84.3184 27.288 83.6144 27.288ZM100.104 27.288C97.9439 27.288 96.3039 26.768 95.1839 25.728C94.0799 24.688 93.5279 23.176 93.5279 21.192V17.088C93.5279 15.088 94.0799 13.576 95.1839 12.552C96.3039 11.512 97.9439 10.992 100.104 10.992C102.28 10.992 103.92 11.512 105.024 12.552C106.144 13.576 106.704 15.088 106.704 17.088V21.192C106.704 23.176 106.144 24.688 105.024 25.728C103.92 26.768 102.28 27.288 100.104 27.288ZM100.104 24.312C101.176 24.312 101.968 24.032 102.48 23.472C103.008 22.896 103.272 22.072 103.272 21V17.28C103.272 16.208 103.008 15.392 102.48 14.832C101.968 14.256 101.176 13.968 100.104 13.968C99.0639 13.968 98.2799 14.256 97.7519 14.832C97.2239 15.392 96.9599 16.208 96.9599 17.28V21C96.9599 22.072 97.2239 22.896 97.7519 23.472C98.2799 24.032 99.0639 24.312 100.104 24.312Z" fill="#023047"/>
<path d="M20.9842 9.99738V19.9948H10.9868L20.9842 9.99738Z" fill="#023047"/>
<path d="M0.989746 19.9948V9.99738H10.9871L0.989746 19.9948Z" fill="#FB8500"/>
<path d="M0.989746 9.9974H10.9871V0C5.47747 0 0.989746 4.48772 0.989746 9.9974Z" fill="#FB8500"/>
<path d="M10.9868 0V9.9974H20.9842C20.9842 4.48772 16.4965 0 10.9868 0Z" fill="#FB8500"/>
<path d="M30.9818 19.9948H20.9844V9.99738L30.9818 19.9948Z" fill="#023047"/>
<path d="M20.9844 0H30.9818V9.9974L20.9844 0Z" fill="#FB8500"/>
<path d="M30.9819 0V9.9974H40.9793C40.9793 4.48772 36.4916 0 30.9819 0Z" fill="#FB8500"/>
<path d="M40.9793 9.99738H30.9819V19.9948C36.4916 19.9948 40.9793 15.5293 40.9793 9.99738Z" fill="#FB8500"/>
<path d="M20.9844 29.9922V19.9948H30.9818L20.9844 29.9922Z" fill="#023047"/>
<path d="M40.9793 19.9948V29.9922H30.9819L40.9793 19.9948Z" fill="#FB8500"/>
<path d="M40.9793 29.9922H30.9819V39.9896C36.4916 39.9896 40.9793 35.5241 40.9793 29.9922Z" fill="#FB8500"/>
<path d="M30.9818 39.9896V29.9922H20.9844C20.9844 35.5241 25.4721 39.9896 30.9818 39.9896Z" fill="#FB8500"/>
<path d="M10.9868 19.9948H20.9842V29.9922L10.9868 19.9948Z" fill="#023047"/>
<path d="M20.9842 39.9896H10.9868V29.9922L20.9842 39.9896Z" fill="#FB8500"/>
<path d="M10.9871 39.9896V29.9922H0.989746C0.989746 35.5241 5.47747 39.9896 10.9871 39.9896Z" fill="#FB8500"/>
<path d="M0.989746 29.9922H10.9871V19.9948C5.47747 19.9948 0.989746 24.4825 0.989746 29.9922Z" fill="#FB8500"/>
</svg>
