<svg width="334" height="240" viewBox="0 0 334 240" fill="none" xmlns="http://www.w3.org/2000/svg">
<g clip-path="url(#clip0_634_1557)">
<path d="M327.923 61.87L322.673 87.2947L319.293 84.0028L313.543 88.1013L309.148 82.6476L299.295 89.8131L290.873 75.7291L281.48 81.2321L277.754 76.0912L265.826 82.8122L262.238 75.131L270.6 34.6348L315.425 43.8906L327.923 61.87Z" fill="#EBEBEB"/>
<path d="M315.426 43.8906L327.924 61.8701L312.375 58.6604L315.426 43.8906Z" fill="#DBDBDB"/>
<path d="M321.554 92.3811L313.856 129.684L253.477 117.224L261.119 80.2119L264.708 87.8986L276.641 81.1775L280.361 86.313L289.759 80.8099L298.176 94.8939L308.035 87.7285L312.424 93.1821L318.18 89.0837L321.554 92.3811Z" fill="#EBEBEB"/>
<path d="M235.133 88.0079L173.601 91.8155L168.713 12.8256L214.405 10L231.177 24.0675L235.133 88.0079Z" fill="#EBEBEB"/>
<path d="M214.406 10L231.179 24.0675L215.333 25.0496L214.406 10Z" fill="#DBDBDB"/>
<path d="M197.349 63.143L197.113 61.3599C196.493 57.6674 197.503 53.536 200.712 49.2181C203.604 45.3995 205.173 42.6178 205.003 39.5179C204.805 36.0065 202.474 33.7899 198.134 33.9655C195.654 34.1026 192.949 35.0847 191.303 36.4893L189.41 32.2482C191.588 30.4705 195.451 29.1483 199.099 28.9453C207.011 28.5009 210.863 33.1864 211.159 38.4151C211.422 43.0951 208.997 46.612 205.914 50.7214C203.088 54.4687 202.155 57.5577 202.556 61.0581L202.726 62.8412L197.36 63.143H197.349ZM196.373 72.8597C196.23 70.3139 197.848 68.4265 200.257 68.2949C202.666 68.1577 204.416 69.8585 204.559 72.4043C204.696 74.8129 203.214 76.7606 200.669 76.9033C198.26 77.0404 196.504 75.2738 196.367 72.8652L196.373 72.8597Z" fill="#DBDBDB"/>
<path d="M-0.167969 189.108L41.5354 188.971L83.2387 188.927L166.645 188.834L250.052 188.922L291.755 188.971L333.459 189.108L291.755 189.24L250.052 189.289L166.645 189.383L83.2387 189.289L41.5354 189.24L-0.167969 189.108Z" fill="#263238"/>
<path d="M167.743 229.997C254.63 229.997 325.065 222.279 325.065 212.758C325.065 203.238 254.63 195.52 167.743 195.52C80.8571 195.52 10.4219 203.238 10.4219 212.758C10.4219 222.279 80.8571 229.997 167.743 229.997Z" fill="#EBEBEB"/>
<path d="M131.117 209.902C129.839 210.336 93.1833 210.462 91.7788 209.584C91.2466 209.255 90.9174 203.916 90.6979 197.453C90.6486 196.06 90.6101 194.617 90.5772 193.152L87.6035 173.598L112.106 173.438L114.422 192.993L114.329 197.294C114.329 197.294 128.385 203.521 129.817 204.651C131.244 205.782 132.39 209.458 131.112 209.891L131.117 209.902Z" fill="#EB9481"/>
<path d="M131.117 209.902C129.838 210.335 93.1827 210.461 91.7781 209.583C91.1307 209.177 90.7795 201.381 90.582 193.157L114.427 193.003L114.333 197.304C114.333 197.304 128.39 203.532 129.822 204.662C131.248 205.792 132.395 209.468 131.117 209.902Z" fill="white"/>
<path d="M131.119 209.902C129.84 210.336 93.1846 210.462 91.7801 209.584C91.2479 209.255 90.9187 203.917 90.6992 197.453L114.335 197.3C114.335 197.3 128.392 203.527 129.824 204.657C131.25 205.788 132.397 209.463 131.119 209.897V209.902Z" fill="#A6A6A6"/>
<path d="M130.585 208.439C124.44 208.307 99.6412 208.367 93.5566 208.707C93.5072 208.707 93.5072 208.746 93.5566 208.746C99.6466 209.009 124.44 208.746 130.585 208.537C130.717 208.537 130.717 208.439 130.585 208.439Z" fill="#263238"/>
<path d="M127.465 203.353C126.006 203.298 124.585 203.995 123.795 204.867C123.032 205.701 122.385 206.88 122.434 208.153C122.434 208.192 122.506 208.192 122.511 208.153C122.851 205.745 125.035 203.627 127.471 203.429C127.52 203.429 127.52 203.353 127.471 203.353H127.465Z" fill="#263238"/>
<path d="M116.723 197.91C114.265 197.882 111.417 198.76 109.892 200.779C109.832 200.856 109.947 200.938 110.018 200.9C112.24 199.748 114.347 198.886 116.767 198.212C116.937 198.162 116.898 197.91 116.723 197.91Z" fill="#263238"/>
<path d="M118.625 198.645C116.167 198.618 113.32 199.496 111.794 201.515C111.734 201.591 111.849 201.674 111.92 201.635C114.137 200.483 116.249 199.622 118.669 198.947C118.839 198.898 118.801 198.645 118.625 198.645Z" fill="#263238"/>
<path d="M120.525 199.38C118.067 199.352 115.22 200.23 113.695 202.249C113.634 202.326 113.75 202.408 113.821 202.37C116.037 201.218 118.15 200.356 120.569 199.681C120.739 199.632 120.701 199.38 120.525 199.38Z" fill="#263238"/>
<path d="M122.428 200.109C119.97 200.082 117.122 200.959 115.597 202.978C115.537 203.055 115.652 203.138 115.723 203.099C117.94 201.947 120.052 201.086 122.472 200.411C122.642 200.361 122.603 200.109 122.428 200.109Z" fill="#263238"/>
<path d="M95.1051 202.869C92.3453 202.886 92.3673 207.176 95.1325 207.16C97.8922 207.143 97.8703 202.853 95.1051 202.869Z" fill="#263238"/>
<path d="M119.355 191.335C118.104 190.309 116.54 191.324 115.777 192.394C114.543 194.133 113.693 196.57 113.566 198.693C113.566 198.748 113.605 198.764 113.643 198.764C113.698 198.94 113.907 199.088 114.088 198.962C115.832 197.744 117.851 196.657 119.174 194.94C119.947 193.936 120.54 192.306 119.355 191.335ZM116.354 196.575C115.509 197.195 114.642 197.771 113.819 198.418C114.252 197.189 114.631 195.95 115.19 194.77C115.459 194.205 115.739 193.629 116.085 193.107C116.617 192.295 119.026 190.227 119.278 192.904C119.421 194.38 117.363 195.834 116.354 196.575Z" fill="#263238"/>
<path d="M107.46 199.631C109.605 199.955 111.81 199.335 113.912 199C114.131 198.967 114.181 198.715 114.093 198.55C114.126 198.523 114.137 198.484 114.098 198.446C112.535 197.008 110.236 195.84 108.14 195.439C106.845 195.192 105.013 195.549 104.826 197.156C104.651 198.676 106.209 199.439 107.46 199.625V199.631ZM105.967 198.237C104.294 196.136 107.46 195.955 108.409 196.169C109.018 196.311 109.621 196.525 110.203 196.75C111.426 197.217 112.557 197.848 113.725 198.429C112.683 198.528 111.657 198.72 110.62 198.857C109.38 199.022 106.889 199.4 105.967 198.237Z" fill="#263238"/>
<path d="M51.6016 83.2281C51.6016 83.2281 80.0603 131.642 80.823 135.038C81.9916 140.261 88.2024 191.84 88.2024 191.84L117.813 191.308C117.813 191.308 112.711 145.83 107.877 130.846C104.393 120.054 79.2812 84.2596 79.2812 84.2596L51.6071 83.2227L51.6016 83.2281Z" fill="#37474F"/>
<path d="M115.121 186.769C110.869 186.736 95.797 186.566 90.1403 187.098C90.0964 187.098 90.0964 187.175 90.1403 187.18C92.0881 187.46 110.874 187.027 115.121 186.889C115.203 186.889 115.197 186.774 115.121 186.774V186.769Z" fill="#263238"/>
<path d="M56.4582 87.6712C58.3236 90.5955 60.2933 93.4595 62.1971 96.3619C64.1065 99.2642 66.0048 102.167 67.8812 105.091C71.6285 110.929 75.2826 116.827 78.8653 122.763C80.5442 125.545 82.1463 128.359 83.3039 131.394C84.4451 134.4 85.2242 137.533 85.8003 140.688C86.3819 143.864 86.7605 147.074 87.1226 150.284C87.5066 153.702 87.8852 157.115 88.2693 160.533C89.0484 167.523 89.8274 174.512 90.612 181.502C90.7053 182.358 90.8041 183.22 90.8864 184.075C90.8973 184.202 90.6724 184.224 90.6559 184.097C89.7836 177.151 89.0593 170.189 88.2693 163.232C87.8742 159.77 87.4792 156.308 87.0897 152.846C86.7221 149.625 86.3764 146.405 85.8771 143.201C85.3888 140.057 84.7469 136.924 83.7922 133.879C82.7937 130.697 81.3727 127.712 79.6993 124.821C76.2702 118.901 72.6381 113.085 69.006 107.28C65.3409 101.426 61.6485 95.5937 57.8134 89.8438C57.3415 89.1361 56.8642 88.4283 56.3704 87.7315C56.332 87.6766 56.4253 87.6273 56.4637 87.6821L56.4582 87.6712Z" fill="#263238"/>
<path d="M60.9287 212.762C59.579 212.679 24.7174 198.557 23.7463 197.218C23.7134 197.174 23.6969 197.087 23.6914 196.96C23.6969 195.764 26.111 191.567 28.13 186.059C28.2562 185.708 29.156 184.073 30.407 181.867C33.8415 175.815 39.9152 165.451 39.9152 165.451L62.7008 174.504L51.7936 190.832L50.0982 194.782C50.0982 194.782 60.7915 205.832 61.6968 207.418C62.5966 208.998 62.2784 212.839 60.9342 212.762H60.9287Z" fill="#EB9481"/>
<path d="M60.9287 212.762C59.579 212.68 24.7174 198.557 23.7463 197.219C23.7134 197.175 23.6969 197.087 23.6914 196.961C23.6969 195.765 26.111 191.567 28.13 186.059C28.2562 185.708 29.156 184.073 30.407 181.867L51.7936 190.827L50.0982 194.777C50.0982 194.777 60.7915 205.827 61.6968 207.413C62.5966 208.993 62.2784 212.833 60.9342 212.757L60.9287 212.762Z" fill="white"/>
<path d="M60.929 212.756C59.5793 212.679 24.7232 198.551 23.7521 197.213C23.3845 196.708 24.9427 191.946 28.1359 186.059L50.0986 194.782C50.0986 194.782 60.7919 205.827 61.6971 207.412C62.5969 208.992 62.2787 212.833 60.929 212.756Z" fill="#A6A6A6"/>
<path d="M60.9842 211.201C55.3385 208.776 32.3279 199.525 26.5615 197.561C26.5122 197.545 26.5012 197.578 26.5451 197.599C32.092 200.123 55.1739 209.187 60.9458 211.299C61.0665 211.343 61.1049 211.256 60.9842 211.206V211.201Z" fill="#263238"/>
<path d="M59.9973 205.314C58.6641 204.716 57.0894 204.831 56.0251 205.341C55.0046 205.829 53.9621 206.674 53.5287 207.876C53.5177 207.909 53.578 207.936 53.6 207.903C54.818 205.802 57.6381 204.655 59.9699 205.385C60.0193 205.402 60.0412 205.336 59.9973 205.314Z" fill="#263238"/>
<path d="M52.0801 196.235C49.8086 195.291 46.8404 195.033 44.6732 196.333C44.5909 196.383 44.6622 196.503 44.7445 196.492C47.2354 196.257 49.5124 196.251 52.0087 196.531C52.1843 196.553 52.2447 196.3 52.0801 196.235Z" fill="#263238"/>
<path d="M53.5664 197.627C51.295 196.678 48.3267 196.426 46.1595 197.726C46.0772 197.775 46.1486 197.896 46.2309 197.885C48.7218 197.649 50.9987 197.644 53.4951 197.923C53.6706 197.945 53.731 197.693 53.5664 197.627Z" fill="#263238"/>
<path d="M55.0586 199.021C52.7872 198.077 49.8189 197.819 47.6517 199.119C47.5694 199.169 47.6408 199.29 47.7231 199.279C50.214 199.043 52.4909 199.037 54.9873 199.317C55.1628 199.339 55.2232 199.087 55.0586 199.021Z" fill="#263238"/>
<path d="M56.5449 200.414C54.2735 199.465 51.3053 199.213 49.1381 200.513C49.0558 200.562 49.1271 200.683 49.2094 200.672C51.7003 200.436 53.9772 200.431 56.4736 200.711C56.6492 200.733 56.7095 200.48 56.5449 200.414Z" fill="#263238"/>
<path d="M30.1835 192.722C27.6213 191.702 26.0302 195.685 28.5979 196.706C31.1601 197.726 32.7512 193.743 30.1835 192.722Z" fill="#263238"/>
<path d="M56.9889 191.132C56.2153 189.711 54.3882 190.062 53.2745 190.775C51.4749 191.922 49.7795 193.864 48.8633 195.785C48.8413 195.834 48.8688 195.867 48.9072 195.878C48.8907 196.059 49.0279 196.278 49.2418 196.229C51.3158 195.757 53.5982 195.505 55.4636 194.413C56.5554 193.771 57.7186 192.482 56.9889 191.137V191.132ZM52.243 194.863C51.228 195.121 50.2075 195.329 49.198 195.62C50.0593 194.643 50.8768 193.639 51.8425 192.751C52.3033 192.328 52.7807 191.9 53.2909 191.543C54.0865 190.989 57.0931 189.98 56.325 192.553C55.9025 193.974 53.45 194.55 52.2375 194.857L52.243 194.863Z" fill="#263238"/>
<path d="M42.851 194.358C44.7164 195.461 46.9934 195.713 49.0673 196.196C49.2813 196.245 49.4239 196.031 49.4074 195.85C49.4458 195.839 49.4733 195.806 49.4513 195.757C48.5406 193.837 46.8507 191.889 45.0511 190.737C43.9428 190.024 42.1103 189.667 41.3367 191.082C40.6015 192.427 41.7592 193.716 42.851 194.358ZM41.9951 192.503C41.2325 189.925 44.2391 190.945 45.0347 191.505C45.5449 191.862 46.0222 192.289 46.4831 192.717C47.4433 193.606 48.2553 194.616 49.1167 195.592C48.1126 195.296 47.0921 195.088 46.0771 194.824C44.8701 194.512 42.4176 193.924 42.0006 192.503H41.9951Z" fill="#263238"/>
<path d="M53.5539 189.917L28.0469 179.619C28.0469 179.619 59.6714 133.126 59.9018 129.664C60.1103 126.597 46.2184 99.921 45.6697 92.1465C45.0771 83.7576 49.1207 77.2615 53.5594 73.2344L79.8729 84.416C79.8729 84.416 77.0967 88.8601 72.7239 91.329C72.7239 91.329 86.2154 122.163 85.4527 131.644C84.6846 141.174 53.5539 189.917 53.5539 189.917Z" fill="#37474F"/>
<path d="M54.685 185.068C50.998 183.483 52.0789 183.883 48.3699 182.341C46.5539 181.584 34.6371 176.63 32.821 176.224C32.7826 176.213 32.7552 176.279 32.7881 176.301C34.3737 177.272 46.3783 182.018 48.2108 182.742C51.9472 184.212 50.8883 183.751 54.6411 185.183C54.7124 185.211 54.7563 185.107 54.685 185.074V185.068Z" fill="#263238"/>
<path d="M77.0553 90.7731C74.312 91.3602 71.6236 92.3313 69.0394 93.3737C68.9406 93.4121 68.9845 93.5658 69.0943 93.5329C71.7827 92.7483 74.5205 92.0131 77.1595 91.0858C77.368 91.0145 77.2637 90.7292 77.0553 90.7731Z" fill="#263238"/>
<path d="M73.9326 89.6914C73.6747 90.1412 73.4553 90.6186 73.2578 91.1014C73.1041 91.4745 72.9121 91.875 72.9121 92.281C72.9121 92.3578 73.0164 92.3798 73.0657 92.3304C73.373 92.0286 73.5321 91.5897 73.7241 91.2166C73.9491 90.7832 74.1795 90.3497 74.3935 89.9108C74.5361 89.62 74.0862 89.4115 73.9271 89.6859L73.9326 89.6914Z" fill="#263238"/>
<path d="M74.2524 87.2177C74.4115 86.8117 74.5761 86.4112 74.7462 86.0052C74.9218 85.5882 75.1248 85.1822 75.2729 84.7542C75.2948 84.6884 75.4046 84.7323 75.3771 84.7981C75.218 85.2041 75.1138 85.6376 74.9821 86.0546C74.8504 86.4715 74.7188 86.8885 74.5761 87.3055C74.3182 88.0791 74.0055 88.8472 73.6708 89.5934C74.0988 89.5879 74.5432 89.5714 74.9327 89.3739C75.3552 89.16 75.6131 88.7101 75.8215 88.3041C76.052 87.8487 76.266 87.3878 76.5074 86.9379C76.7707 86.4386 77.0615 85.9503 77.2371 85.4126C77.259 85.3468 77.3633 85.3907 77.3413 85.4565C76.9463 86.5648 76.5568 87.6786 75.9368 88.6991C75.6954 89.0996 75.4978 89.5221 75.0534 89.6757C74.5761 89.8458 74.0494 89.8129 73.5501 89.7744C73.4898 89.7909 73.4075 89.7525 73.4294 89.6757C73.6653 88.8472 73.9287 88.0078 74.2524 87.2067V87.2177Z" fill="#263238"/>
<path d="M73.1302 92.3403C74.0629 94.321 74.8859 96.2961 75.7637 98.2713C76.6196 100.203 77.4152 102.156 78.1943 104.114C79.7634 108.081 81.168 112.119 82.4024 116.201C83.0114 118.22 83.5766 120.256 84.0813 122.302C84.5916 124.354 85.0854 126.428 85.2993 128.541C85.5133 130.658 85.3597 132.749 84.7726 134.795C84.1746 136.869 83.3845 138.685 82.4518 140.628C81.8812 141.813 81.6837 141.654 81.958 141.055C82.7426 139.355 84.8001 134.203 84.6519 129.874C84.5806 127.783 84.1527 125.726 83.6808 123.696C83.198 121.622 82.6548 119.565 82.0623 117.524C80.8936 113.497 79.5055 109.552 78.079 105.612C77.278 103.407 76.4221 101.223 75.6101 99.0175C74.7926 96.8009 73.9477 94.8038 73.0424 92.3787C73.0204 92.3129 73.1137 92.28 73.1411 92.3403H73.1302Z" fill="#263238"/>
<path d="M53.7685 85.7888C54.2239 85.6187 54.8603 85.8985 55.3267 85.9753C55.9247 86.0741 56.5282 86.1345 57.1317 86.1564C57.7298 86.1783 58.3278 86.1564 58.9259 86.096C59.5184 86.0412 60.1274 85.9644 60.6431 85.6407C61.5155 85.0975 62.2397 84.1428 62.8323 83.3144C63.4797 82.4091 64.1545 81.3666 64.5386 80.3187C64.5605 80.2529 64.6538 80.2968 64.6374 80.3626C64.4453 80.9716 64.3027 81.5916 64.0558 82.1896C63.8253 82.7492 63.5291 83.2869 63.2163 83.8082C62.6293 84.7738 61.9544 85.8107 60.9449 86.3868C59.886 86.9904 58.5253 86.952 57.3457 86.8861C56.6654 86.8477 55.9851 86.7544 55.3157 86.6173C54.8329 86.513 54.0209 86.4362 53.7136 86.0137C53.6588 85.9369 53.6862 85.8217 53.7795 85.7888H53.7685Z" fill="#263238"/>
<path d="M35.3287 174.76C39.5204 168.417 43.6354 162.02 47.6735 155.579C51.7225 149.121 55.7003 142.614 59.6232 136.074C60.5614 134.51 61.6422 132.947 62.2458 131.213C62.9041 129.331 62.5311 127.504 61.933 125.661C60.8412 122.281 59.486 118.994 58.0156 115.763C56.5452 112.52 54.9596 109.333 53.4014 106.134C51.8542 102.963 50.2137 99.775 49.0396 96.4392C47.9204 93.2515 47.4924 89.9486 48.3538 86.6457C49.2042 83.3647 51.0477 80.4239 52.9735 77.6751C53.4837 76.9509 53.9995 76.2322 54.5097 75.5079C54.5481 75.4531 54.6304 75.5189 54.592 75.5738C52.4687 78.4378 50.4003 81.4718 49.1548 84.8351C48.5403 86.4975 48.1398 88.2477 48.1014 90.0199C48.063 91.8195 48.3977 93.6081 48.9299 95.3254C49.9614 98.6612 51.5909 101.821 53.1106 104.954C54.6633 108.158 56.2544 111.341 57.7523 114.572C59.2556 117.82 60.6656 121.123 61.8233 124.514C62.339 126.023 62.9151 127.603 62.8767 129.221C62.8383 130.993 61.9934 132.59 61.1155 134.082C57.3024 140.589 53.3411 147.009 49.3359 153.395C45.3142 159.803 41.2103 166.168 37.0405 172.483C36.5138 173.278 35.9871 174.074 35.4604 174.869C35.3945 174.968 35.2519 174.853 35.3177 174.754L35.3287 174.76Z" fill="#263238"/>
<path d="M81.3352 54.8397C83.7109 60.0519 95.7045 67.2338 101.323 68.0074C105.366 68.5616 117.64 68.7536 121.848 68.1117C126.78 67.36 123.011 54.0496 120.098 54.3898C112.087 55.328 105.284 56.3705 103.15 56.3705C100.538 56.3705 86.4103 51.8331 84.7039 51.1966C80.5397 49.633 79.9855 51.8879 81.3352 54.8397Z" fill="#EB9481"/>
<path d="M81.4105 56.2223C84.4171 60.6719 94.4136 67.9471 94.4136 67.9471L95.8017 64.8746L100.394 54.719C100.394 54.719 91.215 51.8221 85.1743 50.5328C84.3568 50.3572 83.638 50.253 83.0125 50.2255C79.1555 50.017 78.8208 52.4037 81.416 56.2278L81.4105 56.2223Z" fill="#CC9F1F"/>
<path d="M81.4105 56.2229C84.4171 60.6725 94.4136 67.9477 94.4136 67.9477L95.8017 64.8752C92.0763 60.5463 86.3209 53.9899 83.0125 50.2206C79.1555 50.0122 78.8208 52.3988 81.416 56.2229H81.4105Z" fill="#263238"/>
<path d="M92.6075 65.8894C93.3702 64.024 96.7609 56.491 97.6058 54.9108C97.6661 54.8011 97.7484 54.8121 97.6991 54.9328C95.5483 60.5785 93.5183 64.1228 92.6789 65.9169C92.6569 65.9608 92.5856 65.9388 92.6021 65.8894H92.6075Z" fill="#263238"/>
<path d="M118.63 54.539C123.508 53.897 129.538 52.8052 134.64 54.9724C135.644 55.3949 136.006 56.1465 136.006 56.1465C138.311 57.0792 138.563 58.4454 138.563 58.4454C140.445 59.9707 140.511 61.4081 140.511 61.4081C140.511 61.4081 143.205 62.5329 142.799 64.2721C142.349 66.2253 138.651 64.2721 135.957 64.4312C129.79 64.8098 121.127 67.0758 119.36 67.3665L118.625 54.5445L118.63 54.539Z" fill="#EB9481"/>
<path d="M129.214 60.2891C131.03 60.2122 132.813 60.0915 134.635 60.2616C136.632 60.4482 138.519 60.9639 140.45 61.4412C140.511 61.4577 140.538 61.3754 140.478 61.348C137.109 59.9324 132.791 59.5593 129.208 60.2068C129.121 60.2232 129.121 60.2945 129.208 60.2891H129.214Z" fill="#263238"/>
<path d="M128.446 56.5959C130.218 56.6178 133.335 56.6837 138.547 58.4997C138.563 58.5052 138.58 58.4778 138.563 58.4723C135.337 56.8428 132.029 56.2612 128.452 56.5136C128.342 56.5191 128.331 56.5959 128.452 56.5959H128.446Z" fill="#263238"/>
<path d="M128.069 54.6101C131.081 54.7637 132.963 55.2465 135.991 56.1573C136.008 56.1573 136.024 56.1354 136.002 56.1244C132.666 54.7253 131.3 54.5991 128.058 54.5059C127.948 54.5059 127.948 54.6046 128.069 54.6101Z" fill="#263238"/>
<path d="M128.555 65.3584C127.77 65.726 127.957 66.1375 129.46 66.4886C130.974 66.8453 137.185 66.9385 136.966 69.1057C136.752 71.2839 127.962 71.0041 125.51 70.2359C123.057 69.4733 119.359 67.361 119.359 67.361C121.082 67.0702 125.186 65.9674 128.555 65.3584Z" fill="#EB9481"/>
<path d="M87.8561 63.1539C87.8177 64.0921 87.7244 65.0468 87.5927 65.9905C87.6037 65.9575 87.6202 65.9246 87.6311 65.8917C87.8122 65.3979 87.9933 64.8932 88.2127 64.4158C88.2237 64.3884 88.2676 64.3994 88.2621 64.4268C88.1634 64.9425 87.9823 65.4638 87.7848 65.9521C87.6915 66.188 87.5927 66.4184 87.494 66.6489C87.4281 67.0713 87.3513 67.4883 87.2636 67.8998C87.099 68.6844 86.3583 72.0202 86.1937 72.5853C86.1608 72.706 86.0181 72.6786 86.0236 72.5469C86.062 71.9324 86.6875 68.4539 86.8137 67.6694C87.0551 66.1606 87.3897 64.6188 87.7903 63.1429C87.8012 63.11 87.8506 63.1265 87.8506 63.1594L87.8561 63.1539Z" fill="#263238"/>
<path d="M82.1402 88.0957C80.6753 88.8528 78.788 90.0214 70.2838 88.3426C69.7516 88.2328 69.2194 88.1066 68.6817 87.9475C60.7098 85.5499 51.1412 76.1734 50.6035 75.515C50.6035 75.515 63.2665 54.9788 79.4683 48.5211C81.4709 47.7256 84.7848 49.2618 86.6228 51.1766C87.2757 51.8624 88.7022 56.8991 88.1535 60.9811C87.6049 65.0576 83.6106 87.3495 82.1348 88.0957H82.1402Z" fill="#CC9F1F"/>
<path d="M81.0083 60.7939C81.0522 61.2329 81.0193 61.6663 80.9644 62.0943C80.8986 62.5222 80.8163 62.9447 80.6517 63.3562C80.6023 62.9172 80.6407 62.4838 80.6956 62.0559C80.7614 61.6279 80.8437 61.2054 81.0083 60.7939Z" fill="white"/>
<path d="M75.4849 74.7793C75.5288 75.2182 75.4958 75.6517 75.441 76.0796C75.3751 76.5076 75.2928 76.93 75.1282 77.3415C75.0789 76.9026 75.1173 76.4692 75.1721 76.0412C75.238 75.6133 75.3203 75.1908 75.4849 74.7793Z" fill="white"/>
<path d="M66.0982 64.2129C66.142 64.6518 66.1091 65.0853 66.0543 65.5132C65.9884 65.9412 65.9061 66.3636 65.7415 66.7751C65.6921 66.3362 65.7306 65.9028 65.7854 65.4748C65.8513 65.0468 65.9336 64.6244 66.0982 64.2129Z" fill="white"/>
<path d="M84.6255 74.0713C84.6694 74.5102 84.6365 74.9437 84.5816 75.3716C84.5158 75.7996 84.4335 76.222 84.2689 76.6335C84.2195 76.1946 84.2579 75.7612 84.3128 75.3332C84.3786 74.9052 84.4609 74.4828 84.6255 74.0713Z" fill="white"/>
<path d="M72.5703 62.3953C73.0092 62.3514 73.4427 62.3844 73.8706 62.4392C74.2986 62.5051 74.721 62.5874 75.1325 62.752C74.6936 62.8013 74.2602 62.7629 73.8322 62.7081C73.4043 62.6422 72.9818 62.5599 72.5703 62.3953Z" fill="white"/>
<path d="M61.918 72.5018C62.3569 72.4579 62.7903 72.4908 63.2183 72.5457C63.6462 72.6115 64.0687 72.6938 64.4802 72.8584C64.0413 72.9078 63.6078 72.8694 63.1799 72.8145C62.7519 72.7487 62.3295 72.6664 61.918 72.5018Z" fill="white"/>
<path d="M74.4492 83.4364C74.8881 83.3925 75.3216 83.4254 75.7495 83.4802C76.1775 83.5461 76.5999 83.6284 77.0114 83.793C76.5725 83.8424 76.1391 83.804 75.7111 83.7491C75.2832 83.6832 74.8607 83.601 74.4492 83.4364Z" fill="white"/>
<path d="M58.6289 79.4657C59.0678 79.4218 59.5013 79.4547 59.9292 79.5095C60.3572 79.5754 60.7796 79.6577 61.1911 79.8223C60.7522 79.8717 60.3188 79.8333 59.8908 79.7784C59.4629 79.7125 59.0404 79.6302 58.6289 79.4657Z" fill="white"/>
<path d="M80.9277 50.9676C81.3667 50.9237 81.8001 50.9566 82.2281 51.0115C82.656 51.0773 83.0785 51.1596 83.49 51.3242C83.051 51.3736 82.6176 51.3352 82.1896 51.2803C81.7617 51.2145 81.3392 51.1322 80.9277 50.9676Z" fill="white"/>
<path d="M77.8286 54.4678C77.5488 54.8134 77.2196 55.0932 76.8794 55.3566C76.5337 55.6145 76.1771 55.8504 75.7656 56.026C76.0454 55.6803 76.3746 55.4005 76.7148 55.1371C77.0605 54.8793 77.4226 54.6433 77.8286 54.4678Z" fill="white"/>
<path d="M60.934 64.4092C60.6542 64.7548 60.325 65.0346 59.9849 65.298C59.6392 65.5559 59.2826 65.7918 58.8711 65.9674C59.1509 65.6217 59.4801 65.3419 59.8203 65.0785C60.1659 64.8262 60.528 64.5847 60.934 64.4092Z" fill="white"/>
<path d="M82.0317 68.9033C81.7519 69.249 81.4227 69.5288 81.0825 69.7921C80.7369 70.05 80.3802 70.2859 79.9688 70.4615C80.2486 70.1158 80.5778 69.836 80.9179 69.5727C81.2636 69.3203 81.6257 69.0789 82.0317 68.9033Z" fill="white"/>
<path d="M68.3676 77.5068C68.0878 77.8525 67.7586 78.1323 67.4185 78.3957C67.0728 78.6535 66.7162 78.8894 66.3047 79.065C66.5845 78.7194 66.9137 78.4396 67.2539 78.1762C67.5995 77.9183 67.9616 77.6824 68.3676 77.5068Z" fill="white"/>
<path d="M87.2641 57.1455C86.9843 57.4912 86.6551 57.771 86.3149 58.0343C85.9693 58.2922 85.6127 58.5281 85.2012 58.7037C85.481 58.358 85.8102 58.0782 86.1503 57.8149C86.496 57.5625 86.8581 57.3211 87.2641 57.1455Z" fill="white"/>
<path d="M86.9722 67.1206C86.6266 66.8407 86.3468 66.5116 86.0834 66.1714C85.8256 65.8257 85.5896 65.4691 85.4141 65.0576C85.7597 65.3374 86.0395 65.6666 86.3029 66.0068C86.5553 66.3524 86.7967 66.7146 86.9722 67.1206Z" fill="white"/>
<path d="M56.5289 73.9829C56.1832 73.7031 55.9034 73.3739 55.6401 73.0337C55.3822 72.688 55.1463 72.3314 54.9707 71.9199C55.3164 72.1997 55.5962 72.5289 55.8595 72.8691C56.1119 73.2147 56.3533 73.5769 56.5289 73.9829Z" fill="white"/>
<path d="M83.2769 82.1586C82.9313 81.8788 82.6515 81.5496 82.3881 81.2095C82.1302 80.8638 81.8943 80.5072 81.7188 80.0957C82.0644 80.3755 82.3442 80.7047 82.6076 81.0449C82.86 81.3905 83.1014 81.7526 83.2769 82.1586Z" fill="white"/>
<path d="M69.8707 58.8686C69.525 58.5888 69.2452 58.2596 68.9819 57.9194C68.724 57.5738 68.4881 57.2172 68.3125 56.8057C68.6582 57.0855 68.938 57.4147 69.2013 57.7548C69.4537 58.1005 69.6951 58.4626 69.8707 58.8686Z" fill="white"/>
<path d="M70.109 86.811C69.7633 86.5312 69.4835 86.202 69.2201 85.8618C68.9623 85.5162 68.7264 85.1595 68.5508 84.748C68.8964 85.0279 69.1763 85.3571 69.4396 85.6972C69.692 86.0429 69.9334 86.405 70.109 86.811Z" fill="white"/>
<path d="M72.3863 70.3227C72.0407 70.0429 71.7608 69.7137 71.4975 69.3735C71.2396 69.0279 71.0037 68.6713 70.8281 68.2598C71.1738 68.5396 71.4536 68.8688 71.7169 69.2089C71.9693 69.5546 72.2107 69.9167 72.3863 70.3227Z" fill="white"/>
<path d="M83.6484 56.6388C81.5854 56.2548 79.6377 51.9807 79.3908 49.1058C79.3744 48.9083 80.3565 47.3446 81.4593 45.3859C82.1231 44.1953 82.8364 42.8511 83.396 41.5837C83.5112 41.3204 84.1861 42.1927 84.1861 42.1927L85.6565 43.3175L90.5121 47.0428C90.5121 47.0428 88.5479 49.3637 87.5823 51.5857C87.5054 51.7723 87.4451 51.9533 87.4067 52.1344C87.4012 52.1618 87.3957 52.1892 87.3793 52.2276C87.1049 53.292 85.629 57.0174 83.6374 56.6443L83.6484 56.6388Z" fill="#EB9481"/>
<path d="M87.4172 52.1339C87.4172 52.1339 87.4062 52.1888 87.3898 52.2272C87.1264 52.1504 86.8466 52.0461 86.5503 51.9089C81.2339 49.4181 83.5766 42.291 83.5766 42.291L85.656 43.3225L90.5116 47.0479C90.5116 47.0479 88.5475 49.3687 87.5818 51.5907C87.505 51.7773 87.4447 51.9583 87.4063 52.1394L87.4172 52.1339Z" fill="#263238"/>
<path d="M96.0977 31.8633C96.0977 31.8633 98.5282 33.405 98.5447 36.1483C98.5611 38.8916 97.4693 41.5745 97.2169 41.6678C96.9645 41.761 96.1031 31.8633 96.1031 31.8633H96.0977Z" fill="#263238"/>
<path d="M84.036 33.2831C82.5766 36.169 82.6479 45.2438 84.4749 47.5811C87.1195 50.9717 92.211 52.1404 95.289 48.7881C98.2682 45.5401 97.9664 33.711 95.8541 31.5054C92.7487 28.2574 86.1977 29.0255 84.0415 33.2831H84.036Z" fill="#EB9481"/>
<path d="M91.7872 40.5596C91.7872 40.5596 91.7378 40.5925 91.7433 40.6144C91.7762 41.2344 91.7104 41.9477 91.1563 42.1671C91.1398 42.1726 91.1398 42.2055 91.1618 42.2C91.8421 42.0903 91.9189 41.1411 91.7872 40.5596Z" fill="#263238"/>
<path d="M91.2203 39.922C90.2218 39.8671 90.1944 41.8697 91.1161 41.9136C92.0269 41.963 92.0543 39.9659 91.2203 39.922Z" fill="#263238"/>
<path d="M95.1693 40.5381C95.1693 40.5381 95.2187 40.5655 95.2187 40.593C95.1913 41.2129 95.2571 41.9262 95.8168 42.1402C95.8332 42.1456 95.8332 42.1786 95.8113 42.1731C95.1309 42.0688 95.0432 41.1197 95.1748 40.5381H95.1693Z" fill="#263238"/>
<path d="M95.734 39.8959C96.7326 39.8355 96.7765 41.8326 95.8548 41.8875C94.944 41.9424 94.9001 39.9453 95.734 39.8959Z" fill="#263238"/>
<path d="M90.5933 38.4021C90.8676 38.3363 91.1091 38.232 91.3724 38.1443C91.6687 38.04 91.9156 37.9906 92.1131 37.7273C92.2173 37.5846 92.1789 37.3323 92.0527 37.217C91.7565 36.9482 91.3614 36.9811 90.9993 37.0908C90.6043 37.2115 90.33 37.4036 90.0995 37.7437C89.8746 38.0729 90.2312 38.4899 90.5878 38.4076L90.5933 38.4021Z" fill="#263238"/>
<path d="M96.425 39.2898C96.1506 39.2405 95.9037 39.1472 95.6349 39.0704C95.3331 38.9826 95.0808 38.9442 94.8723 38.6918C94.7571 38.5546 94.7845 38.3023 94.9052 38.1761C95.185 37.8908 95.58 37.9072 95.9531 37.995C96.3536 38.0938 96.6335 38.2693 96.8858 38.5985C97.1272 38.9168 96.7981 39.3502 96.4305 39.2844L96.425 39.2898Z" fill="#263238"/>
<path d="M90.3748 46.4188C90.5229 46.5669 90.6656 46.7699 90.8905 46.7919C91.1045 46.8138 91.3569 46.7205 91.5599 46.6492C91.5818 46.6437 91.5983 46.6657 91.5873 46.6821C91.4227 46.9181 91.0826 47.0607 90.7973 47.0058C90.5174 46.951 90.3858 46.7096 90.3199 46.4517C90.309 46.4133 90.3583 46.4023 90.3803 46.4243L90.3748 46.4188Z" fill="#263238"/>
<path d="M93.9677 43.7749C93.9677 43.7749 93.9952 44.7022 93.9458 45.1301C93.9458 45.1685 92.7278 44.9326 91.422 45.2179C91.2245 45.2618 91.2464 45.1027 91.4713 44.9984C91.9267 44.7899 92.4973 44.5924 93.6166 44.7131C93.6605 44.5979 93.5508 43.2866 93.6166 43.2921C93.8525 43.2976 94.3024 43.5061 94.5713 43.6213C94.5713 41.69 94.264 39.7752 94.2914 37.8549C94.2914 37.7891 94.3957 37.7781 94.4067 37.8385C94.873 39.8246 94.9169 42.0467 94.9718 44.0383C94.9827 44.2852 94.1323 43.8682 93.9677 43.7749Z" fill="#263238"/>
<path d="M92.7337 44.7993C92.7337 44.7993 92.3003 45.8857 91.5816 46.1764C90.7531 46.5111 90.4678 45.7595 91.3127 45.0956C91.7571 44.7499 92.7337 44.7993 92.7337 44.7993Z" fill="#263238"/>
<path d="M91.8723 46.0059C91.779 46.0773 91.6857 46.1376 91.5815 46.176C90.8189 46.4833 90.5171 45.8743 91.1316 45.2598C91.5486 45.2927 92.0039 45.4463 91.8723 46.0059Z" fill="#FF99BA"/>
<path d="M83.6198 41.0523C84.6238 41.3596 85.776 38.342 86.1052 37.1843C86.3905 36.1638 86.7252 32.9213 86.7745 32.6963C86.8239 32.4769 91.1473 35.5658 93.6766 34.8251C96.2059 34.0844 97.8958 31.8185 97.9287 30.7596C97.9616 29.7007 94.8233 27.0122 92.1075 26.8751C89.3916 26.7379 85.7156 30.189 85.7156 30.189C85.7156 30.189 86.9666 28.6966 86.9227 28.5759C86.8788 28.4552 85.1231 29.1575 84.7994 30.4029C84.7994 30.4029 85.145 28.8338 85.0134 28.8063C84.8817 28.7789 83.5155 30.1231 83.8228 31.1381C83.8228 31.1381 82.2426 32.5043 82.1 34.0021C81.9519 35.4999 82.4402 40.6847 83.6198 41.0469V41.0523Z" fill="#263238"/>
<path d="M95.4715 34.2989C94.7034 34.6501 93.9298 35.0396 93.0849 35.1548C92.1686 35.2756 91.2139 35.0451 90.358 34.7159C89.4857 34.3812 88.6901 33.8929 87.9659 33.3004C87.3349 32.7792 86.7698 32.1537 86.095 31.6873C85.9249 31.5721 85.7329 31.8135 85.8316 31.9726C86.8576 33.5089 88.6737 34.7982 90.4184 35.3524C92.2564 35.9339 93.9901 35.5279 95.477 34.3209C95.488 34.3154 95.477 34.2935 95.466 34.2989H95.4715Z" fill="#263238"/>
<path d="M84.6684 40.7829C84.6684 40.7829 83.1102 37.6226 81.7056 38.1329C80.3011 38.6431 81.1679 43.0159 82.5999 43.8115C84.0319 44.6125 84.8001 43.3012 84.8001 43.3012L84.6684 40.7829Z" fill="#EB9481"/>
<path d="M81.9859 39.3776C81.9859 39.3776 81.953 39.405 81.9695 39.416C82.968 40.014 83.3795 41.0894 83.6154 42.1702C83.3576 41.7258 82.9625 41.446 82.3755 41.7423C82.3425 41.7587 82.3645 41.8081 82.3974 41.8026C82.8473 41.7752 83.1545 41.9014 83.3905 42.2964C83.5606 42.5762 83.6538 42.9109 83.7636 43.2181C83.7965 43.3224 83.9775 43.295 83.9611 43.1797V43.1523C84.1915 41.7971 83.4289 39.7342 81.9914 39.3721L81.9859 39.3776Z" fill="#263238"/>
<path d="M74.3805 54.8922C73.3052 61.1085 80.0207 82.0507 84.3386 85.9626C90.7634 91.7783 102.642 95.6025 106.949 96.8479C108.825 97.3911 114.015 84.1904 112.117 83.3181C108.052 81.4581 95.4215 77.5188 94.2309 76.5038C93.0403 75.4942 85.7816 65.0478 82.5555 59.0291C78.2266 50.9474 74.9182 51.7484 74.3751 54.8922H74.3805Z" fill="#EB9481"/>
<path d="M108.918 82.1598C108.918 82.1598 114.519 83.5863 118.141 84.6946C120.16 85.3091 123.528 86.6807 124.807 87.8109C126.716 89.5063 133.618 97.802 131.643 99.5193C129.854 101.072 124.829 93.1878 124.829 93.1878C124.829 93.1878 130.601 100.693 128.104 102.169C125.608 103.645 121.114 93.9833 121.114 93.9833C121.114 93.9833 126.875 101.829 124.055 102.943C121.926 103.782 117.361 95.2617 117.361 95.2617C117.361 95.2617 122.266 102.038 120.116 102.998C117.74 104.057 113.033 96.4578 113.033 96.4578C107.151 97.9775 103.733 96.2932 101.439 94.8063C100.885 94.4442 108.923 82.1543 108.923 82.1543L108.918 82.1598Z" fill="#EB9481"/>
<path d="M122.996 90.4651C123.704 91.321 124.428 92.1879 125.065 93.1042C125.696 94.0204 126.294 94.9641 126.837 95.9352C128.17 98.3219 128.631 100.023 128.593 99.9185C127.649 97.5044 125.438 94.185 124.807 93.2688C124.176 92.3525 123.594 91.4033 122.963 90.4871C122.947 90.4651 122.98 90.4432 123.002 90.4651H122.996Z" fill="#263238"/>
<path d="M119.644 92.6816C120.862 93.6473 123.413 97.241 124.401 99.6441C124.444 99.7428 124.39 99.7373 124.329 99.6441C123.556 98.4535 120.445 93.8448 119.616 92.6981C119.605 92.6816 119.627 92.6652 119.644 92.6816Z" fill="#263238"/>
<path d="M116.424 94.0691C117.834 95.4627 119.013 97.3665 119.946 99.5666C119.99 99.6654 119.908 99.6489 119.853 99.5556C118.717 97.7067 117.839 96.2472 116.369 94.113C116.347 94.08 116.396 94.0307 116.429 94.0636L116.424 94.0691Z" fill="#263238"/>
<path d="M80.487 55.351C75.4777 48.2678 72.4821 50.8904 73.4861 58.5826C74.4243 65.7754 76.9481 74.3454 76.9481 74.3454L89.5892 68.2224C89.5892 68.2224 83.6911 59.8884 80.487 55.351Z" fill="#CC9F1F"/>
<path d="M83.5468 58.1348C83.7279 58.5408 83.8211 58.9632 83.9034 59.3857C83.9748 59.8082 84.0241 60.2416 83.9912 60.6805C83.8102 60.2745 83.7114 59.8575 83.6346 59.4296C83.5687 59.0071 83.5194 58.5737 83.5468 58.1348Z" fill="white"/>
<path d="M76.0703 62.446C76.4763 62.265 76.8933 62.1717 77.3212 62.0894C77.7437 62.0181 78.1772 61.9687 78.6161 62.0016C78.2101 62.1827 77.7931 62.2814 77.3651 62.3583C76.9427 62.4241 76.5092 62.4735 76.0703 62.446Z" fill="white"/>
<path d="M76.3931 51.4238C76.234 51.8353 76.0036 52.2029 75.7622 52.5595C75.5098 52.9107 75.2409 53.2454 74.9062 53.5362C75.0654 53.1247 75.2958 52.7571 75.5372 52.4004C75.7896 52.0493 76.0584 51.7146 76.3931 51.4238Z" fill="white"/>
<path d="M87.0591 65.7549C86.9 66.1664 86.6696 66.534 86.4282 66.8906C86.1758 67.2417 85.9069 67.5764 85.5723 67.8672C85.7314 67.4557 85.9618 67.0881 86.2032 66.7315C86.4556 66.3803 86.7244 66.0457 87.0591 65.7549Z" fill="white"/>
<path d="M78.3135 70.0503C77.902 69.8912 77.5344 69.6608 77.1778 69.4194C76.8266 69.167 76.492 68.8982 76.2012 68.5635C76.6127 68.7226 76.9803 68.953 77.3369 69.1944C77.688 69.4468 78.0227 69.7157 78.3135 70.0503Z" fill="white"/>
<path d="M82.1667 57.4805C82.8415 58.4077 83.5383 59.313 84.2296 60.2237C84.054 59.7629 83.9004 59.302 83.7633 58.8247C83.7578 58.8027 83.7907 58.7918 83.7962 58.8137C83.9388 59.1758 84.0925 59.5379 84.2296 59.9C84.2955 60.0756 84.3613 60.2512 84.4271 60.4268C84.4436 60.4652 84.4546 60.5036 84.471 60.542C85.0142 61.2497 85.5519 61.963 86.0676 62.6872C86.6876 63.5486 87.2856 64.4319 87.8891 65.3098C88.5091 66.2151 89.1017 67.2795 89.7546 68.1628C89.8095 68.2396 88.6353 68.7114 88.5256 68.7773C88.4159 68.8376 88.339 68.7334 88.4543 68.695C88.564 68.6621 89.4967 68.0915 89.5077 68.0805C88.9042 67.1972 88.2074 66.3797 87.5764 65.5128C86.951 64.6514 86.32 63.7955 85.711 62.9176C84.4765 61.14 83.3408 59.2965 82.1173 57.5134C82.1008 57.4914 82.1392 57.4695 82.1557 57.4914L82.1667 57.4805Z" fill="#263238"/>
<path d="M73.7998 63.6687C73.9919 64.0417 74.2004 64.4148 74.3704 64.7989C74.4418 64.958 74.5076 65.1171 74.5789 65.2762C74.2881 63.9046 74.0083 62.5384 73.7285 61.1668C73.7285 61.1503 73.7505 61.1448 73.756 61.1613C74.3375 63.3834 74.9191 65.5999 75.4568 67.833C75.9725 69.9617 76.587 72.1125 76.8833 74.2852C77.0589 74.2248 78.041 73.8188 78.0684 73.8846C78.0958 73.9505 76.7845 74.5705 76.7626 74.5156C76.0493 72.3978 75.6049 69.9837 75.1166 67.8055C74.9795 67.191 74.8533 66.5765 74.7216 65.9566C74.5789 65.5835 74.4089 65.2268 74.2388 64.8702C74.0577 64.4862 73.9151 64.0911 73.7614 63.6961C73.7505 63.6742 73.7889 63.6577 73.7998 63.6796V63.6687Z" fill="#263238"/>
<path d="M77.151 72.2272C78.9067 71.2341 86.2422 67.4374 87.8882 66.7242C88.0034 66.6748 88.0638 66.7351 87.9485 66.801C82.7583 69.8954 78.967 71.4097 77.1949 72.2985C77.151 72.3204 77.1071 72.2601 77.151 72.2327V72.2272Z" fill="#263238"/>
<path d="M278.2 216.466H111.035L135.203 79.3848H302.368L278.2 216.466Z" fill="#FFC727"/>
<path d="M192.417 65.1855H137.71L135.203 79.3848H193.75L192.417 65.1855Z" fill="#FFC727"/>
<g opacity="0.1">
<path d="M278.2 216.466H111.035L135.203 79.3848H302.368L278.2 216.466Z" fill="black"/>
<path d="M192.417 65.1855H137.71L135.203 79.3848H193.75L192.417 65.1855Z" fill="black"/>
</g>
<path d="M131.806 70.9803C131.592 70.1848 131.542 69.3892 131.531 68.5937C131.537 67.7981 131.586 67.0026 131.806 66.207C132.025 67.0026 132.074 67.7981 132.08 68.5937C132.069 69.3892 132.02 70.1848 131.806 70.9803Z" fill="#263238"/>
<path d="M126.945 72.3849C126.358 71.8033 125.919 71.1395 125.513 70.4536C125.124 69.7623 124.767 69.0491 124.559 68.248C125.146 68.8296 125.585 69.4935 125.991 70.1793C126.38 70.8706 126.737 71.5839 126.945 72.3849Z" fill="#263238"/>
<path d="M123.434 76.0341C122.638 75.8256 121.925 75.469 121.228 75.0795C120.542 74.6734 119.878 74.2345 119.297 73.6475C120.092 73.856 120.806 74.2126 121.502 74.6021C122.188 75.0081 122.852 75.4471 123.434 76.0341Z" fill="#263238"/>
<path d="M122.221 80.9452C121.425 81.1592 120.629 81.2086 119.834 81.2196C119.038 81.2141 118.243 81.1647 117.447 80.9452C118.243 80.7258 119.038 80.6764 119.834 80.6709C120.629 80.6819 121.425 80.7313 122.221 80.9452Z" fill="#263238"/>
<path d="M123.625 85.8047C123.044 86.3917 122.38 86.8307 121.694 87.2367C121.003 87.6262 120.289 87.9829 119.488 88.1913C120.07 87.6043 120.734 87.1654 121.42 86.7594C122.111 86.3698 122.824 86.0132 123.625 85.8047Z" fill="#263238"/>
<path d="M127.273 89.3174C127.065 90.1129 126.708 90.8262 126.319 91.523C125.913 92.2088 125.474 92.8727 124.887 93.4542C125.095 92.6587 125.452 91.9454 125.841 91.2486C126.247 90.5628 126.686 89.899 127.273 89.3174Z" fill="#263238"/>
<path d="M132.19 90.5283C132.404 91.3239 132.454 92.1194 132.465 92.915C132.459 93.7105 132.41 94.5061 132.19 95.3016C131.971 94.5061 131.922 93.7105 131.916 92.915C131.927 92.1194 131.976 91.3239 132.19 90.5283Z" fill="#263238"/>
<path d="M137.051 89.124C137.638 89.7056 138.077 90.3695 138.483 91.0553C138.872 91.7466 139.229 92.4598 139.437 93.2609C138.85 92.6793 138.411 92.0154 138.005 91.3296C137.616 90.6383 137.259 89.9251 137.051 89.124Z" fill="#263238"/>
<path d="M140.557 85.4746C141.352 85.6831 142.065 86.0397 142.762 86.4293C143.448 86.8353 144.112 87.2742 144.694 87.8613C143.898 87.6528 143.185 87.2961 142.488 86.9066C141.802 86.5006 141.138 86.0617 140.557 85.4746Z" fill="#263238"/>
<path d="M141.77 80.5595C142.565 80.3455 143.361 80.2961 144.156 80.2852C144.952 80.2906 145.747 80.34 146.543 80.5595C145.747 80.7789 144.952 80.8283 144.156 80.8338C143.361 80.8228 142.565 80.7735 141.77 80.5595Z" fill="#263238"/>
<path d="M140.365 75.6992C140.947 75.1121 141.611 74.6732 142.296 74.2672C142.988 73.8776 143.701 73.521 144.502 73.3125C143.921 73.8996 143.257 74.3385 142.571 74.7445C141.88 75.134 141.166 75.4907 140.365 75.6992Z" fill="#263238"/>
<path d="M136.715 72.1925C136.923 71.397 137.28 70.6837 137.67 69.9869C138.076 69.3011 138.514 68.6372 139.101 68.0557C138.893 68.8512 138.536 69.5645 138.147 70.2613C137.741 70.9471 137.302 71.611 136.715 72.1925Z" fill="#263238"/>
<path d="M277.951 216.468H110.425L86.6406 84.3623H254.167L277.951 216.468Z" fill="#FFC727"/>
<path d="M134.446 31.7223C133.661 39.2334 126.929 44.687 119.423 43.9024C116.389 43.5842 113.69 42.2949 111.6 40.3746L104.758 41.3786L108.181 35.4641C107.353 33.4451 107.002 31.1956 107.243 28.8802C108.028 21.3691 114.76 15.9155 122.265 16.7001C129.777 17.4847 135.23 24.2167 134.446 31.7223Z" fill="white"/>
<path d="M134.446 31.7216C134.16 34.2179 133.249 36.6649 131.686 38.6511C131.329 39.1723 130.863 39.6057 130.446 40.0776C129.968 40.4891 129.53 40.9445 129.003 41.3011C128.004 42.0692 126.88 42.6727 125.705 43.1391C124.537 43.6329 123.28 43.8688 122.024 44.0169C121.393 44.0499 120.757 44.1102 120.126 44.0553C119.489 44.0389 118.858 43.973 118.233 43.8578C115.731 43.4024 113.361 42.2338 111.468 40.5165L111.627 40.5659L104.791 41.6138L104.297 41.6906L104.549 41.2517L107.951 35.3262L107.934 35.5621C106.278 31.6612 106.651 27.0086 108.779 23.3765C109.838 21.555 111.32 19.9858 113.064 18.8172C114.809 17.6431 116.828 16.9079 118.902 16.628C120.976 16.3537 123.105 16.5403 125.085 17.1986C127.061 17.8625 128.877 18.9818 130.358 20.4302C133.376 23.2997 134.895 27.6066 134.451 31.7216H134.446ZM134.446 31.7216C134.862 27.6012 133.315 23.3216 130.292 20.4906C128.794 19.075 126.978 17.9997 125.02 17.3797C123.055 16.7652 120.96 16.6171 118.935 16.9243C116.916 17.2316 114.957 17.9887 113.289 19.1573C111.621 20.3315 110.217 21.8622 109.196 23.6179C108.159 25.3736 107.622 27.3872 107.463 29.4062C107.336 31.4308 107.666 33.4827 108.423 35.3646L108.472 35.4853L108.406 35.5951L104.961 41.4986L104.714 41.1365L111.561 40.1763L111.654 40.1654L111.72 40.2312C113.531 41.932 115.819 43.1171 118.266 43.6054C118.875 43.7261 119.495 43.8084 120.12 43.8304C120.746 43.8962 121.366 43.8523 121.991 43.8304C123.231 43.7042 124.476 43.4957 125.645 43.0239C126.814 42.5849 127.949 42.0089 128.942 41.2462C129.469 40.9006 129.908 40.4507 130.385 40.0392C130.808 39.5728 131.269 39.1449 131.631 38.6291C133.2 36.6595 134.127 34.2234 134.429 31.727L134.446 31.7216Z" fill="#263238"/>
<path d="M114.162 36.6709C114.162 35.8534 114.727 35.2663 115.501 35.2663C116.318 35.2663 116.84 35.8534 116.84 36.6709C116.84 37.4884 116.318 38.0754 115.501 38.0754C114.683 38.0754 114.162 37.4609 114.162 36.6709ZM114.727 33.4283L114.409 22.543H116.587L116.269 33.4283H114.727Z" fill="#FFC727"/>
<path d="M119.375 36.6709C119.375 35.8534 119.94 35.2663 120.714 35.2663C121.531 35.2663 122.052 35.8534 122.052 36.6709C122.052 37.4884 121.531 38.0754 120.714 38.0754C119.896 38.0754 119.375 37.4609 119.375 36.6709ZM119.94 33.4283L119.622 22.543H121.8L121.482 33.4283H119.94Z" fill="#FFC727"/>
<path d="M124.592 36.6709C124.592 35.8534 125.157 35.2663 125.931 35.2663C126.748 35.2663 127.269 35.8534 127.269 36.6709C127.269 37.4884 126.748 38.0754 125.931 38.0754C125.113 38.0754 124.592 37.4609 124.592 36.6709ZM125.157 33.4283L124.839 22.543H127.017L126.699 33.4283H125.157Z" fill="#FFC727"/>
</g>
<defs>
<clipPath id="clip0_634_1557">
<rect width="334" height="240" fill="white"/>
</clipPath>
</defs>
</svg>
