<svg width="1200" height="720" viewBox="0 0 1200 720" fill="none" xmlns="http://www.w3.org/2000/svg">
<rect x="0.5" y="0.5" width="1199" height="719" rx="15.5" fill="white"/>
<rect x="0.5" y="0.5" width="1199" height="719" rx="15.5" fill="#3945E3" fill-opacity="0.08"/>
<rect x="0.5" y="0.5" width="1199" height="719" rx="15.5" stroke="#3945E3"/>
<path d="M310.333 248L301.173 220H307.893L315.853 244.8H312.493L320.813 220H326.813L334.813 244.8H331.573L339.733 220H345.933L336.773 248H329.813L322.733 226.24H324.573L317.293 248H310.333ZM362.776 226.16C364.483 226.16 366.003 226.507 367.336 227.2C368.696 227.867 369.763 228.907 370.536 230.32C371.31 231.707 371.696 233.493 371.696 235.68V248H365.456V236.64C365.456 234.907 365.07 233.627 364.296 232.8C363.55 231.973 362.483 231.56 361.096 231.56C360.11 231.56 359.216 231.773 358.416 232.2C357.643 232.6 357.03 233.227 356.576 234.08C356.15 234.933 355.936 236.027 355.936 237.36V248H349.696V218.32H355.936V232.44L354.536 230.64C355.31 229.2 356.416 228.093 357.856 227.32C359.296 226.547 360.936 226.16 362.776 226.16ZM388.189 248.32C385.736 248.32 383.576 247.84 381.709 246.88C379.869 245.92 378.442 244.613 377.429 242.96C376.416 241.28 375.909 239.373 375.909 237.24C375.909 235.08 376.402 233.173 377.389 231.52C378.402 229.84 379.776 228.533 381.509 227.6C383.242 226.64 385.202 226.16 387.389 226.16C389.496 226.16 391.389 226.613 393.069 227.52C394.776 228.4 396.122 229.68 397.109 231.36C398.096 233.013 398.589 235 398.589 237.32C398.589 237.56 398.576 237.84 398.549 238.16C398.522 238.453 398.496 238.733 398.469 239H380.989V235.36H395.189L392.789 236.44C392.789 235.32 392.562 234.347 392.109 233.52C391.656 232.693 391.029 232.053 390.229 231.6C389.429 231.12 388.496 230.88 387.429 230.88C386.362 230.88 385.416 231.12 384.589 231.6C383.789 232.053 383.162 232.707 382.709 233.56C382.256 234.387 382.029 235.373 382.029 236.52V237.48C382.029 238.653 382.282 239.693 382.789 240.6C383.322 241.48 384.056 242.16 384.989 242.64C385.949 243.093 387.069 243.32 388.349 243.32C389.496 243.32 390.496 243.147 391.349 242.8C392.229 242.453 393.029 241.933 393.749 241.24L397.069 244.84C396.082 245.96 394.842 246.827 393.349 247.44C391.856 248.027 390.136 248.32 388.189 248.32ZM402.743 248V226.48H408.703V232.56L407.863 230.8C408.503 229.28 409.53 228.133 410.943 227.36C412.357 226.56 414.077 226.16 416.103 226.16V231.92C415.837 231.893 415.597 231.88 415.383 231.88C415.17 231.853 414.943 231.84 414.703 231.84C412.997 231.84 411.61 232.333 410.543 233.32C409.503 234.28 408.983 235.787 408.983 237.84V248H402.743ZM430.337 248.32C427.884 248.32 425.724 247.84 423.857 246.88C422.017 245.92 420.591 244.613 419.577 242.96C418.564 241.28 418.057 239.373 418.057 237.24C418.057 235.08 418.551 233.173 419.537 231.52C420.551 229.84 421.924 228.533 423.657 227.6C425.391 226.64 427.351 226.16 429.537 226.16C431.644 226.16 433.537 226.613 435.217 227.52C436.924 228.4 438.271 229.68 439.257 231.36C440.244 233.013 440.737 235 440.737 237.32C440.737 237.56 440.724 237.84 440.697 238.16C440.671 238.453 440.644 238.733 440.617 239H423.137V235.36H437.337L434.937 236.44C434.937 235.32 434.711 234.347 434.257 233.52C433.804 232.693 433.177 232.053 432.377 231.6C431.577 231.12 430.644 230.88 429.577 230.88C428.511 230.88 427.564 231.12 426.737 231.6C425.937 232.053 425.311 232.707 424.857 233.56C424.404 234.387 424.177 235.373 424.177 236.52V237.48C424.177 238.653 424.431 239.693 424.937 240.6C425.471 241.48 426.204 242.16 427.137 242.64C428.097 243.093 429.217 243.32 430.497 243.32C431.644 243.32 432.644 243.147 433.497 242.8C434.377 242.453 435.177 241.933 435.897 241.24L439.217 244.84C438.231 245.96 436.991 246.827 435.497 247.44C434.004 248.027 432.284 248.32 430.337 248.32ZM461.14 248L453.38 226.48H459.26L465.7 245H462.9L469.62 226.48H474.9L481.42 245H478.62L485.26 226.48H490.78L482.98 248H476.94L471.22 232.12H473.06L467.14 248H461.14ZM503.335 248.32C501.042 248.32 499.002 247.84 497.215 246.88C495.455 245.92 494.055 244.613 493.015 242.96C492.002 241.28 491.495 239.373 491.495 237.24C491.495 235.08 492.002 233.173 493.015 231.52C494.055 229.84 495.455 228.533 497.215 227.6C499.002 226.64 501.042 226.16 503.335 226.16C505.602 226.16 507.628 226.64 509.415 227.6C511.202 228.533 512.602 229.827 513.615 231.48C514.628 233.133 515.135 235.053 515.135 237.24C515.135 239.373 514.628 241.28 513.615 242.96C512.602 244.613 511.202 245.92 509.415 246.88C507.628 247.84 505.602 248.32 503.335 248.32ZM503.335 243.2C504.375 243.2 505.308 242.96 506.135 242.48C506.962 242 507.615 241.32 508.095 240.44C508.575 239.533 508.815 238.467 508.815 237.24C508.815 235.987 508.575 234.92 508.095 234.04C507.615 233.16 506.962 232.48 506.135 232C505.308 231.52 504.375 231.28 503.335 231.28C502.295 231.28 501.362 231.52 500.535 232C499.708 232.48 499.042 233.16 498.535 234.04C498.055 234.92 497.815 235.987 497.815 237.24C497.815 238.467 498.055 239.533 498.535 240.44C499.042 241.32 499.708 242 500.535 242.48C501.362 242.96 502.295 243.2 503.335 243.2ZM528.386 248.32C526.599 248.32 524.999 247.973 523.586 247.28C522.199 246.587 521.119 245.533 520.346 244.12C519.572 242.68 519.186 240.853 519.186 238.64V226.48H525.426V237.72C525.426 239.507 525.799 240.827 526.546 241.68C527.319 242.507 528.399 242.92 529.786 242.92C530.746 242.92 531.599 242.72 532.346 242.32C533.092 241.893 533.679 241.253 534.106 240.4C534.532 239.52 534.746 238.427 534.746 237.12V226.48H540.986V248H535.066V242.08L536.146 243.8C535.426 245.293 534.359 246.427 532.946 247.2C531.559 247.947 530.039 248.32 528.386 248.32ZM546.767 248V218.32H553.007V248H546.767ZM568.038 248.32C566.011 248.32 564.185 247.867 562.558 246.96C560.931 246.027 559.638 244.733 558.678 243.08C557.745 241.427 557.278 239.48 557.278 237.24C557.278 234.973 557.745 233.013 558.678 231.36C559.638 229.707 560.931 228.427 562.558 227.52C564.185 226.613 566.011 226.16 568.038 226.16C569.851 226.16 571.438 226.56 572.798 227.36C574.158 228.16 575.211 229.373 575.958 231C576.705 232.627 577.078 234.707 577.078 237.24C577.078 239.747 576.718 241.827 575.998 243.48C575.278 245.107 574.238 246.32 572.878 247.12C571.545 247.92 569.931 248.32 568.038 248.32ZM569.118 243.2C570.131 243.2 571.051 242.96 571.878 242.48C572.705 242 573.358 241.32 573.838 240.44C574.345 239.533 574.598 238.467 574.598 237.24C574.598 235.987 574.345 234.92 573.838 234.04C573.358 233.16 572.705 232.48 571.878 232C571.051 231.52 570.131 231.28 569.118 231.28C568.078 231.28 567.145 231.52 566.318 232C565.491 232.48 564.825 233.16 564.318 234.04C563.838 234.92 563.598 235.987 563.598 237.24C563.598 238.467 563.838 239.533 564.318 240.44C564.825 241.32 565.491 242 566.318 242.48C567.145 242.96 568.078 243.2 569.118 243.2ZM574.758 248V243.6L574.878 237.2L574.478 230.84V218.32H580.718V248H574.758ZM600.541 256.08C599.421 256.08 598.315 255.907 597.221 255.56C596.128 255.213 595.235 254.733 594.541 254.12L596.821 249.68C597.301 250.107 597.848 250.44 598.461 250.68C599.101 250.92 599.728 251.04 600.341 251.04C601.221 251.04 601.915 250.827 602.421 250.4C602.955 250 603.435 249.32 603.861 248.36L604.981 245.72L605.461 245.04L613.181 226.48H619.181L609.461 249.32C608.768 251.053 607.968 252.413 607.061 253.4C606.181 254.387 605.195 255.08 604.101 255.48C603.035 255.88 601.848 256.08 600.541 256.08ZM604.221 248.84L594.621 226.48H601.061L608.501 244.48L604.221 248.84ZM631.382 248.32C629.088 248.32 627.048 247.84 625.262 246.88C623.502 245.92 622.102 244.613 621.062 242.96C620.048 241.28 619.542 239.373 619.542 237.24C619.542 235.08 620.048 233.173 621.062 231.52C622.102 229.84 623.502 228.533 625.262 227.6C627.048 226.64 629.088 226.16 631.382 226.16C633.648 226.16 635.675 226.64 637.462 227.6C639.248 228.533 640.648 229.827 641.662 231.48C642.675 233.133 643.182 235.053 643.182 237.24C643.182 239.373 642.675 241.28 641.662 242.96C640.648 244.613 639.248 245.92 637.462 246.88C635.675 247.84 633.648 248.32 631.382 248.32ZM631.382 243.2C632.422 243.2 633.355 242.96 634.182 242.48C635.008 242 635.662 241.32 636.142 240.44C636.622 239.533 636.862 238.467 636.862 237.24C636.862 235.987 636.622 234.92 636.142 234.04C635.662 233.16 635.008 232.48 634.182 232C633.355 231.52 632.422 231.28 631.382 231.28C630.342 231.28 629.408 231.52 628.582 232C627.755 232.48 627.088 233.16 626.582 234.04C626.102 234.92 625.862 235.987 625.862 237.24C625.862 238.467 626.102 239.533 626.582 240.44C627.088 241.32 627.755 242 628.582 242.48C629.408 242.96 630.342 243.2 631.382 243.2ZM656.433 248.32C654.646 248.32 653.046 247.973 651.633 247.28C650.246 246.587 649.166 245.533 648.393 244.12C647.619 242.68 647.233 240.853 647.233 238.64V226.48H653.473V237.72C653.473 239.507 653.846 240.827 654.593 241.68C655.366 242.507 656.446 242.92 657.833 242.92C658.793 242.92 659.646 242.72 660.393 242.32C661.139 241.893 661.726 241.253 662.153 240.4C662.579 239.52 662.793 238.427 662.793 237.12V226.48H669.033V248H663.113V242.08L664.193 243.8C663.473 245.293 662.406 246.427 660.993 247.2C659.606 247.947 658.086 248.32 656.433 248.32ZM686.142 248V218.32H692.382V248H686.142ZM698.173 248V226.48H704.413V248H698.173ZM701.293 223.48C700.146 223.48 699.213 223.147 698.493 222.48C697.773 221.813 697.413 220.987 697.413 220C697.413 219.013 697.773 218.187 698.493 217.52C699.213 216.853 700.146 216.52 701.293 216.52C702.44 216.52 703.373 216.84 704.093 217.48C704.813 218.093 705.173 218.893 705.173 219.88C705.173 220.92 704.813 221.787 704.093 222.48C703.4 223.147 702.466 223.48 701.293 223.48ZM715.364 243.6L715.524 236L725.564 226.48H733.004L723.364 236.28L720.124 238.92L715.364 243.6ZM710.204 248V218.32H716.444V248H710.204ZM726.244 248L718.964 238.96L722.884 234.12L733.804 248H726.244ZM746.392 248.32C743.939 248.32 741.779 247.84 739.912 246.88C738.072 245.92 736.645 244.613 735.632 242.96C734.619 241.28 734.112 239.373 734.112 237.24C734.112 235.08 734.605 233.173 735.592 231.52C736.605 229.84 737.979 228.533 739.712 227.6C741.445 226.64 743.405 226.16 745.592 226.16C747.699 226.16 749.592 226.613 751.272 227.52C752.979 228.4 754.325 229.68 755.312 231.36C756.299 233.013 756.792 235 756.792 237.32C756.792 237.56 756.779 237.84 756.752 238.16C756.725 238.453 756.699 238.733 756.672 239H739.192V235.36H753.392L750.992 236.44C750.992 235.32 750.765 234.347 750.312 233.52C749.859 232.693 749.232 232.053 748.432 231.6C747.632 231.12 746.699 230.88 745.632 230.88C744.565 230.88 743.619 231.12 742.792 231.6C741.992 232.053 741.365 232.707 740.912 233.56C740.459 234.387 740.232 235.373 740.232 236.52V237.48C740.232 238.653 740.485 239.693 740.992 240.6C741.525 241.48 742.259 242.16 743.192 242.64C744.152 243.093 745.272 243.32 746.552 243.32C747.699 243.32 748.699 243.147 749.552 242.8C750.432 242.453 751.232 241.933 751.952 241.24L755.272 244.84C754.285 245.96 753.045 246.827 751.552 247.44C750.059 248.027 748.339 248.32 746.392 248.32ZM781.075 248.32C778.541 248.32 776.568 247.68 775.155 246.4C773.741 245.093 773.035 243.16 773.035 240.6V221.72H779.275V240.52C779.275 241.427 779.515 242.133 779.995 242.64C780.475 243.12 781.128 243.36 781.955 243.36C782.941 243.36 783.781 243.093 784.475 242.56L786.155 246.96C785.515 247.413 784.741 247.76 783.835 248C782.955 248.213 782.035 248.32 781.075 248.32ZM769.715 231.76V226.96H784.635V231.76H769.715ZM799.233 248.32C796.94 248.32 794.9 247.84 793.113 246.88C791.353 245.92 789.953 244.613 788.913 242.96C787.9 241.28 787.393 239.373 787.393 237.24C787.393 235.08 787.9 233.173 788.913 231.52C789.953 229.84 791.353 228.533 793.113 227.6C794.9 226.64 796.94 226.16 799.233 226.16C801.5 226.16 803.527 226.64 805.313 227.6C807.1 228.533 808.5 229.827 809.513 231.48C810.527 233.133 811.033 235.053 811.033 237.24C811.033 239.373 810.527 241.28 809.513 242.96C808.5 244.613 807.1 245.92 805.313 246.88C803.527 247.84 801.5 248.32 799.233 248.32ZM799.233 243.2C800.273 243.2 801.207 242.96 802.033 242.48C802.86 242 803.513 241.32 803.993 240.44C804.473 239.533 804.713 238.467 804.713 237.24C804.713 235.987 804.473 234.92 803.993 234.04C803.513 233.16 802.86 232.48 802.033 232C801.207 231.52 800.273 231.28 799.233 231.28C798.193 231.28 797.26 231.52 796.433 232C795.607 232.48 794.94 233.16 794.433 234.04C793.953 234.92 793.713 235.987 793.713 237.24C793.713 238.467 793.953 239.533 794.433 240.44C794.94 241.32 795.607 242 796.433 242.48C797.26 242.96 798.193 243.2 799.233 243.2ZM836.652 256.08C834.626 256.08 832.666 255.827 830.772 255.32C828.906 254.84 827.346 254.107 826.092 253.12L828.572 248.64C829.479 249.387 830.626 249.973 832.012 250.4C833.426 250.853 834.812 251.08 836.172 251.08C838.386 251.08 839.986 250.587 840.972 249.6C841.986 248.613 842.492 247.147 842.492 245.2V241.96L842.892 236.56L842.812 231.12V226.48H848.732V244.4C848.732 248.4 847.692 251.347 845.612 253.24C843.532 255.133 840.546 256.08 836.652 256.08ZM835.692 246.96C833.692 246.96 831.879 246.533 830.252 245.68C828.652 244.8 827.359 243.587 826.372 242.04C825.412 240.467 824.932 238.64 824.932 236.56C824.932 234.453 825.412 232.627 826.372 231.08C827.359 229.507 828.652 228.293 830.252 227.44C831.879 226.587 833.692 226.16 835.692 226.16C837.506 226.16 839.106 226.533 840.492 227.28C841.879 228 842.959 229.133 843.732 230.68C844.506 232.2 844.892 234.16 844.892 236.56C844.892 238.933 844.506 240.893 843.732 242.44C842.959 243.96 841.879 245.093 840.492 245.84C839.106 246.587 837.506 246.96 835.692 246.96ZM836.932 241.84C838.026 241.84 838.999 241.627 839.852 241.2C840.706 240.747 841.372 240.12 841.852 239.32C842.332 238.52 842.572 237.6 842.572 236.56C842.572 235.493 842.332 234.573 841.852 233.8C841.372 233 840.706 232.387 839.852 231.96C838.999 231.507 838.026 231.28 836.932 231.28C835.839 231.28 834.866 231.507 834.012 231.96C833.159 232.387 832.479 233 831.972 233.8C831.492 234.573 831.252 235.493 831.252 236.56C831.252 237.6 831.492 238.52 831.972 239.32C832.479 240.12 833.159 240.747 834.012 241.2C834.866 241.627 835.839 241.84 836.932 241.84ZM864.78 248.32C862.487 248.32 860.447 247.84 858.66 246.88C856.9 245.92 855.5 244.613 854.46 242.96C853.447 241.28 852.94 239.373 852.94 237.24C852.94 235.08 853.447 233.173 854.46 231.52C855.5 229.84 856.9 228.533 858.66 227.6C860.447 226.64 862.487 226.16 864.78 226.16C867.047 226.16 869.073 226.64 870.86 227.6C872.647 228.533 874.047 229.827 875.06 231.48C876.073 233.133 876.58 235.053 876.58 237.24C876.58 239.373 876.073 241.28 875.06 242.96C874.047 244.613 872.647 245.92 870.86 246.88C869.073 247.84 867.047 248.32 864.78 248.32ZM864.78 243.2C865.82 243.2 866.753 242.96 867.58 242.48C868.407 242 869.06 241.32 869.54 240.44C870.02 239.533 870.26 238.467 870.26 237.24C870.26 235.987 870.02 234.92 869.54 234.04C869.06 233.16 868.407 232.48 867.58 232C866.753 231.52 865.82 231.28 864.78 231.28C863.74 231.28 862.807 231.52 861.98 232C861.153 232.48 860.487 233.16 859.98 234.04C859.5 234.92 859.26 235.987 859.26 237.24C859.26 238.467 859.5 239.533 859.98 240.44C860.487 241.32 861.153 242 861.98 242.48C862.807 242.96 863.74 243.2 864.78 243.2ZM884.832 238.28C884.832 237.347 884.979 236.52 885.272 235.8C885.592 235.08 885.979 234.44 886.432 233.88C886.912 233.32 887.419 232.8 887.952 232.32C888.486 231.84 888.979 231.387 889.432 230.96C889.912 230.507 890.299 230.04 890.592 229.56C890.912 229.08 891.072 228.547 891.072 227.96C891.072 227 890.672 226.227 889.872 225.64C889.099 225.053 888.059 224.76 886.752 224.76C885.499 224.76 884.379 225.027 883.392 225.56C882.406 226.067 881.592 226.787 880.952 227.72L876.112 224.88C877.179 223.253 878.659 221.96 880.552 221C882.446 220.013 884.739 219.52 887.432 219.52C889.432 219.52 891.192 219.813 892.712 220.4C894.232 220.96 895.419 221.787 896.272 222.88C897.152 223.973 897.592 225.32 897.592 226.92C897.592 227.96 897.432 228.88 897.112 229.68C896.792 230.48 896.379 231.173 895.872 231.76C895.366 232.347 894.819 232.893 894.232 233.4C893.672 233.907 893.139 234.4 892.632 234.88C892.126 235.36 891.699 235.867 891.352 236.4C891.032 236.933 890.872 237.56 890.872 238.28H884.832ZM887.872 248.32C886.752 248.32 885.832 247.96 885.112 247.24C884.392 246.52 884.032 245.667 884.032 244.68C884.032 243.667 884.392 242.827 885.112 242.16C885.832 241.467 886.752 241.12 887.872 241.12C889.019 241.12 889.939 241.467 890.632 242.16C891.352 242.827 891.712 243.667 891.712 244.68C891.712 245.667 891.352 246.52 890.632 247.24C889.939 247.96 889.019 248.32 887.872 248.32Z" fill="#292A2E"/>
<rect x="164.5" y="298.5" width="199" height="211" rx="3.5" stroke="#292A2E" stroke-opacity="0.32"/>
<g opacity="0.8">
<path d="M271.17 417.113H218.393C217.627 417.113 217.002 416.492 217.002 415.722V383.781C217.002 383.016 217.623 382.391 218.393 382.391H227.549C228.314 382.391 228.939 383.012 228.939 383.781C228.939 384.547 228.318 385.172 227.549 385.172H219.779V414.34H269.771C269.408 398.192 256.158 385.168 239.927 385.168H236.021C235.255 385.168 234.63 384.547 234.63 383.777C234.63 383.012 235.252 382.387 236.021 382.387H239.927C257.919 382.387 272.56 397.028 272.56 415.02V415.727C272.56 416.492 271.935 417.113 271.17 417.113Z" fill="#292A2E"/>
<path d="M251.643 370.639C252.401 364.389 248.831 358.42 242.96 356.123C237.089 353.826 230.417 355.787 226.733 360.897C225.897 362.057 224.053 361.338 224.229 359.916C224.397 358.533 224.741 357.17 225.252 355.865C226.616 352.373 229.057 349.525 232.19 347.662C229.233 347.334 226.205 347.955 223.612 349.494C223.065 349.818 222.373 349.729 221.924 349.283C221.475 348.834 221.385 348.143 221.709 347.596C227.178 338.299 239.939 336.604 247.639 344.17C258.409 343.834 266.659 353.713 264.362 364.279C264.23 364.9 263.691 365.349 263.058 365.373C262.413 365.396 261.855 364.99 261.675 364.381C260.812 361.494 259.011 358.978 256.616 357.216C258.128 362.306 257.034 367.614 254.152 371.618C253.316 372.775 251.472 372.06 251.644 370.638L251.643 370.639ZM254.1 365.249C254.991 361.713 254.452 357.995 252.542 354.808C251.87 353.686 252.991 352.335 254.218 352.792C257.261 353.925 259.878 355.929 261.776 358.483C260.62 351.429 254.206 346.467 247.253 346.971L247.183 346.975C246.421 347.03 246.077 346.53 245.761 346.217C240.742 341.217 232.909 340.901 227.542 345.092C230.671 344.499 233.956 344.807 236.956 346.038C238.167 346.534 238.077 348.284 236.819 348.655C233.257 349.702 230.335 352.069 228.589 355.268C238.218 348.714 251.475 353.893 254.1 365.249Z" fill="#292A2E"/>
<path d="M218.393 395.593C217.139 395.593 216.514 394.042 217.451 393.183C228.846 382.703 236.045 368.113 238.662 353.687C238.799 352.933 239.522 352.433 240.276 352.569C241.029 352.706 241.529 353.429 241.393 354.183C238.639 369.347 231.077 384.425 219.327 395.23C219.065 395.472 218.729 395.593 218.393 395.593Z" fill="#292A2E"/>
<path d="M217.284 407.23C216.823 406.617 216.944 405.746 217.557 405.285C232.104 394.332 240.502 373.242 243.772 355.351C243.909 354.597 244.631 354.097 245.389 354.233C246.143 354.37 246.643 355.093 246.506 355.851C243.108 374.433 234.393 396.085 219.229 407.503C218.62 407.964 217.748 407.847 217.284 407.23Z" fill="#292A2E"/>
<path d="M310.06 417.113H265.615C264.85 417.113 264.225 416.492 264.225 415.723C264.225 414.957 264.846 414.332 265.615 414.332H308.67V406H269.393C268.628 406 268.003 405.379 268.003 404.609C268.003 403.844 268.624 403.219 269.393 403.219H310.057C310.823 403.219 311.448 403.84 311.448 404.609V415.718C311.448 416.492 310.826 417.113 310.06 417.113Z" fill="#292A2E"/>
<path d="M301.724 385.168H265.615C264.85 385.168 264.225 384.547 264.225 383.777C264.225 373.054 272.947 364.332 283.67 364.332C294.393 364.332 303.115 373.055 303.115 383.777C303.115 384.547 302.494 385.168 301.724 385.168ZM267.06 382.39H300.279C299.572 373.847 292.393 367.113 283.67 367.113C274.948 367.113 267.768 373.848 267.061 382.39H267.06Z" fill="#292A2E"/>
<path d="M290.041 385.168C289.275 385.168 288.65 384.547 288.65 383.777C288.65 379.109 288.014 374.738 286.861 371.472C285.725 368.253 284.428 367.109 283.666 367.109C282.9 367.109 281.607 368.249 280.471 371.472C279.318 374.738 278.682 379.109 278.682 383.777C278.682 384.543 278.061 385.168 277.291 385.168C276.525 385.168 275.9 384.547 275.9 383.777C275.9 374.113 278.564 364.332 283.662 364.332C288.756 364.332 291.424 374.113 291.424 383.777C291.432 384.547 290.811 385.168 290.041 385.168Z" fill="#292A2E"/>
<path d="M283.67 406.004C282.904 406.004 282.279 405.382 282.279 404.613V389.336C282.279 388.57 282.9 387.945 283.67 387.945C284.436 387.945 285.061 388.566 285.061 389.336V404.613C285.061 405.382 284.435 406.004 283.67 406.004Z" fill="#292A2E"/>
<path d="M273.783 390.727H269.486C266.588 390.727 264.229 388.367 264.229 385.469V383.785C264.229 383.02 264.85 382.395 265.619 382.395H277.654C278.42 382.395 279.045 383.016 279.045 383.785V385.469C279.041 388.367 276.682 390.727 273.783 390.727ZM267.002 385.168V385.465C267.002 386.832 268.115 387.945 269.483 387.945H273.779C275.147 387.945 276.26 386.832 276.26 385.465L276.264 385.168H267.002Z" fill="#292A2E"/>
<path d="M285.818 390.727H281.521C278.623 390.727 276.264 388.367 276.264 385.469V383.785C276.264 383.02 276.885 382.395 277.654 382.395H289.689C290.455 382.395 291.08 383.016 291.08 383.785V385.469C291.076 388.367 288.717 390.727 285.818 390.727ZM279.041 385.168V385.465C279.041 386.832 280.154 387.945 281.522 387.945H285.818C287.186 387.945 288.299 386.832 288.299 385.465V385.168H279.041Z" fill="#292A2E"/>
<path d="M297.854 390.727H293.557C290.658 390.727 288.299 388.367 288.299 385.469V383.785C288.299 383.02 288.92 382.395 289.689 382.395H301.724C302.49 382.395 303.115 383.016 303.115 383.785V385.469C303.115 388.367 300.756 390.727 297.854 390.727ZM291.076 385.168V385.465C291.076 386.832 292.19 387.945 293.557 387.945H297.854C299.221 387.945 300.334 386.832 300.334 385.465L300.338 385.168H291.076Z" fill="#292A2E"/>
<path d="M279.502 349.82C275.197 349.82 271.697 346.32 271.697 342.016C271.697 337.711 275.197 334.211 279.502 334.211C283.807 334.211 287.307 337.711 287.307 342.016C287.307 346.316 283.807 349.82 279.502 349.82ZM279.502 336.988C276.732 336.988 274.475 339.242 274.475 342.016C274.475 344.785 276.729 347.043 279.502 347.043C282.271 347.043 284.529 344.789 284.529 342.016C284.529 339.242 282.275 336.988 279.502 336.988Z" fill="#292A2E"/>
<path d="M279.502 336.988C278.736 336.988 278.111 336.367 278.111 335.598L278.115 332.391C278.115 331.625 278.736 331 279.506 331C280.271 331 280.896 331.621 280.896 332.391V335.598C280.893 336.367 280.271 336.988 279.502 336.988Z" fill="#292A2E"/>
<path d="M273.252 340.006L270.475 338.401C269.811 338.018 269.585 337.166 269.967 336.502C270.35 335.838 271.198 335.612 271.866 335.995L274.643 337.6C275.307 337.983 275.534 338.835 275.151 339.499C274.768 340.163 273.916 340.393 273.252 340.006Z" fill="#292A2E"/>
<path d="M269.967 347.518C269.585 346.854 269.811 346.003 270.475 345.62L273.252 344.014C273.916 343.631 274.768 343.858 275.151 344.522C275.534 345.186 275.307 346.038 274.643 346.42L271.866 348.026C271.206 348.409 270.354 348.186 269.967 347.518Z" fill="#292A2E"/>
<path d="M279.502 353.027C278.736 353.027 278.111 352.406 278.111 351.637V348.43C278.111 347.664 278.732 347.039 279.502 347.039C280.268 347.039 280.893 347.66 280.893 348.43V351.637C280.893 352.402 280.271 353.027 279.502 353.027Z" fill="#292A2E"/>
<path d="M287.143 348.026L284.366 346.42C283.702 346.038 283.475 345.186 283.858 344.522C284.241 343.858 285.088 343.631 285.756 344.014L288.534 345.62C289.198 346.003 289.424 346.854 289.041 347.518C288.655 348.182 287.807 348.409 287.143 348.026Z" fill="#292A2E"/>
<path d="M283.858 339.499C283.475 338.835 283.702 337.983 284.366 337.6L287.143 335.995C287.807 335.612 288.659 335.838 289.041 336.502C289.424 337.167 289.198 338.018 288.534 338.401L285.756 340.006C285.092 340.389 284.241 340.167 283.858 339.499Z" fill="#292A2E"/>
<path d="M289.006 405.661C288.428 405.157 288.369 404.278 288.877 403.7L293.736 398.145C294.002 397.845 294.381 397.673 294.783 397.673H305.318L309.08 393.911C309.623 393.368 310.502 393.368 311.045 393.911C311.588 394.454 311.588 395.333 311.045 395.876L306.877 400.044C306.615 400.306 306.264 400.45 305.896 400.45H295.416L290.967 405.528C290.463 406.106 289.584 406.165 289.006 405.661Z" fill="#292A2E"/>
<path d="M305.893 406.004C305.127 406.004 304.502 405.383 304.502 404.613V399.059C304.502 398.293 305.123 397.668 305.893 397.668C306.658 397.668 307.283 398.289 307.283 399.059V404.613C307.283 405.383 306.658 406.004 305.893 406.004Z" fill="#292A2E"/>
<path d="M244.783 407.391H228.115C227.35 407.391 226.725 406.769 226.725 406C226.725 405.234 227.346 404.609 228.115 404.609H244.783C245.549 404.609 246.174 405.23 246.174 406C246.17 406.77 245.549 407.391 244.783 407.391Z" fill="#292A2E"/>
<path d="M248.947 401.836H240.615C239.85 401.836 239.225 401.215 239.225 400.445C239.225 399.68 239.846 399.055 240.615 399.055H248.947C249.713 399.055 250.338 399.676 250.338 400.445C250.338 401.215 249.717 401.836 248.947 401.836Z" fill="#292A2E"/>
</g>
<path opacity="0.8" d="M239.8 451V437.88H243.7C244.593 437.88 245.373 437.987 246.04 438.2C246.72 438.413 247.247 438.753 247.62 439.22C248.007 439.687 248.2 440.307 248.2 441.08C248.2 441.733 248.033 442.327 247.7 442.86C247.38 443.38 246.907 443.74 246.28 443.94V444.02C247.067 444.167 247.707 444.5 248.2 445.02C248.707 445.54 248.96 446.253 248.96 447.16C248.96 448.013 248.747 448.727 248.32 449.3C247.907 449.873 247.327 450.3 246.58 450.58C245.833 450.86 244.967 451 243.98 451H239.8ZM241.46 443.46H243.4C244.52 443.46 245.327 443.267 245.82 442.88C246.313 442.493 246.56 441.967 246.56 441.3C246.56 440.54 246.3 440 245.78 439.68C245.273 439.36 244.507 439.2 243.48 439.2H241.46V443.46ZM241.46 449.68H243.74C244.873 449.68 245.753 449.473 246.38 449.06C247.007 448.633 247.32 447.98 247.32 447.1C247.32 446.287 247.007 445.693 246.38 445.32C245.767 444.933 244.887 444.74 243.74 444.74H241.46V449.68ZM255.338 451.24C254.471 451.24 253.684 451.04 252.978 450.64C252.271 450.227 251.711 449.64 251.298 448.88C250.884 448.12 250.678 447.213 250.678 446.16C250.678 445.093 250.884 444.18 251.298 443.42C251.724 442.66 252.271 442.073 252.938 441.66C253.604 441.247 254.304 441.04 255.038 441.04C256.278 441.04 257.231 441.453 257.898 442.28C258.578 443.107 258.918 444.213 258.918 445.6C258.918 445.773 258.911 445.947 258.898 446.12C258.898 446.28 258.884 446.42 258.858 446.54H252.298C252.364 447.567 252.684 448.387 253.258 449C253.844 449.613 254.604 449.92 255.538 449.92C256.004 449.92 256.431 449.853 256.818 449.72C257.218 449.573 257.598 449.387 257.958 449.16L258.538 450.24C258.124 450.507 257.651 450.74 257.118 450.94C256.598 451.14 256.004 451.24 255.338 451.24ZM252.278 445.36H257.478C257.478 444.373 257.264 443.627 256.838 443.12C256.424 442.6 255.838 442.34 255.078 442.34C254.398 442.34 253.784 442.607 253.238 443.14C252.704 443.66 252.384 444.4 252.278 445.36ZM263.286 451.24C262.473 451.24 261.793 451 261.246 450.52C260.713 450.027 260.446 449.347 260.446 448.48C260.446 447.413 260.92 446.6 261.866 446.04C262.826 445.467 264.34 445.067 266.406 444.84C266.406 444.427 266.346 444.033 266.226 443.66C266.12 443.287 265.92 442.987 265.626 442.76C265.346 442.52 264.94 442.4 264.406 442.4C263.846 442.4 263.32 442.507 262.826 442.72C262.333 442.933 261.893 443.173 261.506 443.44L260.866 442.3C261.32 442.007 261.873 441.727 262.526 441.46C263.193 441.18 263.913 441.04 264.686 441.04C265.873 441.04 266.733 441.407 267.266 442.14C267.8 442.86 268.066 443.827 268.066 445.04V451H266.706L266.566 449.84H266.506C266.053 450.213 265.553 450.54 265.006 450.82C264.473 451.1 263.9 451.24 263.286 451.24ZM263.766 449.92C264.233 449.92 264.673 449.807 265.086 449.58C265.5 449.353 265.94 449.033 266.406 448.62V445.92C264.793 446.12 263.66 446.42 263.006 446.82C262.366 447.22 262.046 447.733 262.046 448.36C262.046 448.907 262.213 449.307 262.546 449.56C262.88 449.8 263.286 449.92 263.766 449.92ZM274.964 451.24C274.111 451.24 273.338 451.04 272.644 450.64C271.951 450.24 271.404 449.66 271.004 448.9C270.604 448.14 270.404 447.227 270.404 446.16C270.404 445.067 270.618 444.14 271.044 443.38C271.484 442.62 272.058 442.04 272.764 441.64C273.484 441.24 274.258 441.04 275.084 441.04C275.724 441.04 276.271 441.153 276.724 441.38C277.191 441.607 277.591 441.873 277.924 442.18L277.084 443.26C276.804 443.007 276.504 442.8 276.184 442.64C275.878 442.48 275.531 442.4 275.144 442.4C274.558 442.4 274.031 442.56 273.564 442.88C273.111 443.187 272.751 443.627 272.484 444.2C272.231 444.76 272.104 445.413 272.104 446.16C272.104 447.267 272.378 448.167 272.924 448.86C273.484 449.54 274.211 449.88 275.104 449.88C275.558 449.88 275.978 449.787 276.364 449.6C276.751 449.4 277.091 449.167 277.384 448.9L278.104 450C277.664 450.387 277.178 450.693 276.644 450.92C276.111 451.133 275.551 451.24 274.964 451.24ZM280.245 451V436.76H281.885V440.64L281.825 442.64C282.292 442.2 282.779 441.827 283.285 441.52C283.805 441.2 284.399 441.04 285.065 441.04C286.092 441.04 286.839 441.367 287.305 442.02C287.785 442.66 288.025 443.6 288.025 444.84V451H286.385V445.06C286.385 444.153 286.239 443.493 285.945 443.08C285.652 442.667 285.185 442.46 284.545 442.46C284.052 442.46 283.605 442.587 283.205 442.84C282.819 443.093 282.379 443.467 281.885 443.96V451H280.245Z" fill="#292A2E"/>
<g opacity="0.6">
<path fill-rule="evenodd" clip-rule="evenodd" d="M257.212 467.21C259.013 465.41 261.454 464.398 264 464.398C266.546 464.398 268.988 465.41 270.789 467.21C272.589 469.011 273.6 471.452 273.6 473.998C273.6 476.545 272.589 478.986 270.789 480.787C268.988 482.587 266.546 483.598 264 483.598C261.454 483.598 259.013 482.587 257.212 480.787C255.412 478.986 254.4 476.545 254.4 473.998C254.4 471.452 255.412 469.011 257.212 467.21ZM256.24 470.784C255.818 471.803 255.6 472.895 255.6 473.998C255.6 476.226 256.485 478.363 258.061 479.938C259.636 481.513 261.773 482.398 264 482.398C266.228 482.398 268.365 481.513 269.94 479.938C271.515 478.363 272.4 476.226 272.4 473.998C272.4 472.895 272.183 471.803 271.761 470.784C271.339 469.765 270.72 468.839 269.94 468.059C269.16 467.279 268.234 466.66 267.215 466.238C266.196 465.816 265.103 465.598 264 465.598C262.897 465.598 261.805 465.816 260.786 466.238C259.767 466.66 258.841 467.279 258.061 468.059C257.281 468.839 256.662 469.765 256.24 470.784Z" fill="#292A2E"/>
</g>
<rect x="389" y="299" width="198" height="210" rx="3" stroke="#3945E3" stroke-width="2"/>
<rect x="463" y="344" width="50" height="75" fill="#7982F4"/>
<rect x="458" y="329" width="61" height="8" fill="#7982F4"/>
<path d="M470.168 421.446H442.391C441.625 421.446 441 420.825 441 420.055V356.164C441 355.398 441.621 354.773 442.391 354.773H470.168C470.933 354.773 471.558 355.395 471.558 356.164V420.055C471.554 420.825 470.933 421.446 470.168 421.446ZM443.777 418.668H468.777V357.555H443.777V418.668Z" fill="#292A2E"/>
<path d="M443.777 418.668H468.777V357.555H443.777V418.668Z" fill="white"/>
<path d="M460.445 375.613H452.113C451.348 375.613 450.723 374.992 450.723 374.222V363.113C450.723 362.348 451.344 361.723 452.113 361.723H460.445C461.211 361.723 461.836 362.344 461.836 363.113V374.222C461.832 374.988 461.211 375.613 460.445 375.613ZM453.5 372.832H459.055V364.5H453.5V372.832Z" fill="#292A2E"/>
<path d="M460.445 393.668H452.113C451.348 393.668 450.723 393.046 450.723 392.277V381.168C450.723 380.402 451.344 379.777 452.113 379.777H460.445C461.211 379.777 461.836 380.398 461.836 381.168V392.277C461.832 393.046 461.211 393.668 460.445 393.668ZM453.5 390.89H459.055V382.558H453.5V390.89Z" fill="#292A2E"/>
<path d="M460.445 411.722H452.113C451.348 411.722 450.723 411.101 450.723 410.332V399.223C450.723 398.457 451.344 397.832 452.113 397.832H460.445C461.211 397.832 461.836 398.453 461.836 399.223V410.332C461.832 411.101 461.211 411.722 460.445 411.722ZM453.5 408.945H459.055V400.613H453.5V408.945Z" fill="#292A2E"/>
<path d="M534.054 421.446H506.277C505.512 421.446 504.887 420.825 504.887 420.055V356.164C504.887 355.398 505.508 354.773 506.277 354.773H534.054C534.82 354.773 535.445 355.395 535.445 356.164V420.055C535.445 420.825 534.824 421.446 534.054 421.446ZM507.667 418.668H532.667V357.555H507.667V418.668Z" fill="#292A2E"/>
<path d="M507.667 418.668H532.667V357.555H507.667V418.668Z" fill="white"/>
<path d="M524.332 375.613H516C515.234 375.613 514.609 374.992 514.609 374.222V363.113C514.609 362.348 515.23 361.723 516 361.723H524.332C525.098 361.723 525.723 362.344 525.723 363.113V374.222C525.723 374.988 525.101 375.613 524.332 375.613ZM517.391 372.832H522.945V364.5H517.391V372.832Z" fill="#292A2E"/>
<path d="M524.332 393.668H516C515.234 393.668 514.609 393.046 514.609 392.277V381.168C514.609 380.402 515.23 379.777 516 379.777H524.332C525.098 379.777 525.723 380.398 525.723 381.168V392.277C525.723 393.046 525.101 393.668 524.332 393.668ZM517.391 390.89H522.945V382.558H517.391V390.89Z" fill="#292A2E"/>
<path d="M524.332 411.722H516C515.234 411.722 514.609 411.101 514.609 410.332V399.223C514.609 398.457 515.23 397.832 516 397.832H524.332C525.098 397.832 525.723 398.453 525.723 399.223V410.332C525.723 411.101 525.101 411.722 524.332 411.722ZM517.391 408.945H522.945V400.613H517.391V408.945Z" fill="#292A2E"/>
<path d="M513.223 421.445H463.223C462.457 421.445 461.832 420.824 461.832 420.055C461.832 419.289 462.453 418.664 463.223 418.664H513.223C513.988 418.664 514.613 419.285 514.613 420.055C514.613 420.824 513.988 421.445 513.223 421.445Z" fill="#292A2E"/>
<path d="M513.223 357.554C512.457 357.554 511.832 356.933 511.832 356.164V338.113H464.609V356.168C464.609 356.933 463.988 357.558 463.219 357.558C462.453 357.558 461.828 356.937 461.828 356.168V336.723C461.828 335.957 462.449 335.332 463.219 335.332H513.219C513.984 335.332 514.609 335.953 514.609 336.723V356.168C514.613 356.933 513.989 357.554 513.223 357.554Z" fill="#292A2E"/>
<path d="M518.777 338.113H457.668C456.902 338.113 456.277 337.492 456.277 336.723V328.391C456.277 327.625 456.898 327 457.668 327H518.777C519.543 327 520.168 327.621 520.168 328.391V336.723C520.168 337.488 519.546 338.113 518.777 338.113ZM459.054 335.332H517.386L517.39 329.777H459.058L459.054 335.332Z" fill="#292A2E"/>
<path d="M495.168 421.445H481.277C480.512 421.445 479.887 420.824 479.887 420.055L479.891 399.223C479.891 398.457 480.512 397.832 481.281 397.832H495.172C495.938 397.832 496.563 398.453 496.563 399.223V420.055C496.555 420.824 495.934 421.445 495.168 421.445ZM482.668 418.668H493.777V400.613H482.668V418.668Z" fill="#292A2E"/>
<path d="M482.668 418.668H493.777V400.613H482.668V418.668Z" fill="white"/>
<path d="M485.445 365.891H477.113C476.348 365.891 475.723 365.269 475.723 364.5V356.168C475.723 355.402 476.344 354.777 477.113 354.777H485.445C486.211 354.777 486.836 355.398 486.836 356.168V364.5C486.832 365.269 486.211 365.891 485.445 365.891ZM478.5 363.113H484.055V357.559H478.5V363.113Z" fill="#292A2E"/>
<path d="M478.5 363.113H484.055V357.559H478.5V363.113Z" fill="white"/>
<path d="M499.332 365.891H491C490.234 365.891 489.609 365.269 489.609 364.5V356.168C489.609 355.402 490.23 354.777 491 354.777H499.332C500.098 354.777 500.723 355.398 500.723 356.168V364.5C500.723 365.269 500.101 365.891 499.332 365.891ZM492.391 363.113H497.945V357.559H492.391V363.113Z" fill="#292A2E"/>
<path d="M492.391 363.113H497.945V357.559H492.391V363.113Z" fill="white"/>
<path d="M485.445 379.777H477.113C476.348 379.777 475.723 379.156 475.723 378.387V370.055C475.723 369.289 476.344 368.664 477.113 368.664H485.445C486.211 368.664 486.836 369.285 486.836 370.055V378.387C486.832 379.156 486.211 379.777 485.445 379.777ZM478.5 377H484.055V371.445H478.5V377Z" fill="#292A2E"/>
<path d="M478.5 377H484.055V371.445H478.5V377Z" fill="white"/>
<path d="M499.332 379.777H491C490.234 379.777 489.609 379.156 489.609 378.387V370.055C489.609 369.289 490.23 368.664 491 368.664H499.332C500.098 368.664 500.723 369.285 500.723 370.055V378.387C500.723 379.156 500.101 379.777 499.332 379.777ZM492.391 377H497.945V371.445H492.391V377Z" fill="#292A2E"/>
<path d="M492.391 377H497.945V371.445H492.391V377Z" fill="white"/>
<path d="M485.445 393.668H477.113C476.348 393.668 475.723 393.047 475.723 392.277V383.945C475.723 383.18 476.344 382.555 477.113 382.555H485.445C486.211 382.555 486.836 383.176 486.836 383.945V392.277C486.832 393.047 486.211 393.668 485.445 393.668ZM478.5 390.891H484.055V385.336H478.5V390.891Z" fill="#292A2E"/>
<path d="M478.5 390.891H484.055V385.336H478.5V390.891Z" fill="white"/>
<path d="M499.332 393.668H491C490.234 393.668 489.609 393.047 489.609 392.277V383.945C489.609 383.18 490.23 382.555 491 382.555H499.332C500.098 382.555 500.723 383.176 500.723 383.945V392.277C500.723 393.047 500.101 393.668 499.332 393.668ZM492.391 390.891H497.945V385.336H492.391V390.891Z" fill="#292A2E"/>
<path d="M492.391 390.891H497.945V385.336H492.391V390.891Z" fill="white"/>
<path d="M513.223 345.055H463.223C462.457 345.055 461.832 344.434 461.832 343.664C461.832 342.898 462.453 342.273 463.223 342.273H513.223C513.988 342.273 514.613 342.895 514.613 343.664C514.613 344.434 513.988 345.055 513.223 345.055Z" fill="#292A2E"/>
<path d="M478.26 451.24C477.167 451.24 476.187 450.973 475.32 450.44C474.467 449.893 473.787 449.113 473.28 448.1C472.787 447.087 472.54 445.867 472.54 444.44C472.54 443.027 472.793 441.813 473.3 440.8C473.807 439.787 474.5 439.007 475.38 438.46C476.26 437.913 477.253 437.64 478.36 437.64C479.16 437.64 479.867 437.807 480.48 438.14C481.093 438.46 481.587 438.833 481.96 439.26L481.06 440.34C480.713 439.967 480.32 439.667 479.88 439.44C479.44 439.213 478.94 439.1 478.38 439.1C477.553 439.1 476.827 439.32 476.2 439.76C475.587 440.187 475.107 440.793 474.76 441.58C474.427 442.367 474.26 443.307 474.26 444.4C474.26 445.493 474.427 446.447 474.76 447.26C475.093 448.06 475.56 448.68 476.16 449.12C476.773 449.56 477.493 449.78 478.32 449.78C478.947 449.78 479.507 449.647 480 449.38C480.493 449.113 480.947 448.753 481.36 448.3L482.28 449.34C481.76 449.94 481.173 450.407 480.52 450.74C479.867 451.073 479.113 451.24 478.26 451.24ZM484.566 451V441.28H486.206V451H484.566ZM485.406 439.28C485.086 439.28 484.819 439.187 484.606 439C484.406 438.8 484.306 438.533 484.306 438.2C484.306 437.88 484.406 437.62 484.606 437.42C484.819 437.22 485.086 437.12 485.406 437.12C485.726 437.12 485.986 437.22 486.186 437.42C486.399 437.62 486.506 437.88 486.506 438.2C486.506 438.533 486.399 438.8 486.186 439C485.986 439.187 485.726 439.28 485.406 439.28ZM492.548 451.24C491.508 451.24 490.781 450.94 490.368 450.34C489.968 449.74 489.768 448.96 489.768 448V442.62H488.328V441.38L489.848 441.28L490.048 438.56H491.428V441.28H494.048V442.62H491.428V448.02C491.428 448.62 491.534 449.087 491.748 449.42C491.974 449.74 492.368 449.9 492.928 449.9C493.101 449.9 493.288 449.873 493.488 449.82C493.688 449.753 493.868 449.693 494.028 449.64L494.348 450.88C494.081 450.973 493.788 451.053 493.468 451.12C493.161 451.2 492.854 451.24 492.548 451.24ZM496.405 455.18C496.192 455.18 495.985 455.16 495.785 455.12C495.599 455.08 495.425 455.033 495.265 454.98L495.585 453.68C495.692 453.707 495.812 453.733 495.945 453.76C496.079 453.8 496.205 453.82 496.325 453.82C496.872 453.82 497.325 453.62 497.685 453.22C498.045 452.833 498.325 452.34 498.525 451.74L498.745 451.02L494.845 441.28H496.545L498.525 446.66C498.672 447.073 498.825 447.52 498.985 448C499.159 448.48 499.319 448.947 499.465 449.4H499.545C499.692 448.96 499.832 448.5 499.965 448.02C500.099 447.54 500.232 447.087 500.365 446.66L502.105 441.28H503.705L500.045 451.8C499.819 452.44 499.545 453.013 499.225 453.52C498.919 454.027 498.532 454.427 498.065 454.72C497.612 455.027 497.059 455.18 496.405 455.18Z" fill="#292A2E"/>
<path d="M488 479.998C489.592 479.998 491.118 479.366 492.243 478.241C493.368 477.116 494 475.59 494 473.998C494 472.407 493.368 470.881 492.243 469.756C491.118 468.631 489.592 467.998 488 467.998C486.409 467.998 484.883 468.631 483.758 469.756C482.633 470.881 482 472.407 482 473.998C482 475.59 482.633 477.116 483.758 478.241C484.883 479.366 486.409 479.998 488 479.998ZM488 464.398C485.454 464.398 483.013 465.41 481.212 467.21C479.412 469.011 478.4 471.452 478.4 473.998C478.4 476.545 479.412 478.986 481.212 480.787C483.013 482.587 485.454 483.598 488 483.598C490.546 483.598 492.988 482.587 494.789 480.787C496.589 478.986 497.6 476.545 497.6 473.998C497.6 471.452 496.589 469.011 494.789 467.21C492.988 465.41 490.546 464.398 488 464.398ZM479.6 473.998C479.6 472.895 479.818 471.803 480.24 470.784C480.662 469.765 481.281 468.839 482.061 468.059C482.841 467.279 483.767 466.66 484.786 466.238C485.805 465.816 486.897 465.598 488 465.598C489.103 465.598 490.196 465.816 491.215 466.238C492.234 466.66 493.16 467.279 493.94 468.059C494.72 468.839 495.339 469.765 495.761 470.784C496.183 471.803 496.4 472.895 496.4 473.998C496.4 476.226 495.515 478.363 493.94 479.938C492.365 481.513 490.228 482.398 488 482.398C485.773 482.398 483.636 481.513 482.061 479.938C480.485 478.363 479.6 476.226 479.6 473.998Z" fill="#292A2E"/>
<rect x="612.5" y="298.5" width="199" height="211" rx="3.5" stroke="#292A2E" stroke-opacity="0.32"/>
<g opacity="0.8">
<path d="M745.114 421.442H678.559C677.793 421.442 677.168 420.821 677.168 420.051V404.774C677.168 404.407 677.312 404.052 677.574 403.794L710.851 370.462C711.394 369.919 712.273 369.919 712.816 370.462L746.093 403.794C746.355 404.056 746.499 404.407 746.499 404.774V420.051C746.503 420.821 745.883 421.442 745.114 421.442ZM679.946 418.665H743.723V405.353L711.836 373.408L679.945 405.349L679.946 418.665Z" fill="#292A2E"/>
<path d="M721.647 420.545L710.538 391.377C710.296 390.74 710.55 390.022 711.144 389.678C711.734 389.338 712.484 389.475 712.917 390.006L730.972 412.229C731.421 412.78 731.378 413.584 730.875 414.088L723.929 421.034C723.214 421.745 722.007 421.483 721.647 420.545ZM716.214 398.475L723.479 417.553L728.022 413.01L716.214 398.475Z" fill="#292A2E"/>
<path d="M699.743 421.033L692.797 414.087C692.293 413.583 692.254 412.783 692.7 412.228L710.755 390.005C711.184 389.478 711.934 389.337 712.528 389.677C713.118 390.017 713.376 390.735 713.133 391.376L702.024 420.544C701.665 421.482 700.457 421.744 699.743 421.033ZM695.649 413.009L700.192 417.552L707.457 398.474L695.649 413.009Z" fill="#292A2E"/>
<path d="M711.836 392.273C711.07 392.273 710.445 391.652 710.445 390.883V383.937C710.445 383.172 711.066 382.547 711.836 382.547C712.602 382.547 713.227 383.168 713.227 383.937V390.887C713.227 391.652 712.602 392.273 711.836 392.273Z" fill="#292A2E"/>
<path d="M730.582 392.101C730.219 391.426 730.469 390.582 731.144 390.219C732.941 389.246 734.059 387.375 734.059 385.328V351.996C734.059 348.949 731.598 346.441 728.504 346.441C725.441 346.441 722.949 348.934 722.949 351.996V381.18C722.949 381.946 722.328 382.571 721.559 382.571C720.793 382.571 720.168 381.95 720.168 381.18V351.996C720.168 347.402 723.906 343.664 728.5 343.664C733.144 343.664 736.832 347.43 736.832 351.996V385.328C736.832 388.394 735.156 391.203 732.457 392.66C731.789 393.027 730.945 392.777 730.582 392.101Z" fill="#292A2E"/>
<path d="M728.504 389.523C727.738 389.523 727.113 388.902 727.113 388.132V367.273C727.113 366.508 727.734 365.883 728.504 365.883C729.27 365.883 729.894 366.504 729.894 367.273V388.132C729.891 388.902 729.269 389.523 728.504 389.523Z" fill="#292A2E"/>
<path d="M734.935 386.968C734.22 386.687 733.868 385.883 734.146 385.168C734.427 384.453 735.231 384.101 735.946 384.379C745.048 387.941 754.891 381.183 754.891 371.441C754.891 361.695 745.04 354.945 735.953 358.5C735.239 358.781 734.434 358.425 734.153 357.711C733.871 356.996 734.227 356.191 734.942 355.91C745.829 351.652 757.669 359.726 757.669 371.441C757.669 383.125 745.864 391.242 734.935 386.968Z" fill="#292A2E"/>
<path d="M741.004 402.043C740.238 402.043 739.613 401.422 739.613 400.653V374.219C739.613 373.453 740.234 372.828 741.004 372.828C741.77 372.828 742.394 373.449 742.394 374.219V400.657C742.391 401.422 741.769 402.043 741.004 402.043Z" fill="#292A2E"/>
<path d="M740.021 380.759C739.478 380.216 739.478 379.337 740.021 378.794L742.798 376.017C743.341 375.474 744.22 375.474 744.763 376.017C745.306 376.56 745.306 377.439 744.763 377.981L741.985 380.759C741.442 381.298 740.563 381.298 740.021 380.759Z" fill="#292A2E"/>
<path d="M704.078 343.664H679.078C676.016 343.664 673.523 341.172 673.523 338.109C673.523 335.047 676.016 332.555 679.078 332.555H680.605C681.25 329.391 684.059 327 687.41 327C690.766 327 693.57 329.391 694.215 332.555L704.078 332.551C707.141 332.551 709.633 335.043 709.633 338.105C709.633 341.172 707.141 343.664 704.078 343.664ZM679.078 335.328C677.547 335.328 676.301 336.574 676.301 338.106C676.301 339.637 677.547 340.883 679.078 340.883H704.078C705.609 340.883 706.855 339.637 706.855 338.106C706.855 336.574 705.609 335.328 704.078 335.328H692.969C692.204 335.328 691.579 334.707 691.579 333.938C691.579 331.641 689.707 329.77 687.411 329.77C685.114 329.77 683.243 331.641 683.243 333.938C683.243 334.703 682.621 335.328 681.852 335.328H679.078Z" fill="#292A2E"/>
<path d="M695.55 368.664C689.98 368.664 685.445 364.133 685.445 358.559C685.445 354.59 687.785 350.973 691.406 349.34C692.48 348.856 693.637 349.856 693.312 350.988C693.148 351.563 693.066 352.153 693.066 352.746C693.066 358.086 699.269 361.016 703.394 357.711C704.316 356.973 705.683 357.652 705.652 358.832C705.504 364.297 701.039 368.664 695.55 368.664ZM690.316 353.437C689.003 354.785 688.226 356.613 688.226 358.558C688.226 362.597 691.511 365.886 695.554 365.886C698.609 365.886 701.207 364.058 702.312 361.413C696.648 363.3 690.757 359.324 690.316 353.437Z" fill="#292A2E"/>
<path d="M752.113 421.445C751.348 421.445 750.723 420.824 750.723 420.054V408.945C750.723 408.18 751.344 407.555 752.113 407.555C752.879 407.555 753.504 408.176 753.504 408.945V420.054C753.504 420.824 752.883 421.445 752.113 421.445Z" fill="#292A2E"/>
<path d="M756.281 413.109H745.172C744.406 413.109 743.781 412.488 743.781 411.719C743.781 410.953 744.402 410.328 745.172 410.328H756.281C757.046 410.328 757.671 410.949 757.671 411.719C757.668 412.484 757.046 413.109 756.281 413.109Z" fill="#292A2E"/>
<path d="M671.559 421.445C670.793 421.445 670.168 420.824 670.168 420.054V408.945C670.168 408.18 670.789 407.555 671.559 407.555C672.324 407.555 672.949 408.176 672.949 408.945V420.054C672.945 420.824 672.324 421.445 671.559 421.445Z" fill="#292A2E"/>
<path d="M678.504 413.109H667.391C666.625 413.109 666 412.488 666 411.719C666 410.953 666.621 410.328 667.391 410.328H678.5C679.265 410.328 679.89 410.949 679.89 411.719C679.89 412.484 679.269 413.109 678.504 413.109Z" fill="#292A2E"/>
</g>
<path opacity="0.8" d="M680.76 451.24C679.667 451.24 678.687 450.973 677.82 450.44C676.967 449.893 676.287 449.113 675.78 448.1C675.287 447.087 675.04 445.867 675.04 444.44C675.04 443.027 675.293 441.813 675.8 440.8C676.307 439.787 677 439.007 677.88 438.46C678.76 437.913 679.753 437.64 680.86 437.64C681.66 437.64 682.367 437.807 682.98 438.14C683.593 438.46 684.087 438.833 684.46 439.26L683.56 440.34C683.213 439.967 682.82 439.667 682.38 439.44C681.94 439.213 681.44 439.1 680.88 439.1C680.053 439.1 679.327 439.32 678.7 439.76C678.087 440.187 677.607 440.793 677.26 441.58C676.927 442.367 676.76 443.307 676.76 444.4C676.76 445.493 676.927 446.447 677.26 447.26C677.593 448.06 678.06 448.68 678.66 449.12C679.273 449.56 679.993 449.78 680.82 449.78C681.447 449.78 682.007 449.647 682.5 449.38C682.993 449.113 683.447 448.753 683.86 448.3L684.78 449.34C684.26 449.94 683.673 450.407 683.02 450.74C682.367 451.073 681.613 451.24 680.76 451.24ZM689.306 451.24C688.492 451.24 687.812 451 687.266 450.52C686.732 450.027 686.466 449.347 686.466 448.48C686.466 447.413 686.939 446.6 687.886 446.04C688.846 445.467 690.359 445.067 692.426 444.84C692.426 444.427 692.366 444.033 692.246 443.66C692.139 443.287 691.939 442.987 691.646 442.76C691.366 442.52 690.959 442.4 690.426 442.4C689.866 442.4 689.339 442.507 688.846 442.72C688.352 442.933 687.912 443.173 687.526 443.44L686.886 442.3C687.339 442.007 687.892 441.727 688.546 441.46C689.212 441.18 689.932 441.04 690.706 441.04C691.892 441.04 692.752 441.407 693.286 442.14C693.819 442.86 694.086 443.827 694.086 445.04V451H692.726L692.586 449.84H692.526C692.072 450.213 691.572 450.54 691.026 450.82C690.492 451.1 689.919 451.24 689.306 451.24ZM689.786 449.92C690.252 449.92 690.692 449.807 691.106 449.58C691.519 449.353 691.959 449.033 692.426 448.62V445.92C690.812 446.12 689.679 446.42 689.026 446.82C688.386 447.22 688.066 447.733 688.066 448.36C688.066 448.907 688.232 449.307 688.566 449.56C688.899 449.8 689.306 449.92 689.786 449.92ZM697.144 451V441.28H698.504L698.644 442.68H698.704C699.131 442.213 699.597 441.827 700.104 441.52C700.611 441.2 701.151 441.04 701.724 441.04C702.471 441.04 703.051 441.207 703.464 441.54C703.891 441.86 704.204 442.313 704.404 442.9C704.911 442.353 705.424 441.907 705.944 441.56C706.464 441.213 707.017 441.04 707.604 441.04C708.604 441.04 709.344 441.367 709.824 442.02C710.317 442.66 710.564 443.6 710.564 444.84V451H708.924V445.06C708.924 444.153 708.777 443.493 708.484 443.08C708.191 442.667 707.737 442.46 707.124 442.46C706.404 442.46 705.591 442.96 704.684 443.96V451H703.044V445.06C703.044 444.153 702.897 443.493 702.604 443.08C702.311 442.667 701.851 442.46 701.224 442.46C700.504 442.46 699.691 442.96 698.784 443.96V451H697.144ZM713.726 455.1V441.28H715.086L715.226 442.4H715.286C715.726 442.027 716.206 441.707 716.726 441.44C717.259 441.173 717.813 441.04 718.386 441.04C719.639 441.04 720.593 441.493 721.246 442.4C721.899 443.293 722.226 444.493 722.226 446C722.226 447.093 722.026 448.033 721.626 448.82C721.239 449.607 720.726 450.207 720.086 450.62C719.459 451.033 718.773 451.24 718.026 451.24C717.573 451.24 717.119 451.14 716.666 450.94C716.226 450.74 715.779 450.467 715.326 450.12L715.366 451.82V455.1H713.726ZM717.746 449.86C718.546 449.86 719.206 449.52 719.726 448.84C720.259 448.147 720.526 447.2 720.526 446C720.526 444.933 720.326 444.073 719.926 443.42C719.539 442.753 718.886 442.42 717.966 442.42C717.553 442.42 717.133 442.533 716.706 442.76C716.293 442.987 715.846 443.313 715.366 443.74V448.84C715.806 449.213 716.233 449.48 716.646 449.64C717.059 449.787 717.426 449.86 717.746 449.86ZM724.82 451V441.28H726.46V451H724.82ZM725.66 439.28C725.34 439.28 725.073 439.187 724.86 439C724.66 438.8 724.56 438.533 724.56 438.2C724.56 437.88 724.66 437.62 724.86 437.42C725.073 437.22 725.34 437.12 725.66 437.12C725.98 437.12 726.24 437.22 726.44 437.42C726.653 437.62 726.76 437.88 726.76 438.2C726.76 438.533 726.653 438.8 726.44 439C726.24 439.187 725.98 439.28 725.66 439.28ZM729.742 451V441.28H731.102L731.242 442.68H731.302C731.768 442.213 732.262 441.827 732.782 441.52C733.302 441.2 733.895 441.04 734.562 441.04C735.588 441.04 736.335 441.367 736.802 442.02C737.282 442.66 737.522 443.6 737.522 444.84V451H735.882V445.06C735.882 444.153 735.735 443.493 735.442 443.08C735.148 442.667 734.682 442.46 734.042 442.46C733.548 442.46 733.102 442.587 732.702 442.84C732.315 443.093 731.875 443.467 731.382 443.96V451H729.742ZM743.959 455.48C742.772 455.48 741.806 455.253 741.059 454.8C740.312 454.347 739.939 453.7 739.939 452.86C739.939 452.447 740.066 452.047 740.319 451.66C740.572 451.287 740.919 450.953 741.359 450.66V450.58C741.119 450.433 740.912 450.227 740.739 449.96C740.579 449.693 740.499 449.373 740.499 449C740.499 448.587 740.612 448.227 740.839 447.92C741.066 447.613 741.306 447.373 741.559 447.2V447.12C741.239 446.853 740.946 446.493 740.679 446.04C740.426 445.587 740.299 445.073 740.299 444.5C740.299 443.793 740.466 443.18 740.799 442.66C741.132 442.14 741.579 441.74 742.139 441.46C742.699 441.18 743.306 441.04 743.959 441.04C744.226 441.04 744.479 441.067 744.719 441.12C744.959 441.16 745.166 441.213 745.339 441.28H748.719V442.54H746.719C746.946 442.753 747.132 443.04 747.279 443.4C747.439 443.747 747.519 444.127 747.519 444.54C747.519 445.233 747.359 445.833 747.039 446.34C746.719 446.847 746.292 447.24 745.759 447.52C745.226 447.787 744.626 447.92 743.959 447.92C743.439 447.92 742.952 447.807 742.499 447.58C742.326 447.727 742.179 447.893 742.059 448.08C741.939 448.253 741.879 448.473 741.879 448.74C741.879 449.047 741.999 449.3 742.239 449.5C742.492 449.7 742.946 449.8 743.599 449.8H745.479C746.612 449.8 747.459 449.987 748.019 450.36C748.592 450.72 748.879 451.307 748.879 452.12C748.879 452.72 748.679 453.273 748.279 453.78C747.879 454.287 747.312 454.693 746.579 455C745.846 455.32 744.972 455.48 743.959 455.48ZM743.959 446.82C744.519 446.82 744.999 446.613 745.399 446.2C745.812 445.773 746.019 445.207 746.019 444.5C746.019 443.793 745.819 443.24 745.419 442.84C745.019 442.44 744.532 442.24 743.959 442.24C743.386 442.24 742.899 442.44 742.499 442.84C742.099 443.24 741.899 443.793 741.899 444.5C741.899 445.207 742.099 445.773 742.499 446.2C742.912 446.613 743.399 446.82 743.959 446.82ZM744.199 454.34C745.132 454.34 745.879 454.133 746.439 453.72C746.999 453.32 747.279 452.867 747.279 452.36C747.279 451.907 747.106 451.593 746.759 451.42C746.426 451.247 745.946 451.16 745.319 451.16H743.639C743.452 451.16 743.246 451.147 743.019 451.12C742.806 451.093 742.592 451.053 742.379 451C742.032 451.253 741.779 451.52 741.619 451.8C741.459 452.08 741.379 452.36 741.379 452.64C741.379 453.16 741.626 453.573 742.119 453.88C742.626 454.187 743.319 454.34 744.199 454.34Z" fill="#292A2E"/>
<g opacity="0.6">
<path fill-rule="evenodd" clip-rule="evenodd" d="M705.212 467.21C707.013 465.41 709.454 464.398 712 464.398C714.546 464.398 716.988 465.41 718.789 467.21C720.589 469.011 721.6 471.452 721.6 473.998C721.6 476.545 720.589 478.986 718.789 480.787C716.988 482.587 714.546 483.598 712 483.598C709.454 483.598 707.013 482.587 705.212 480.787C703.412 478.986 702.4 476.545 702.4 473.998C702.4 471.452 703.412 469.011 705.212 467.21ZM704.24 470.784C703.818 471.803 703.6 472.895 703.6 473.998C703.6 476.226 704.485 478.363 706.061 479.938C707.636 481.513 709.773 482.398 712 482.398C714.228 482.398 716.365 481.513 717.94 479.938C719.515 478.363 720.4 476.226 720.4 473.998C720.4 472.895 720.183 471.803 719.761 470.784C719.339 469.765 718.72 468.839 717.94 468.059C717.16 467.279 716.234 466.66 715.215 466.238C714.196 465.816 713.103 465.598 712 465.598C710.897 465.598 709.805 465.816 708.786 466.238C707.767 466.66 706.841 467.279 706.061 468.059C705.281 468.839 704.662 469.765 704.24 470.784Z" fill="#292A2E"/>
</g>
<rect x="836.5" y="298.5" width="199" height="211" rx="3.5" stroke="#292A2E" stroke-opacity="0.32"/>
<g opacity="0.8">
<path d="M890.392 419.279C889.173 419.279 888.544 417.818 889.384 416.935L915.079 389.853C915.595 389.31 916.493 389.251 917.067 389.826L926.501 399.259L946.353 379.407C946.896 378.864 947.775 378.864 948.318 379.407C948.861 379.95 948.861 380.829 948.318 381.372L927.486 402.204C926.943 402.747 926.064 402.747 925.521 402.204L916.111 392.794L893.627 416.493L980.67 416.368V405.962L972.556 397.849C972.013 397.306 972.013 396.427 972.556 395.884C973.099 395.341 973.978 395.341 974.521 395.884L983.041 404.403C983.302 404.665 983.447 405.017 983.447 405.384V417.755C983.447 418.52 982.826 419.141 982.06 419.145L890.392 419.274L890.392 419.279Z" fill="#292A2E"/>
<path d="M954.279 405.387C949.685 405.387 945.947 401.648 945.947 397.055V363.723C945.947 359.129 949.686 355.391 954.279 355.391C958.873 355.391 962.611 359.129 962.611 363.723V397.055C962.615 401.648 958.877 405.387 954.279 405.387ZM954.279 358.164C951.217 358.164 948.725 360.656 948.725 363.718V397.05C948.725 400.113 951.217 402.605 954.279 402.605C957.342 402.605 959.834 400.113 959.834 397.05V363.718C959.838 360.656 957.346 358.164 954.279 358.164Z" fill="#292A2E"/>
<path d="M954.279 419.278C953.514 419.278 952.889 418.657 952.889 417.887V378.996C952.889 378.23 953.51 377.605 954.279 377.605C955.045 377.605 955.67 378.227 955.67 378.996V417.887C955.67 418.653 955.049 419.278 954.279 419.278Z" fill="#292A2E"/>
<path d="M890.393 419.278C889.627 419.278 889.002 418.657 889.002 417.888V392.888C889.002 392.521 889.146 392.165 889.408 391.907L914.408 366.907C914.951 366.364 915.83 366.364 916.373 366.907L938.596 389.13C939.139 389.673 939.139 390.552 938.596 391.095C938.053 391.638 937.174 391.638 936.631 391.095L915.393 369.853L891.784 393.462L891.78 417.888C891.78 418.654 891.159 419.279 890.394 419.279L890.393 419.278Z" fill="#292A2E"/>
<path d="M960.708 398.692C959.993 398.411 959.642 397.606 959.919 396.891C960.2 396.176 961.005 395.825 961.72 396.102C970.825 399.661 980.669 392.907 980.669 383.161C980.669 373.415 970.817 366.665 961.731 370.22C961.016 370.501 960.211 370.146 959.93 369.431C959.649 368.716 960.004 367.912 960.719 367.63C971.606 363.369 983.446 371.443 983.446 383.157C983.446 394.848 971.641 402.966 960.708 398.692Z" fill="#292A2E"/>
<path d="M966.779 419.281C966.014 419.281 965.389 418.66 965.389 417.89V385.945C965.389 385.18 966.01 384.555 966.779 384.555C967.545 384.555 968.17 385.176 968.17 385.945V417.89C968.17 418.656 967.549 419.281 966.779 419.281Z" fill="#292A2E"/>
<path d="M965.798 392.481C965.255 391.938 965.255 391.059 965.798 390.517L968.575 387.739C969.118 387.196 969.997 387.196 970.54 387.739C971.083 388.282 971.083 389.161 970.54 389.704L967.763 392.481C967.22 393.024 966.341 393.024 965.798 392.481Z" fill="#292A2E"/>
<path d="M918.575 382.759L915.259 379.442L910.665 382.888C910.114 383.302 909.337 383.247 908.849 382.759L904.681 378.591C904.138 378.048 904.138 377.169 904.681 376.626C905.224 376.083 906.103 376.083 906.645 376.626L909.962 379.942L914.556 376.497C915.106 376.083 915.884 376.138 916.372 376.626L919.751 380.005L924.751 376.821C925.399 376.411 926.255 376.599 926.669 377.247C927.079 377.895 926.892 378.751 926.243 379.165L920.302 382.946C919.755 383.298 919.036 383.22 918.575 382.759Z" fill="#292A2E"/>
<path d="M975.115 345.664H950.115C947.053 345.664 944.561 343.172 944.561 340.109C944.561 337.047 947.053 334.555 950.115 334.555H959.979C960.623 331.391 963.432 329 966.783 329C970.139 329 972.943 331.391 973.588 334.555H975.115C978.178 334.555 980.67 337.047 980.67 340.109C980.67 343.172 978.178 345.664 975.115 345.664ZM950.115 337.332C948.584 337.332 947.338 338.578 947.338 340.109C947.338 341.641 948.584 342.887 950.115 342.887H975.115C976.646 342.887 977.893 341.641 977.893 340.109C977.893 338.578 976.646 337.332 975.115 337.332H972.338C971.572 337.332 970.947 336.711 970.947 335.942C970.947 333.645 969.076 331.774 966.779 331.774C964.482 331.774 962.611 333.645 962.611 335.942C962.611 336.707 961.99 337.332 961.221 337.332H950.115Z" fill="#292A2E"/>
<path d="M904.279 342.887C901.982 342.887 900.111 341.016 900.111 338.719C900.111 336.422 901.982 334.551 904.279 334.551C906.576 334.551 908.447 336.422 908.447 338.719C908.447 341.016 906.58 342.887 904.279 342.887ZM904.279 337.332C903.514 337.332 902.889 337.953 902.889 338.723C902.889 339.488 903.51 340.113 904.279 340.113C905.045 340.113 905.67 339.492 905.67 338.723C905.67 337.953 905.045 337.332 904.279 337.332Z" fill="#292A2E"/>
<path d="M903.508 353.766C903.141 353.524 894.555 347.695 894.555 338.723C894.555 333.363 898.918 329 904.277 329C909.637 329 914 333.363 914 338.723C914 347.695 905.414 353.524 905.047 353.766C904.582 354.074 903.977 354.074 903.508 353.766ZM904.277 331.778C900.449 331.778 897.332 334.891 897.332 338.723C897.332 344.762 902.32 349.325 904.277 350.879C906.23 349.324 911.223 344.762 911.223 338.723C911.223 334.891 908.109 331.778 904.277 331.778Z" fill="#292A2E"/>
<path d="M914 353.996H912.609C911.844 353.996 911.219 353.375 911.219 352.605C911.219 351.84 911.84 351.215 912.609 351.215H914C914.766 351.215 915.391 351.836 915.391 352.605C915.391 353.375 914.769 353.996 914 353.996Z" fill="#292A2E"/>
<path d="M920.947 353.996H919.557C918.791 353.996 918.166 353.375 918.166 352.605C918.166 351.84 918.787 351.215 919.557 351.215H920.947C921.713 351.215 922.338 351.836 922.338 352.605C922.338 353.375 921.713 353.996 920.947 353.996Z" fill="#292A2E"/>
<path d="M922.336 360.941C921.57 360.941 920.945 360.32 920.945 359.551V358.16C920.945 357.394 921.566 356.77 922.336 356.77C923.102 356.77 923.727 357.391 923.727 358.16V359.551C923.723 360.32 923.102 360.941 922.336 360.941Z" fill="#292A2E"/>
<path d="M922.336 367.887C921.57 367.887 920.945 367.266 920.945 366.496V365.105C920.945 364.34 921.566 363.715 922.336 363.715C923.102 363.715 923.727 364.336 923.727 365.105V366.496C923.723 367.266 923.102 367.887 922.336 367.887Z" fill="#292A2E"/>
</g>
<path opacity="0.8" d="M893.8 451V437.88H895.8L898.32 444.88C898.48 445.333 898.633 445.793 898.78 446.26C898.94 446.713 899.1 447.167 899.26 447.62H899.34C899.5 447.167 899.647 446.713 899.78 446.26C899.927 445.793 900.08 445.333 900.24 444.88L902.72 437.88H904.74V451H903.18V443.78C903.18 443.193 903.207 442.547 903.26 441.84C903.313 441.12 903.36 440.473 903.4 439.9H903.32L902.28 442.88L899.8 449.68H898.7L896.22 442.88L895.18 439.9H895.1C895.14 440.473 895.18 441.12 895.22 441.84C895.273 442.547 895.3 443.193 895.3 443.78V451H893.8ZM911.951 451.24C911.165 451.24 910.425 451.04 909.731 450.64C909.051 450.24 908.498 449.66 908.071 448.9C907.658 448.14 907.451 447.227 907.451 446.16C907.451 445.067 907.658 444.14 908.071 443.38C908.498 442.62 909.051 442.04 909.731 441.64C910.425 441.24 911.165 441.04 911.951 441.04C912.751 441.04 913.491 441.24 914.171 441.64C914.851 442.04 915.398 442.62 915.811 443.38C916.238 444.14 916.451 445.067 916.451 446.16C916.451 447.227 916.238 448.14 915.811 448.9C915.398 449.66 914.851 450.24 914.171 450.64C913.491 451.04 912.751 451.24 911.951 451.24ZM911.951 449.88C912.791 449.88 913.465 449.54 913.971 448.86C914.491 448.167 914.751 447.267 914.751 446.16C914.751 445.04 914.491 444.133 913.971 443.44C913.465 442.747 912.791 442.4 911.951 442.4C911.125 442.4 910.451 442.747 909.931 443.44C909.411 444.133 909.151 445.04 909.151 446.16C909.151 447.267 909.411 448.167 909.931 448.86C910.451 449.54 911.125 449.88 911.951 449.88ZM921.851 451.24C920.824 451.24 920.071 450.92 919.591 450.28C919.111 449.627 918.871 448.68 918.871 447.44V441.28H920.531V447.22C920.531 448.127 920.671 448.787 920.951 449.2C921.244 449.613 921.711 449.82 922.351 449.82C922.858 449.82 923.304 449.693 923.691 449.44C924.091 449.173 924.518 448.753 924.971 448.18V441.28H926.611V451H925.251L925.111 449.48H925.051C924.598 450.013 924.118 450.44 923.611 450.76C923.104 451.08 922.518 451.24 921.851 451.24ZM929.89 451V441.28H931.25L931.39 442.68H931.45C931.917 442.213 932.41 441.827 932.93 441.52C933.45 441.2 934.043 441.04 934.71 441.04C935.737 441.04 936.483 441.367 936.95 442.02C937.43 442.66 937.67 443.6 937.67 444.84V451H936.03V445.06C936.03 444.153 935.883 443.493 935.59 443.08C935.297 442.667 934.83 442.46 934.19 442.46C933.697 442.46 933.25 442.587 932.85 442.84C932.463 443.093 932.023 443.467 931.53 443.96V451H929.89ZM943.888 451.24C942.848 451.24 942.121 450.94 941.708 450.34C941.308 449.74 941.108 448.96 941.108 448V442.62H939.668V441.38L941.188 441.28L941.388 438.56H942.768V441.28H945.388V442.62H942.768V448.02C942.768 448.62 942.874 449.087 943.088 449.42C943.314 449.74 943.708 449.9 944.268 449.9C944.441 449.9 944.628 449.873 944.828 449.82C945.028 449.753 945.208 449.693 945.368 449.64L945.688 450.88C945.421 450.973 945.128 451.053 944.808 451.12C944.501 451.2 944.194 451.24 943.888 451.24ZM949.396 451.24C948.582 451.24 947.902 451 947.356 450.52C946.822 450.027 946.556 449.347 946.556 448.48C946.556 447.413 947.029 446.6 947.976 446.04C948.936 445.467 950.449 445.067 952.516 444.84C952.516 444.427 952.456 444.033 952.336 443.66C952.229 443.287 952.029 442.987 951.736 442.76C951.456 442.52 951.049 442.4 950.516 442.4C949.956 442.4 949.429 442.507 948.936 442.72C948.442 442.933 948.002 443.173 947.616 443.44L946.976 442.3C947.429 442.007 947.982 441.727 948.636 441.46C949.302 441.18 950.022 441.04 950.796 441.04C951.982 441.04 952.842 441.407 953.376 442.14C953.909 442.86 954.176 443.827 954.176 445.04V451H952.816L952.676 449.84H952.616C952.162 450.213 951.662 450.54 951.116 450.82C950.582 451.1 950.009 451.24 949.396 451.24ZM949.876 449.92C950.342 449.92 950.782 449.807 951.196 449.58C951.609 449.353 952.049 449.033 952.516 448.62V445.92C950.902 446.12 949.769 446.42 949.116 446.82C948.476 447.22 948.156 447.733 948.156 448.36C948.156 448.907 948.322 449.307 948.656 449.56C948.989 449.8 949.396 449.92 949.876 449.92ZM957.234 451V441.28H958.874V451H957.234ZM958.074 439.28C957.754 439.28 957.487 439.187 957.274 439C957.074 438.8 956.974 438.533 956.974 438.2C956.974 437.88 957.074 437.62 957.274 437.42C957.487 437.22 957.754 437.12 958.074 437.12C958.394 437.12 958.654 437.22 958.854 437.42C959.067 437.62 959.174 437.88 959.174 438.2C959.174 438.533 959.067 438.8 958.854 439C958.654 439.187 958.394 439.28 958.074 439.28ZM962.156 451V441.28H963.516L963.656 442.68H963.716C964.182 442.213 964.676 441.827 965.196 441.52C965.716 441.2 966.309 441.04 966.976 441.04C968.002 441.04 968.749 441.367 969.216 442.02C969.696 442.66 969.936 443.6 969.936 444.84V451H968.296V445.06C968.296 444.153 968.149 443.493 967.856 443.08C967.562 442.667 967.096 442.46 966.456 442.46C965.962 442.46 965.516 442.587 965.116 442.84C964.729 443.093 964.289 443.467 963.796 443.96V451H962.156ZM975.633 451.24C974.94 451.24 974.28 451.113 973.653 450.86C973.026 450.593 972.48 450.273 972.013 449.9L972.833 448.8C973.26 449.133 973.7 449.413 974.153 449.64C974.606 449.853 975.12 449.96 975.693 449.96C976.333 449.96 976.813 449.813 977.133 449.52C977.453 449.213 977.613 448.853 977.613 448.44C977.613 448.107 977.5 447.827 977.273 447.6C977.06 447.373 976.78 447.187 976.433 447.04C976.1 446.88 975.753 446.733 975.393 446.6C974.94 446.427 974.493 446.233 974.053 446.02C973.613 445.793 973.253 445.507 972.973 445.16C972.693 444.8 972.553 444.347 972.553 443.8C972.553 443.013 972.846 442.36 973.433 441.84C974.033 441.307 974.86 441.04 975.913 441.04C976.513 441.04 977.073 441.147 977.593 441.36C978.113 441.573 978.56 441.833 978.933 442.14L978.133 443.18C977.8 442.927 977.453 442.72 977.093 442.56C976.733 442.4 976.34 442.32 975.913 442.32C975.3 442.32 974.846 442.46 974.553 442.74C974.273 443.02 974.133 443.347 974.133 443.72C974.133 444.027 974.233 444.28 974.433 444.48C974.633 444.667 974.893 444.833 975.213 444.98C975.533 445.113 975.873 445.253 976.233 445.4C976.7 445.573 977.16 445.773 977.613 446C978.066 446.213 978.44 446.507 978.733 446.88C979.04 447.24 979.193 447.727 979.193 448.34C979.193 448.86 979.053 449.34 978.773 449.78C978.506 450.22 978.106 450.573 977.573 450.84C977.053 451.107 976.406 451.24 975.633 451.24Z" fill="#292A2E"/>
<g opacity="0.6">
<path fill-rule="evenodd" clip-rule="evenodd" d="M929.212 467.21C931.013 465.41 933.454 464.398 936 464.398C938.546 464.398 940.988 465.41 942.789 467.21C944.589 469.011 945.6 471.452 945.6 473.998C945.6 476.545 944.589 478.986 942.789 480.787C940.988 482.587 938.546 483.598 936 483.598C933.454 483.598 931.013 482.587 929.212 480.787C927.412 478.986 926.4 476.545 926.4 473.998C926.4 471.452 927.412 469.011 929.212 467.21ZM928.24 470.784C927.818 471.803 927.6 472.895 927.6 473.998C927.6 476.226 928.485 478.363 930.061 479.938C931.636 481.513 933.773 482.398 936 482.398C938.228 482.398 940.365 481.513 941.94 479.938C943.515 478.363 944.4 476.226 944.4 473.998C944.4 472.895 944.183 471.803 943.761 470.784C943.339 469.765 942.72 468.839 941.94 468.059C941.16 467.279 940.234 466.66 939.215 466.238C938.196 465.816 937.103 465.598 936 465.598C934.897 465.598 933.805 465.816 932.786 466.238C931.767 466.66 930.841 467.279 930.061 468.059C929.281 468.839 928.662 469.765 928.24 470.784Z" fill="#292A2E"/>
</g>
</svg>
